Hubballi-Regular-wire.ufo
<glyph name="exclam" format="1">
  <advance width="337"/>
  <unicode hex="0021"/>
  <outline>
    <contour>
      <point x="167" y="269" type="move"/>
      <point x="174" y="547" type="line"/>
    </contour>
    <component base="period" xOffset="49"/>
  </outline>
</glyph>
<glyph name="quotedbl" format="1">
  <advance width="414"/>
  <unicode hex="0022"/>
  <outline>
    <contour>
      <point x="139" y="578" type="move"/>
      <point x="130" y="526"/>
      <point x="106" y="437"/>
      <point x="93" y="402" type="curve"/>
    </contour>
    <contour>
      <point x="297" y="578" type="move"/>
      <point x="288" y="526"/>
      <point x="264" y="437"/>
      <point x="251" y="402" type="curve"/>
    </contour>
  </outline>
</glyph>
<glyph name="numbersign" format="1">
  <advance width="586"/>
  <unicode hex="0023"/>
  <outline>
    <contour>
      <point x="476" y="511" type="move"/>
      <point x="300" y="27" type="line"/>
    </contour>
    <contour>
      <point x="276" y="511" type="move"/>
      <point x="100" y="27" type="line"/>
    </contour>
    <contour>
      <point x="527" y="382" type="move"/>
      <point x="123" y="382" type="line"/>
    </contour>
    <contour>
      <point x="458" y="182" type="move"/>
      <point x="54" y="182" type="line"/>
    </contour>
  </outline>
</glyph>
<glyph name="dollar" format="1">
  <advance width="584"/>
  <unicode hex="0024"/>
  <outline>
    <contour>
      <point x="442" y="494" type="move"/>
      <point x="388" y="513"/>
      <point x="349" y="524"/>
      <point x="270" y="524" type="curve" smooth="yes"/>
      <point x="172" y="524"/>
      <point x="114" y="473"/>
      <point x="114" y="420" type="curve" smooth="yes"/>
      <point x="114" y="370"/>
      <point x="140" y="314"/>
      <point x="294" y="288" type="curve" smooth="yes"/>
      <point x="434" y="261"/>
      <point x="481" y="210"/>
      <point x="481" y="146" type="curve" smooth="yes"/>
      <point x="481" y="82"/>
      <point x="424" y="24"/>
      <point x="293" y="24" type="curve" smooth="yes"/>
      <point x="224" y="24"/>
      <point x="159" y="38"/>
      <point x="99" y="67" type="curve"/>
      <point x="99" y="67"/>
    </contour>
    <contour>
      <point x="289" y="616" type="move"/>
      <point x="289" y="-74" type="line"/>
    </contour>
  </outline>
</glyph>
<glyph name="percent" format="1">
  <advance width="814"/>
  <unicode hex="0025"/>
  <outline>
    <contour>
      <point x="550" y="518" type="move"/>
      <point x="267" y="33" type="line"/>
    </contour>
    <contour>
      <point x="203" y="525" type="curve" smooth="yes"/>
      <point x="139" y="525"/>
      <point x="94" y="468"/>
      <point x="94" y="388" type="curve" smooth="yes"/>
      <point x="94" y="315"/>
      <point x="140" y="253"/>
      <point x="203" y="253" type="curve" smooth="yes"/>
      <point x="272" y="253"/>
      <point x="311" y="315"/>
      <point x="311" y="389" type="curve" smooth="yes"/>
      <point x="311" y="468"/>
      <point x="263" y="525"/>
    </contour>
    <contour>
      <point x="612" y="295" type="curve" smooth="yes"/>
      <point x="548" y="295"/>
      <point x="503" y="238"/>
      <point x="503" y="158" type="curve" smooth="yes"/>
      <point x="503" y="85"/>
      <point x="549" y="23"/>
      <point x="612" y="23" type="curve" smooth="yes"/>
      <point x="681" y="23"/>
      <point x="720" y="85"/>
      <point x="720" y="159" type="curve" smooth="yes"/>
      <point x="720" y="238"/>
      <point x="672" y="295"/>
    </contour>
  </outline>
</glyph>
<glyph name="ampersand" format="1">
  <advance width="644"/>
  <unicode hex="0026"/>
  <outline>
    <contour>
      <point x="525" y="287" type="move"/>
      <point x="439" y="165" type="line" smooth="yes"/>
      <point x="365" y="60"/>
      <point x="311" y="25"/>
      <point x="238" y="25" type="curve" smooth="yes"/>
      <point x="155" y="25"/>
      <point x="97" y="76"/>
      <point x="97" y="143" type="curve" smooth="yes"/>
      <point x="97" y="208"/>
      <point x="131" y="259"/>
      <point x="277" y="319" type="curve" smooth="yes"/>
      <point x="340" y="345"/>
      <point x="369" y="382"/>
      <point x="369" y="429" type="curve" smooth="yes"/>
      <point x="369" y="483"/>
      <point x="323" y="525"/>
      <point x="263" y="525" type="curve" smooth="yes"/>
      <point x="204" y="525"/>
      <point x="160" y="485"/>
      <point x="160" y="425" type="curve" smooth="yes"/>
      <point x="160" y="371"/>
      <point x="200" y="330"/>
      <point x="259" y="278" type="curve" smooth="yes"/>
      <point x="540" y="33" type="line"/>
    </contour>
  </outline>
</glyph>
<glyph name="quotesingle" format="1">
  <advance width="255"/>
  <unicode hex="0027"/>
  <outline>
    <contour>
      <point x="124" y="587" type="move"/>
      <point x="128" y="575"/>
      <point x="130" y="557"/>
      <point x="130" y="538" type="curve" smooth="yes"/>
      <point x="130" y="492"/>
      <point x="114" y="446"/>
      <point x="88" y="411" type="curve" smooth="yes"/>
      <point x="67" y="381"/>
    </contour>
  </outline>
</glyph>
<glyph name="parenleft" format="1">
  <advance width="325"/>
  <unicode hex="0028"/>
  <outline>
    <contour>
      <point x="238" y="613" type="move"/>
      <point x="163" y="530"/>
      <point x="102" y="403"/>
      <point x="102" y="269" type="curve" smooth="yes"/>
      <point x="102" y="137"/>
      <point x="159" y="16"/>
      <point x="238" y="-66" type="curve"/>
    </contour>
  </outline>
</glyph>
<glyph name="asterisk" format="1">
  <advance width="441"/>
  <unicode hex="002A"/>
  <outline>
    <contour>
      <point x="220" y="548" type="move"/>
      <point x="220" y="300" type="line"/>
    </contour>
    <contour>
      <point x="104" y="490" type="move"/>
      <point x="337" y="354" type="line"/>
    </contour>
    <contour>
      <point x="104" y="354" type="move"/>
      <point x="337" y="490" type="line"/>
    </contour>
  </outline>
</glyph>
<glyph name="comma" format="1">
  <advance width="240"/>
  <unicode hex="002C"/>
  <outline>
    <contour>
      <point x="115" y="81" type="move"/>
      <point x="119" y="69"/>
      <point x="121" y="51"/>
      <point x="121" y="32" type="curve" smooth="yes"/>
      <point x="121" y="-14"/>
      <point x="105" y="-60"/>
      <point x="79" y="-95" type="curve"/>
    </contour>
  </outline>
</glyph>
<glyph name="period" format="1">
  <advance width="225"/>
  <unicode hex="002E"/>
  <outline>
    <contour>
      <point x="113" y="86" type="curve" smooth="yes"/>
      <point x="98" y="86"/>
      <point x="93" y="71"/>
      <point x="93" y="57" type="curve" smooth="yes"/>
      <point x="93" y="40"/>
      <point x="102" y="28"/>
      <point x="114" y="28" type="curve" smooth="yes"/>
      <point x="128" y="28"/>
      <point x="134" y="40"/>
      <point x="134" y="57" type="curve" smooth="yes"/>
      <point x="134" y="71"/>
      <point x="127" y="86"/>
    </contour>
  </outline>
</glyph>
<glyph name="slash" format="1">
  <advance width="405"/>
  <unicode hex="002F"/>
  <outline>
    <contour>
      <point x="324" y="613" type="move"/>
      <point x="75" y="-67" type="line"/>
    </contour>
  </outline>
</glyph>
<glyph name="zero" format="1">
  <advance width="566"/>
  <unicode hex="0030"/>
  <outline>
    <contour>
      <point x="284" y="526" type="curve" smooth="yes"/>
      <point x="166" y="526"/>
      <point x="84" y="422"/>
      <point x="84" y="275" type="curve" smooth="yes"/>
      <point x="84" y="140"/>
      <point x="168" y="25"/>
      <point x="284" y="25" type="curve" smooth="yes"/>
      <point x="410" y="25"/>
      <point x="481" y="140"/>
      <point x="481" y="277" type="curve" smooth="yes"/>
      <point x="481" y="422"/>
      <point x="393" y="526"/>
    </contour>
  </outline>
</glyph>
<glyph name="one" format="1">
  <advance width="333.0"/>
  <unicode hex="0031"/>
  <outline>
    <contour>
      <point x="205" y="511" type="move"/>
      <point x="205" y="33" type="line"/>
    </contour>
    <contour>
      <point x="205" y="518" type="move"/>
      <point x="75" y="447" type="line"/>
    </contour>
  </outline>
</glyph>
<glyph name="two" format="1">
  <advance width="518"/>
  <unicode hex="0032"/>
  <outline>
    <contour>
      <point x="91" y="36" type="move"/>
      <point x="257" y="195" type="line" smooth="yes"/>
      <point x="366" y="299"/>
      <point x="400" y="342"/>
      <point x="400" y="404" type="curve" smooth="yes"/>
      <point x="400" y="462"/>
      <point x="355" y="518"/>
      <point x="263" y="518" type="curve" smooth="yes"/>
      <point x="211" y="518"/>
      <point x="159" y="503"/>
      <point x="112" y="474" type="curve"/>
    </contour>
    <contour>
      <point x="433" y="27" type="move"/>
      <point x="81" y="27" type="line"/>
    </contour>
  </outline>
</glyph>
<glyph name="three" format="1">
  <advance width="512"/>
  <unicode hex="0033"/>
  <outline>
    <contour>
      <point x="115" y="518" type="move"/>
      <point x="412" y="518" type="line"/>
    </contour>
    <contour>
      <point x="98" y="60" type="move"/>
      <point x="140" y="42"/>
      <point x="193" y="29"/>
      <point x="255" y="29" type="curve" smooth="yes"/>
      <point x="371" y="29"/>
      <point x="427" y="87"/>
      <point x="427" y="165" type="curve" smooth="yes"/>
      <point x="427" y="242"/>
      <point x="367" y="295"/>
      <point x="266" y="295" type="curve" smooth="yes"/>
      <point x="219" y="295"/>
      <point x="181" y="287"/>
      <point x="159" y="280" type="curve"/>
    </contour>
    <contour>
      <point x="403" y="510" type="move"/>
      <point x="164" y="284" type="line" smooth="yes"/>
    </contour>
  </outline>
</glyph>
<glyph name="four" format="1">
  <advance width="541"/>
  <unicode hex="0034"/>
  <outline>
    <contour>
      <point x="372" y="522" type="move"/>
      <point x="372" y="27" type="line"/>
    </contour>
    <contour>
      <point x="365" y="513" type="move"/>
      <point x="66" y="151" type="line"/>
    </contour>
    <contour>
      <point x="76" y="151" type="move"/>
      <point x="480" y="151" type="line"/>
    </contour>
  </outline>
</glyph>
<glyph name="five" format="1">
  <advance width="531"/>
  <unicode hex="0035"/>
  <outline>
    <contour>
      <point x="149" y="512" type="move"/>
      <point x="406" y="512" type="line"/>
    </contour>
    <contour>
      <point x="101" y="58" type="move"/>
      <point x="144" y="38"/>
      <point x="205" y="23"/>
      <point x="271" y="23" type="curve" smooth="yes"/>
      <point x="385" y="23"/>
      <point x="437" y="88"/>
      <point x="437" y="171" type="curve" smooth="yes"/>
      <point x="437" y="249"/>
      <point x="376" y="307"/>
      <point x="275" y="307" type="curve" smooth="yes"/>
      <point x="209" y="307"/>
      <point x="161" y="290"/>
      <point x="129" y="275" type="curve"/>
    </contour>
    <contour>
      <point x="148" y="505" type="move"/>
      <point x="129" y="280" type="line" smooth="yes"/>
    </contour>
  </outline>
</glyph>
<glyph name="six" format="1">
  <advance width="539"/>
  <unicode hex="0036"/>
  <outline>
    <contour>
      <point x="388" y="513" type="move"/>
      <point x="361" y="522"/>
      <point x="339" y="527"/>
      <point x="306" y="527" type="curve" smooth="yes"/>
      <point x="175" y="527"/>
      <point x="95" y="425"/>
      <point x="95" y="259" type="curve" smooth="yes"/>
      <point x="95" y="106"/>
      <point x="173" y="29"/>
      <point x="285" y="29" type="curve" smooth="yes"/>
      <point x="404" y="29"/>
      <point x="452" y="107"/>
      <point x="452" y="181" type="curve" smooth="yes"/>
      <point x="452" y="263"/>
      <point x="392" y="319"/>
      <point x="305" y="319" type="curve" smooth="yes"/>
      <point x="215" y="319"/>
      <point x="141" y="258"/>
      <point x="111" y="150" type="curve"/>
    </contour>
  </outline>
</glyph>
<glyph name="seven" format="1">
  <advance width="466"/>
  <unicode hex="0037"/>
  <outline>
    <contour>
      <point x="411" y="517" type="move"/>
      <point x="373" y="446"/>
      <point x="270" y="307"/>
      <point x="241" y="256" type="curve" smooth="yes"/>
      <point x="214" y="207"/>
      <point x="192" y="147"/>
      <point x="192" y="88" type="curve" smooth="yes"/>
      <point x="192" y="33" type="line"/>
    </contour>
    <contour>
      <point x="404" y="518" type="move"/>
      <point x="61" y="518" type="line"/>
    </contour>
  </outline>
</glyph>
<glyph name="eight" format="1">
  <advance width="568"/>
  <unicode hex="0038"/>
  <outline>
    <contour>
      <point x="285" y="289" type="curve" smooth="yes"/>
      <point x="167" y="289"/>
      <point x="100" y="235"/>
      <point x="100" y="153" type="curve" smooth="yes"/>
      <point x="100" y="80"/>
      <point x="161" y="19"/>
      <point x="285" y="19" type="curve" smooth="yes"/>
      <point x="417" y="19"/>
      <point x="468" y="80"/>
      <point x="468" y="154" type="curve" smooth="yes"/>
      <point x="468" y="235"/>
      <point x="396" y="289"/>
    </contour>
    <contour>
      <point x="285" y="519" type="curve" smooth="yes"/>
      <point x="184" y="519"/>
      <point x="126" y="475"/>
      <point x="126" y="406" type="curve" smooth="yes"/>
      <point x="126" y="341"/>
      <point x="175" y="289"/>
      <point x="285" y="289" type="curve" smooth="yes"/>
      <point x="390" y="289"/>
      <point x="442" y="341"/>
      <point x="442" y="406" type="curve" smooth="yes"/>
      <point x="442" y="475"/>
      <point x="381" y="519"/>
    </contour>
  </outline>
</glyph>
<glyph name="nine" format="1">
  <advance width="546"/>
  <unicode hex="0039"/>
  <outline>
    <contour>
      <point x="156" y="43" type="move"/>
      <point x="182" y="36"/>
      <point x="205" y="30"/>
      <point x="238" y="30" type="curve" smooth="yes"/>
      <point x="377" y="30"/>
      <point x="446" y="120"/>
      <point x="446" y="278" type="curve" smooth="yes"/>
      <point x="446" y="436"/>
      <point x="370" y="522"/>
      <point x="256" y="522" type="curve" smooth="yes"/>
      <point x="145" y="522"/>
      <point x="92" y="446"/>
      <point x="92" y="372" type="curve" smooth="yes"/>
      <point x="92" y="279"/>
      <point x="148" y="226"/>
      <point x="247" y="226" type="curve" smooth="yes"/>
      <point x="339" y="226"/>
      <point x="398" y="280"/>
      <point x="443" y="353" type="curve"/>
    </contour>
  </outline>
</glyph>
<glyph name="less" format="1">
  <advance width="491"/>
  <unicode hex="003C"/>
  <outline>
    <contour>
      <point x="99" y="257" type="move"/>
      <point x="381" y="385" type="line"/>
    </contour>
    <contour>
      <point x="386" y="121" type="move"/>
      <point x="94" y="254" type="line"/>
    </contour>
  </outline>
</glyph>
<glyph name="equal" format="1">
  <advance width="540"/>
  <unicode hex="003D"/>
  <outline>
    <contour>
      <point x="101" y="367" type="move"/>
      <point x="438" y="367" type="line"/>
    </contour>
    <contour>
      <point x="101" y="169" type="move"/>
      <point x="438" y="169" type="line"/>
    </contour>
  </outline>
</glyph>
<glyph name="question" format="1">
  <advance width="381"/>
  <unicode hex="003F"/>
  <outline>
    <contour>
      <point x="74" y="509" type="move"/>
      <point x="109" y="531"/>
      <point x="143" y="544"/>
      <point x="199" y="544" type="curve" smooth="yes"/>
      <point x="275" y="544"/>
      <point x="322" y="497"/>
      <point x="322" y="443" type="curve" smooth="yes"/>
      <point x="322" y="384"/>
      <point x="290" y="353"/>
      <point x="224" y="316" type="curve" smooth="yes"/>
      <point x="177" y="289"/>
      <point x="166" y="263"/>
      <point x="163" y="222" type="curve"/>
    </contour>
    <component base="period" xOffset="50"/>
  </outline>
</glyph>
<glyph name="at" format="1">
  <advance width="675"/>
  <unicode hex="0040"/>
  <outline>
    <contour>
      <point x="427" y="390" type="move"/>
      <point x="427" y="260" type="line" smooth="yes"/>
      <point x="427" y="199"/>
      <point x="464" y="163"/>
      <point x="509" y="163" type="curve" smooth="yes"/>
      <point x="559" y="163"/>
      <point x="596" y="207"/>
      <point x="596" y="285" type="curve" smooth="yes"/>
      <point x="596" y="411"/>
      <point x="502" y="528"/>
      <point x="341" y="528" type="curve" smooth="yes"/>
      <point x="191" y="528"/>
      <point x="81" y="411"/>
      <point x="81" y="271" type="curve" smooth="yes"/>
      <point x="81" y="131"/>
      <point x="188" y="23"/>
      <point x="344" y="23" type="curve" smooth="yes"/>
      <point x="406" y="23"/>
      <point x="458" y="37"/>
      <point x="497" y="54" type="curve"/>
    </contour>
    <contour>
      <point x="427" y="363" type="move"/>
      <point x="401" y="380"/>
      <point x="373" y="390"/>
      <point x="336" y="390" type="curve" smooth="yes"/>
      <point x="276" y="390"/>
      <point x="225" y="344"/>
      <point x="225" y="267" type="curve" smooth="yes"/>
      <point x="225" y="202"/>
      <point x="270" y="164"/>
      <point x="318" y="164" type="curve" smooth="yes"/>
      <point x="358" y="164"/>
      <point x="398" y="187"/>
      <point x="426" y="235" type="curve"/>
    </contour>
  </outline>
</glyph>
<glyph name="A" format="1">
  <advance width="574"/>
  <unicode hex="0041"/>
  <outline>
    <contour>
      <point x="278" y="527" type="move"/>
      <point x="210" y="374"/>
      <point x="115" y="159"/>
      <point x="70" y="33" type="curve"/>
    </contour>
    <contour>
      <point x="284" y="527" type="move"/>
      <point x="356" y="373"/>
      <point x="454" y="156"/>
      <point x="502" y="33" type="curve"/>
    </contour>
    <contour>
      <point x="139" y="178" type="move"/>
      <point x="430" y="178" type="line"/>
    </contour>
  </outline>
</glyph>
<glyph name="B" format="1">
  <advance width="534"/>
  <unicode hex="0042"/>
  <outline>
    <contour>
      <point x="137" y="293" type="move"/>
      <point x="286" y="293" type="line" smooth="yes"/>
      <point x="338" y="293"/>
      <point x="385" y="275"/>
      <point x="413" y="247" type="curve" smooth="yes"/>
      <point x="438" y="222"/>
      <point x="450" y="193"/>
      <point x="450" y="160" type="curve" smooth="yes"/>
      <point x="450" y="130"/>
      <point x="439" y="100"/>
      <point x="416" y="77" type="curve" smooth="yes"/>
      <point x="390" y="51"/>
      <point x="350" y="33"/>
      <point x="283" y="33" type="curve" smooth="yes"/>
      <point x="128" y="33" type="line"/>
      <point x="128" y="518" type="line"/>
      <point x="267" y="518" type="line" smooth="yes"/>
      <point x="317" y="518"/>
      <point x="351" y="502"/>
      <point x="372" y="481" type="curve" smooth="yes"/>
      <point x="390" y="463"/>
      <point x="402" y="433"/>
      <point x="402" y="407" type="curve" smooth="yes"/>
      <point x="402" y="378"/>
      <point x="390" y="350"/>
      <point x="372" y="332" type="curve" smooth="yes"/>
      <point x="354" y="314"/>
      <point x="319" y="296"/>
      <point x="278" y="293" type="curve"/>
    </contour>
  </outline>
</glyph>
<glyph name="C" format="1">
  <advance width="557"/>
  <unicode hex="0043"/>
  <outline>
    <contour>
      <point x="465" y="498" type="move"/>
      <point x="432" y="516"/>
      <point x="382" y="527"/>
      <point x="329" y="527" type="curve" smooth="yes"/>
      <point x="196" y="527"/>
      <point x="81" y="425"/>
      <point x="81" y="272" type="curve" smooth="yes"/>
      <point x="81" y="132"/>
      <point x="174" y="24"/>
      <point x="335" y="24" type="curve" smooth="yes"/>
      <point x="387" y="24"/>
      <point x="433" y="35"/>
      <point x="470" y="54" type="curve"/>
    </contour>
  </outline>
</glyph>
<glyph name="D" format="1">
  <advance width="617"/>
  <unicode hex="0044"/>
  <outline>
    <contour>
      <point x="304" y="33" type="line" smooth="yes"/>
      <point x="442" y="33"/>
      <point x="531" y="141"/>
      <point x="531" y="276" type="curve" smooth="yes"/>
      <point x="531" y="418"/>
      <point x="424" y="518"/>
      <point x="304" y="518" type="curve" smooth="yes"/>
      <point x="128" y="518" type="line"/>
      <point x="128" y="33" type="line"/>
    </contour>
  </outline>
</glyph>
<glyph name="E" format="1">
  <advance width="495"/>
  <unicode hex="0045"/>
  <outline>
    <contour>
      <point x="128" y="512" type="move"/>
      <point x="128" y="27" type="line"/>
    </contour>
    <contour>
      <point x="136" y="27" type="move"/>
      <point x="407" y="27" type="line"/>
    </contour>
    <contour>
      <point x="136" y="512" type="move"/>
      <point x="405" y="512" type="line"/>
    </contour>
    <contour>
      <point x="136" y="288" type="move"/>
      <point x="362" y="288" type="line"/>
    </contour>
  </outline>
</glyph>
<glyph name="G" format="1">
  <advance width="608"/>
  <unicode hex="0047"/>
  <outline>
    <contour>
      <point x="476" y="500" type="move"/>
      <point x="434" y="516"/>
      <point x="386" y="527"/>
      <point x="330" y="527" type="curve" smooth="yes"/>
      <point x="186" y="527"/>
      <point x="81" y="425"/>
      <point x="81" y="272" type="curve" smooth="yes"/>
      <point x="81" y="134"/>
      <point x="171" y="24"/>
      <point x="327" y="24" type="curve" smooth="yes"/>
      <point x="404" y="24"/>
      <point x="460" y="44"/>
      <point x="506" y="73" type="curve"/>
      <point x="506" y="73"/>
    </contour>
    <contour>
      <point x="507" y="83" type="move"/>
      <point x="507" y="257" type="line"/>
    </contour>
    <contour>
      <point x="496" y="257" type="move"/>
      <point x="343" y="257" type="line"/>
    </contour>
  </outline>
</glyph>
<glyph name="H" format="1">
  <advance width="641"/>
  <unicode hex="0048"/>
  <outline>
    <contour>
      <point x="128" y="518" type="move"/>
      <point x="128" y="33" type="line"/>
    </contour>
    <contour>
      <point x="513" y="518" type="move"/>
      <point x="513" y="33" type="line"/>
    </contour>
    <contour>
      <point x="132" y="293" type="move"/>
      <point x="512" y="293" type="line"/>
    </contour>
  </outline>
</glyph>
<glyph name="J" format="1">
  <advance width="399"/>
  <unicode hex="004A"/>
  <outline>
    <contour>
      <point x="76" y="43" type="move"/>
      <point x="105" y="30"/>
      <point x="135" y="24"/>
      <point x="165" y="24" type="curve" smooth="yes"/>
      <point x="243" y="24"/>
      <point x="283" y="75"/>
      <point x="283" y="175" type="curve" smooth="yes"/>
      <point x="283" y="518" type="line"/>
    </contour>
  </outline>
</glyph>
<glyph name="K" format="1">
  <advance width="558"/>
  <unicode hex="004B"/>
  <outline>
    <contour>
      <point x="128" y="512" type="move"/>
      <point x="128" y="27" type="line"/>
    </contour>
    <contour>
      <point x="252" y="305" type="move"/>
      <point x="309" y="236"/>
      <point x="429" y="90"/>
      <point x="484" y="27" type="curve"/>
    </contour>
    <contour>
      <point x="128" y="195" type="move"/>
      <point x="176" y="239"/>
      <point x="364" y="407"/>
      <point x="464" y="512" type="curve"/>
    </contour>
  </outline>
</glyph>
<glyph name="M" format="1">
  <advance width="816"/>
  <unicode hex="004D"/>
  <outline>
    <contour>
      <point x="171" y="521" type="move"/>
      <point x="147" y="378"/>
      <point x="115" y="141"/>
      <point x="103" y="25" type="curve"/>
    </contour>
    <contour>
      <point x="630" y="522" type="move"/>
      <point x="661" y="366"/>
      <point x="694" y="159"/>
      <point x="712" y="25" type="curve"/>
    </contour>
    <contour>
      <point x="183" y="508" type="move"/>
      <point x="245" y="381"/>
      <point x="339" y="184"/>
      <point x="406" y="44" type="curve"/>
    </contour>
    <contour>
      <point x="409" y="56" type="move"/>
      <point x="469" y="192"/>
      <point x="549" y="368"/>
      <point x="623" y="514" type="curve"/>
    </contour>
  </outline>
</glyph>
<glyph name="O" format="1">
  <advance width="640"/>
  <unicode hex="004F"/>
  <outline>
    <contour>
      <point x="322" y="527" type="curve" smooth="yes"/>
      <point x="181" y="527"/>
      <point x="86" y="423"/>
      <point x="86" y="272" type="curve" smooth="yes"/>
      <point x="86" y="134"/>
      <point x="183" y="24"/>
      <point x="322" y="24" type="curve" smooth="yes"/>
      <point x="469" y="24"/>
      <point x="554" y="134"/>
      <point x="554" y="275" type="curve" smooth="yes"/>
      <point x="554" y="423"/>
      <point x="451" y="527"/>
    </contour>
  </outline>
</glyph>
<glyph name="P" format="1">
  <advance width="520"/>
  <unicode hex="0050"/>
  <outline>
    <contour>
      <point x="154" y="209" type="move"/>
      <point x="271" y="209" type="line" smooth="yes"/>
      <point x="384" y="209"/>
      <point x="442" y="279"/>
      <point x="442" y="364" type="curve" smooth="yes"/>
      <point x="442" y="454"/>
      <point x="372" y="518"/>
      <point x="271" y="518" type="curve" smooth="yes"/>
      <point x="128" y="518" type="line"/>
      <point x="128" y="33" type="line"/>
    </contour>
  </outline>
</glyph>
<glyph name="Q" format="1">
  <advance width="620"/>
  <unicode hex="0051"/>
  <outline>
    <contour>
      <point x="313" y="15" type="move"/>
      <point x="332" y="-58"/>
      <point x="401" y="-116"/>
      <point x="507" y="-116" type="curve"/>
    </contour>
    <contour>
      <point x="312" y="521" type="curve" smooth="yes"/>
      <point x="177" y="521"/>
      <point x="86" y="417"/>
      <point x="86" y="266" type="curve" smooth="yes"/>
      <point x="86" y="128"/>
      <point x="179" y="18"/>
      <point x="312" y="18" type="curve" smooth="yes"/>
      <point x="453" y="18"/>
      <point x="534" y="128"/>
      <point x="534" y="269" type="curve" smooth="yes"/>
      <point x="534" y="417"/>
      <point x="435" y="521"/>
    </contour>
  </outline>
</glyph>
<glyph name="R" format="1">
  <advance width="539"/>
  <unicode hex="0052"/>
  <outline>
    <contour>
      <point x="154" y="232" type="move"/>
      <point x="275" y="232" type="line" smooth="yes"/>
      <point x="386" y="232"/>
      <point x="441" y="297"/>
      <point x="441" y="375" type="curve" smooth="yes"/>
      <point x="441" y="459"/>
      <point x="375" y="518"/>
      <point x="275" y="518" type="curve" smooth="yes"/>
      <point x="128" y="518" type="line"/>
      <point x="128" y="33" type="line"/>
    </contour>
    <contour>
      <point x="310" y="219" type="move"/>
      <point x="469" y="33" type="line"/>
    </contour>
  </outline>
</glyph>
<glyph name="S" format="1">
  <advance width="535"/>
  <unicode hex="0053"/>
  <outline>
    <contour>
      <point x="398" y="494" type="move"/>
      <point x="351" y="513"/>
      <point x="317" y="524"/>
      <point x="248" y="524" type="curve" smooth="yes"/>
      <point x="163" y="524"/>
      <point x="112" y="473"/>
      <point x="112" y="420" type="curve" smooth="yes"/>
      <point x="112" y="370"/>
      <point x="135" y="314"/>
      <point x="269" y="288" type="curve" smooth="yes"/>
      <point x="391" y="261"/>
      <point x="432" y="210"/>
      <point x="432" y="146" type="curve" smooth="yes"/>
      <point x="432" y="82"/>
      <point x="382" y="24"/>
      <point x="268" y="24" type="curve" smooth="yes"/>
      <point x="208" y="24"/>
      <point x="151" y="38"/>
      <point x="99" y="67" type="curve"/>
    </contour>
  </outline>
</glyph>
<glyph name="U" format="1">
  <advance width="616"/>
  <unicode hex="0055"/>
  <outline>
    <contour>
      <point x="111" y="518" type="move"/>
      <point x="111" y="222" type="line" smooth="yes"/>
      <point x="111" y="95"/>
      <point x="191" y="24"/>
      <point x="306" y="24" type="curve" smooth="yes"/>
      <point x="433" y="24"/>
      <point x="505" y="95"/>
      <point x="505" y="225" type="curve" smooth="yes"/>
      <point x="505" y="518" type="line"/>
    </contour>
  </outline>
</glyph>
<glyph name="W" format="1">
  <advance width="901"/>
  <unicode hex="0057"/>
  <outline>
    <contour>
      <point x="93" y="517" type="move"/>
      <point x="127" y="393"/>
      <point x="227" y="104"/>
      <point x="262" y="30" type="curve"/>
    </contour>
    <contour>
      <point x="266" y="24" type="move"/>
      <point x="303" y="108"/>
      <point x="408" y="373"/>
      <point x="451" y="514" type="curve"/>
    </contour>
    <contour>
      <point x="455" y="502" type="move"/>
      <point x="493" y="380"/>
      <point x="596" y="103"/>
      <point x="632" y="29" type="curve"/>
    </contour>
    <contour>
      <point x="636" y="23" type="move"/>
      <point x="673" y="107"/>
      <point x="768" y="374"/>
      <point x="809" y="517" type="curve"/>
    </contour>
  </outline>
</glyph>
<glyph name="X" format="1">
  <advance width="573"/>
  <unicode hex="0058"/>
  <outline>
    <contour>
      <point x="103" y="518" type="move"/>
      <point x="199" y="378"/>
      <point x="425" y="117"/>
      <point x="484" y="33" type="curve"/>
    </contour>
    <contour>
      <point x="90" y="33" type="move"/>
      <point x="169" y="140"/>
      <point x="378" y="385"/>
      <point x="464" y="518" type="curve"/>
    </contour>
  </outline>
</glyph>
<glyph name="Y" format="1">
  <advance width="570"/>
  <unicode hex="0059"/>
  <outline>
    <contour>
      <point x="287" y="201" type="move"/>
      <point x="287" y="33" type="line"/>
    </contour>
    <contour>
      <point x="79" y="518" type="move"/>
      <point x="121" y="448"/>
      <point x="241" y="270"/>
      <point x="284" y="213" type="curve"/>
    </contour>
    <contour>
      <point x="287" y="207" type="move"/>
      <point x="336" y="273"/>
      <point x="450" y="449"/>
      <point x="491" y="518" type="curve"/>
    </contour>
  </outline>
</glyph>
<glyph name="Z" format="1">
  <advance width="577"/>
  <unicode hex="005A"/>
  <outline>
    <contour>
      <point x="471" y="512" type="move"/>
      <point x="408" y="417"/>
      <point x="155" y="117"/>
      <point x="102" y="35" type="curve"/>
    </contour>
    <contour>
      <point x="111" y="512" type="move"/>
      <point x="460" y="512" type="line"/>
    </contour>
    <contour>
      <point x="98" y="27" type="move"/>
      <point x="483" y="27" type="line"/>
    </contour>
  </outline>
</glyph>
<glyph name="bracketleft" format="1">
  <advance width="315"/>
  <unicode hex="005B"/>
  <outline>
    <contour>
      <point x="233" y="613" type="move"/>
      <point x="98" y="613" type="line"/>
      <point x="98" y="-66" type="line"/>
      <point x="233" y="-66" type="line"/>
    </contour>
  </outline>
</glyph>
<glyph name="asciicircum" format="1">
  <advance width="500"/>
  <unicode hex="005E"/>
  <outline>
    <contour>
      <point x="246" y="526" type="move"/>
      <point x="198" y="434"/>
      <point x="147" y="339"/>
      <point x="106" y="259" type="curve"/>
    </contour>
    <contour>
      <point x="395" y="259" type="move"/>
      <point x="354" y="339"/>
      <point x="305" y="434"/>
      <point x="255" y="526" type="curve"/>
    </contour>
  </outline>
</glyph>
<glyph name="underscore" format="1">
  <advance width="545"/>
  <unicode hex="005F"/>
  <outline>
    <contour>
      <point x="65" y="-97" type="move"/>
      <point x="480" y="-97" type="line"/>
    </contour>
  </outline>
</glyph>
<glyph name="grave" format="1">
  <advance width="500"/>
  <unicode hex="0060"/>
  <outline>
    <contour>
      <point x="220" y="591" type="move"/>
      <point x="248" y="556"/>
      <point x="262" y="538"/>
      <point x="286" y="499" type="curve"/>
    </contour>
  </outline>
</glyph>
<glyph name="a" format="1">
  <advance width="460"/>
  <unicode hex="0061"/>
  <outline>
    <contour>
      <point x="127" y="359" type="move"/>
      <point x="148" y="366"/>
      <point x="187" y="375"/>
      <point x="220" y="375" type="curve" smooth="yes"/>
      <point x="312" y="375"/>
      <point x="354" y="319"/>
      <point x="354" y="238" type="curve" smooth="yes"/>
      <point x="354" y="147" type="line" smooth="yes"/>
      <point x="354" y="92"/>
      <point x="367" y="60"/>
      <point x="391" y="34" type="curve"/>
    </contour>
    <contour>
      <point x="353" y="227" type="move"/>
      <point x="319" y="228"/>
      <point x="289" y="230"/>
      <point x="260" y="230" type="curve" smooth="yes"/>
      <point x="187" y="230"/>
      <point x="138" y="212"/>
      <point x="108" y="182" type="curve" smooth="yes"/>
      <point x="87" y="162"/>
      <point x="80" y="139"/>
      <point x="80" y="114" type="curve" smooth="yes"/>
      <point x="80" y="78"/>
      <point x="106" y="33"/>
      <point x="177" y="33" type="curve" smooth="yes"/>
      <point x="251" y="33"/>
      <point x="306" y="63"/>
      <point x="354" y="128" type="curve"/>
    </contour>
  </outline>
</glyph>
<glyph name="b" format="1">
  <advance width="515"/>
  <unicode hex="0062"/>
  <outline>
    <contour>
      <point x="115" y="34" type="move"/>
      <point x="115" y="544" type="line"/>
    </contour>
    <contour>
      <point x="115" y="72" type="move"/>
      <point x="163" y="46"/>
      <point x="214" y="33"/>
      <point x="273" y="33" type="curve" smooth="yes"/>
      <point x="369" y="33"/>
      <point x="437" y="99"/>
      <point x="437" y="203" type="curve" smooth="yes"/>
      <point x="437" y="306"/>
      <point x="370" y="375"/>
      <point x="286" y="375" type="curve" smooth="yes"/>
      <point x="224" y="375"/>
      <point x="161" y="331"/>
      <point x="116" y="259" type="curve" smooth="yes"/>
      <point x="86" y="210"/>
    </contour>
  </outline>
</glyph>
<glyph name="c" format="1">
  <advance width="443"/>
  <unicode hex="0063"/>
  <outline>
    <contour>
      <point x="354" y="354" type="move"/>
      <point x="327" y="363"/>
      <point x="294" y="369"/>
      <point x="265" y="369" type="curve" smooth="yes"/>
      <point x="147" y="369"/>
      <point x="79" y="293"/>
      <point x="79" y="189" type="curve" smooth="yes"/>
      <point x="79" y="98"/>
      <point x="145" y="27"/>
      <point x="264" y="27" type="curve" smooth="yes"/>
      <point x="305" y="27"/>
      <point x="338" y="35"/>
      <point x="366" y="46" type="curve"/>
    </contour>
  </outline>
</glyph>
<glyph name="d" format="1">
  <advance width="515"/>
  <unicode hex="0064"/>
  <outline>
    <contour>
      <point x="400" y="316" type="move"/>
      <point x="355" y="353"/>
      <point x="310" y="375"/>
      <point x="250" y="375" type="curve" smooth="yes"/>
      <point x="152" y="375"/>
      <point x="79" y="300"/>
      <point x="79" y="196" type="curve" smooth="yes"/>
      <point x="79" y="97"/>
      <point x="144" y="33"/>
      <point x="229" y="33" type="curve" smooth="yes"/>
      <point x="305" y="33"/>
      <point x="360" y="84"/>
      <point x="399" y="150" type="curve"/>
    </contour>
    <contour>
      <point x="400" y="544" type="move"/>
      <point x="400" y="33" type="line" smooth="yes"/>
    </contour>
  </outline>
</glyph>
<glyph name="e" format="1">
  <advance width="468"/>
  <unicode hex="0065"/>
  <outline>
    <contour>
      <point x="92" y="203" type="move"/>
      <point x="301" y="203" type="line" smooth="yes"/>
      <point x="360" y="203"/>
      <point x="383" y="227"/>
      <point x="383" y="265" type="curve" smooth="yes"/>
      <point x="383" y="312"/>
      <point x="330" y="375"/>
      <point x="247" y="375" type="curve" smooth="yes"/>
      <point x="154" y="375"/>
      <point x="79" y="304"/>
      <point x="79" y="199" type="curve" smooth="yes"/>
      <point x="79" y="91"/>
      <point x="156" y="33"/>
      <point x="267" y="33" type="curve" smooth="yes"/>
      <point x="303" y="33"/>
      <point x="338" y="41"/>
      <point x="364" y="51" type="curve"/>
      <point x="364" y="51"/>
    </contour>
  </outline>
</glyph>
<glyph name="f" format="1">
  <advance width="328"/>
  <unicode hex="0066"/>
  <outline>
    <contour>
      <point x="275" y="564" type="move"/>
      <point x="171" y="558"/>
      <point x="139" y="512"/>
      <point x="139" y="442" type="curve" smooth="yes"/>
      <point x="139" y="27" type="line"/>
    </contour>
    <contour>
      <point x="51" y="369" type="move"/>
      <point x="277" y="369" type="line"/>
    </contour>
  </outline>
</glyph>
<glyph name="g" format="1">
  <advance width="513"/>
  <unicode hex="0067"/>
  <outline>
    <contour>
      <point x="398" y="338" type="move"/>
      <point x="346" y="363"/>
      <point x="311" y="375"/>
      <point x="255" y="375" type="curve" smooth="yes"/>
      <point x="166" y="375"/>
      <point x="79" y="305"/>
      <point x="79" y="195" type="curve" smooth="yes"/>
      <point x="79" y="90"/>
      <point x="150" y="45"/>
      <point x="221" y="45" type="curve" smooth="yes"/>
      <point x="287" y="45"/>
      <point x="353" y="82"/>
      <point x="397" y="152" type="curve"/>
    </contour>
    <contour>
      <point x="167" y="-148" type="move"/>
      <point x="327" y="-148"/>
      <point x="398" y="-58"/>
      <point x="398" y="79" type="curve" smooth="yes"/>
      <point x="398" y="375" type="line"/>
    </contour>
  </outline>
</glyph>
<glyph name="h" format="1">
  <advance width="507"/>
  <unicode hex="0068"/>
  <outline>
    <contour>
      <point x="115" y="33" type="move"/>
      <point x="115" y="544" type="line"/>
    </contour>
    <contour>
      <point x="402" y="33" type="move"/>
      <point x="402" y="233" type="line" smooth="yes"/>
      <point x="402" y="338"/>
      <point x="354" y="375"/>
      <point x="290" y="375" type="curve" smooth="yes"/>
      <point x="227" y="375"/>
      <point x="167" y="336"/>
      <point x="119" y="288" type="curve"/>
    </contour>
  </outline>
</glyph>
<glyph name="i" format="1">
  <advance width="217"/>
  <unicode hex="0069"/>
  <outline>
    <contour>
      <point x="108" y="27" type="move"/>
      <point x="108" y="369" type="line"/>
    </contour>
    <contour>
      <point x="109" y="577" type="curve" smooth="yes"/>
      <point x="97" y="577"/>
      <point x="90" y="564"/>
      <point x="90" y="551" type="curve" smooth="yes"/>
      <point x="90" y="538"/>
      <point x="97" y="527"/>
      <point x="109" y="527" type="curve" smooth="yes"/>
      <point x="120" y="527"/>
      <point x="126" y="538"/>
      <point x="126" y="551" type="curve" smooth="yes"/>
      <point x="126" y="564"/>
      <point x="120" y="577"/>
    </contour>
  </outline>
</glyph>
<glyph name="j" format="1">
  <advance width="220"/>
  <unicode hex="006A"/>
  <outline>
    <contour>
      <point x="1" y="-125" type="move"/>
      <point x="71" y="-98"/>
      <point x="111" y="-47"/>
      <point x="111" y="52" type="curve" smooth="yes"/>
      <point x="111" y="375" type="line"/>
    </contour>
    <contour>
      <point x="111" y="583" type="curve" smooth="yes"/>
      <point x="99" y="583"/>
      <point x="93" y="570"/>
      <point x="93" y="557" type="curve" smooth="yes"/>
      <point x="93" y="544"/>
      <point x="100" y="533"/>
      <point x="112" y="533" type="curve" smooth="yes"/>
      <point x="123" y="533"/>
      <point x="129" y="544"/>
      <point x="129" y="557" type="curve" smooth="yes"/>
      <point x="129" y="570"/>
      <point x="123" y="583"/>
    </contour>
  </outline>
</glyph>
<glyph name="m" format="1">
  <advance width="762"/>
  <unicode hex="006D"/>
  <outline>
    <contour>
      <point x="115" y="27" type="move"/>
      <point x="115" y="369" type="line"/>
    </contour>
    <contour>
      <point x="387" y="27" type="move"/>
      <point x="387" y="237" type="line" smooth="yes"/>
      <point x="387" y="340"/>
      <point x="339" y="369"/>
      <point x="278" y="369" type="curve" smooth="yes"/>
      <point x="221" y="369"/>
      <point x="161" y="329"/>
      <point x="117" y="280" type="curve"/>
    </contour>
    <contour>
      <point x="657" y="27" type="move"/>
      <point x="657" y="237" type="line" smooth="yes"/>
      <point x="657" y="340"/>
      <point x="609" y="369"/>
      <point x="548" y="369" type="curve" smooth="yes"/>
      <point x="491" y="369"/>
      <point x="432" y="329"/>
      <point x="387" y="280" type="curve"/>
    </contour>
  </outline>
</glyph>
<glyph name="o" format="1">
  <advance width="504"/>
  <unicode hex="006F"/>
  <outline>
    <contour>
      <point x="252" y="373" type="curve" smooth="yes"/>
      <point x="144" y="373"/>
      <point x="78" y="292"/>
      <point x="78" y="195" type="curve" smooth="yes"/>
      <point x="78" y="98"/>
      <point x="146" y="23"/>
      <point x="252" y="23" type="curve" smooth="yes"/>
      <point x="358" y="23"/>
      <point x="426" y="97"/>
      <point x="426" y="193" type="curve" smooth="yes"/>
      <point x="426" y="292"/>
      <point x="359" y="373"/>
    </contour>
  </outline>
</glyph>
<glyph name="p" format="1">
  <advance width="513"/>
  <unicode hex="0070"/>
  <outline>
    <contour>
      <point x="115" y="-164" type="move"/>
      <point x="115" y="369" type="line"/>
    </contour>
    <contour>
      <point x="115" y="91" type="move"/>
      <point x="161" y="53"/>
      <point x="216" y="27"/>
      <point x="270" y="27" type="curve" smooth="yes"/>
      <point x="368" y="27"/>
      <point x="435" y="101"/>
      <point x="435" y="198" type="curve" smooth="yes"/>
      <point x="435" y="309"/>
      <point x="363" y="369"/>
      <point x="282" y="369" type="curve" smooth="yes"/>
      <point x="217" y="369"/>
      <point x="161" y="326"/>
      <point x="116" y="262" type="curve"/>
    </contour>
  </outline>
</glyph>
<glyph name="q" format="1">
  <advance width="505"/>
  <unicode hex="0071"/>
  <outline>
    <contour>
      <point x="395" y="375" type="move"/>
      <point x="395" y="-158" type="line" smooth="yes"/>
    </contour>
    <contour>
      <point x="395" y="334" type="move"/>
      <point x="354" y="360"/>
      <point x="309" y="375"/>
      <point x="251" y="375" type="curve" smooth="yes"/>
      <point x="156" y="375"/>
      <point x="74" y="305"/>
      <point x="74" y="189" type="curve" smooth="yes"/>
      <point x="74" y="91"/>
      <point x="146" y="33"/>
      <point x="222" y="33" type="curve" smooth="yes"/>
      <point x="286" y="33"/>
      <point x="349" y="68"/>
      <point x="394" y="141" type="curve"/>
    </contour>
  </outline>
</glyph>
<glyph name="r" format="1">
  <advance width="346"/>
  <unicode hex="0072"/>
  <outline>
    <contour>
      <point x="110" y="33" type="move"/>
      <point x="110" y="375" type="line"/>
    </contour>
    <contour>
      <point x="111" y="244" type="move"/>
      <point x="158" y="317"/>
      <point x="214" y="364"/>
      <point x="302" y="375" type="curve"/>
    </contour>
  </outline>
</glyph>
<glyph name="s" format="1">
  <advance width="450"/>
  <unicode hex="0073"/>
  <outline>
    <contour>
      <point x="336" y="363" type="move"/>
      <point x="307" y="371"/>
      <point x="269" y="378"/>
      <point x="227" y="378" type="curve" smooth="yes"/>
      <point x="134" y="378"/>
      <point x="99" y="335"/>
      <point x="99" y="294" type="curve" smooth="yes"/>
      <point x="99" y="257"/>
      <point x="129" y="224"/>
      <point x="219" y="215" type="curve" smooth="yes"/>
      <point x="259" y="211" type="line" smooth="yes"/>
      <point x="337" y="203"/>
      <point x="369" y="163"/>
      <point x="369" y="119" type="curve" smooth="yes"/>
      <point x="369" y="73"/>
      <point x="332" y="29"/>
      <point x="233" y="29" type="curve" smooth="yes"/>
      <point x="186" y="29"/>
      <point x="137" y="38"/>
      <point x="93" y="57" type="curve"/>
    </contour>
  </outline>
</glyph>
<glyph name="t" format="1">
  <advance width="364"/>
  <unicode hex="0074"/>
  <outline>
    <contour>
      <point x="139" y="495" type="move"/>
      <point x="139" y="144" type="line" smooth="yes"/>
      <point x="139" y="70"/>
      <point x="183" y="29"/>
      <point x="284" y="27" type="curve"/>
    </contour>
    <contour>
      <point x="51" y="369" type="move"/>
      <point x="297" y="369" type="line"/>
    </contour>
  </outline>
</glyph>
<glyph name="v" format="1">
  <advance width="461"/>
  <unicode hex="0076"/>
  <outline>
    <contour>
      <point x="68" y="369" type="move"/>
      <point x="127" y="216"/>
      <point x="181" y="109"/>
      <point x="234" y="23" type="curve"/>
      <point x="237" y="23" type="line"/>
      <point x="289" y="109"/>
      <point x="354" y="259"/>
      <point x="394" y="369" type="curve"/>
    </contour>
  </outline>
</glyph>
<glyph name="w" format="1">
  <advance width="709"/>
  <unicode hex="0077"/>
  <outline>
    <contour>
      <point x="78" y="368" type="move"/>
      <point x="115" y="235"/>
      <point x="163" y="110"/>
      <point x="204" y="24" type="curve"/>
      <point x="206" y="24" type="line"/>
      <point x="249" y="110"/>
      <point x="317" y="249"/>
      <point x="351" y="358" type="curve"/>
    </contour>
    <contour>
      <point x="358" y="358" type="move"/>
      <point x="405" y="225"/>
      <point x="458" y="109"/>
      <point x="504" y="23" type="curve"/>
      <point x="506" y="23" type="line"/>
      <point x="545" y="109"/>
      <point x="599" y="247"/>
      <point x="632" y="367" type="curve"/>
    </contour>
  </outline>
</glyph>
<glyph name="x" format="1">
  <advance width="457"/>
  <unicode hex="0078"/>
  <outline>
    <contour>
      <point x="68" y="27" type="move"/>
      <point x="133" y="101"/>
      <point x="291" y="271"/>
      <point x="369" y="369" type="curve"/>
    </contour>
    <contour>
      <point x="81" y="369" type="move"/>
      <point x="159" y="277"/>
      <point x="299" y="130"/>
      <point x="389" y="27" type="curve"/>
    </contour>
  </outline>
</glyph>
<glyph name="y" format="1">
  <advance width="450"/>
  <unicode hex="0079"/>
  <outline>
    <contour>
      <point x="63" y="-141" type="move"/>
      <point x="126" y="-105"/>
      <point x="183" y="-61"/>
      <point x="239" y="34" type="curve" smooth="yes"/>
      <point x="292" y="124"/>
      <point x="352" y="262"/>
      <point x="386" y="375" type="curve"/>
    </contour>
    <contour>
      <point x="65" y="376" type="move"/>
      <point x="119" y="223"/>
      <point x="185" y="113"/>
      <point x="236" y="34" type="curve"/>
    </contour>
  </outline>
</glyph>
<glyph name="z" format="1">
  <advance width="444"/>
  <unicode hex="007A"/>
  <outline>
    <contour>
      <point x="355" y="365" type="move"/>
      <point x="86" y="365" type="line"/>
    </contour>
    <contour>
      <point x="71" y="23" type="move"/>
      <point x="372" y="23" type="line"/>
    </contour>
    <contour>
      <point x="361" y="365" type="move"/>
      <point x="77" y="31" type="line"/>
    </contour>
  </outline>
</glyph>
<glyph name="braceleft" format="1">
  <advance width="315"/>
  <unicode hex="007B"/>
  <outline>
    <contour>
      <point x="273" y="613" type="move"/>
      <point x="253" y="613" type="line" smooth="yes"/>
      <point x="155" y="613"/>
      <point x="95" y="562"/>
      <point x="95" y="505" type="curve" smooth="yes"/>
      <point x="95" y="440"/>
      <point x="162" y="405"/>
      <point x="162" y="347" type="curve" smooth="yes"/>
      <point x="162" y="311"/>
      <point x="128" y="286"/>
      <point x="60" y="276" type="curve"/>
      <point x="60" y="270" type="line"/>
      <point x="128" y="260"/>
      <point x="162" y="235"/>
      <point x="162" y="199" type="curve" smooth="yes"/>
      <point x="162" y="141"/>
      <point x="95" y="106"/>
      <point x="95" y="41" type="curve" smooth="yes"/>
      <point x="95" y="-16"/>
      <point x="155" y="-67"/>
      <point x="253" y="-67" type="curve" smooth="yes"/>
      <point x="273" y="-67" type="line"/>
    </contour>
  </outline>
</glyph>
<glyph name="asciitilde" format="1">
  <advance width="565"/>
  <unicode hex="007E"/>
  <outline>
    <contour>
      <point x="107" y="217" type="move"/>
      <point x="139" y="282"/>
      <point x="167" y="315"/>
      <point x="206" y="315" type="curve" smooth="yes"/>
      <point x="239" y="315"/>
      <point x="259" y="292"/>
      <point x="285" y="263" type="curve" smooth="yes"/>
      <point x="314" y="230"/>
      <point x="337" y="210"/>
      <point x="368" y="210" type="curve" smooth="yes"/>
      <point x="412" y="210"/>
      <point x="438" y="245"/>
      <point x="474" y="319" type="curve"/>
    </contour>
  </outline>
</glyph>
<glyph name="cent" format="1">
  <advance width="433"/>
  <unicode hex="00A2"/>
  <outline>
    <contour>
      <point x="239" y="517" type="move"/>
      <point x="239" y="33" type="line"/>
    </contour>
    <contour>
      <point x="349" y="422" type="move"/>
      <point x="322" y="430"/>
      <point x="289" y="436"/>
      <point x="260" y="436" type="curve" smooth="yes"/>
      <point x="142" y="436"/>
      <point x="74" y="364"/>
      <point x="74" y="265" type="curve" smooth="yes"/>
      <point x="74" y="178"/>
      <point x="140" y="110"/>
      <point x="259" y="110" type="curve" smooth="yes"/>
      <point x="300" y="110"/>
      <point x="333" y="118"/>
      <point x="361" y="128" type="curve"/>
    </contour>
  </outline>
</glyph>
<glyph name="sterling" format="1">
  <advance width="456"/>
  <unicode hex="00A3"/>
  <outline>
    <contour>
      <point x="66" y="42" type="move"/>
      <point x="143" y="112" type="line" smooth="yes"/>
      <point x="172" y="138"/>
      <point x="193" y="171"/>
      <point x="193" y="200" type="curve" smooth="yes"/>
      <point x="193" y="226"/>
      <point x="178" y="259"/>
      <point x="154" y="287" type="curve" smooth="yes"/>
      <point x="116" y="332"/>
      <point x="92" y="366"/>
      <point x="92" y="414" type="curve" smooth="yes"/>
      <point x="92" y="471"/>
      <point x="135" y="527"/>
      <point x="214" y="527" type="curve" smooth="yes"/>
      <point x="260" y="527"/>
      <point x="302" y="513"/>
      <point x="337" y="491" type="curve"/>
    </contour>
    <contour>
      <point x="370" y="33" type="move"/>
      <point x="56" y="33" type="line"/>
    </contour>
    <contour>
      <point x="62" y="258" type="move"/>
      <point x="361" y="258" type="line"/>
    </contour>
  </outline>
</glyph>
<glyph name="currency" format="1">
  <advance width="521"/>
  <unicode hex="00A4"/>
  <outline>
    <contour>
      <point x="260" y="396" type="curve" smooth="yes"/>
      <point x="162" y="396"/>
      <point x="102" y="322"/>
      <point x="102" y="234" type="curve" smooth="yes"/>
      <point x="102" y="146"/>
      <point x="164" y="78"/>
      <point x="260" y="78" type="curve" smooth="yes"/>
      <point x="356" y="78"/>
      <point x="418" y="145"/>
      <point x="418" y="232" type="curve" smooth="yes"/>
      <point x="418" y="322"/>
      <point x="357" y="396"/>
    </contour>
    <contour>
      <point x="444" y="34" type="move"/>
      <point x="373" y="112" type="line"/>
    </contour>
    <contour>
      <point x="147" y="359" type="move"/>
      <point x="82" y="430" type="line"/>
    </contour>
    <contour>
      <point x="373" y="360" type="move"/>
      <point x="438" y="432" type="line"/>
    </contour>
    <contour>
      <point x="77" y="34" type="move"/>
      <point x="145" y="109" type="line"/>
    </contour>
  </outline>
</glyph>
<glyph name="yen" format="1">
  <advance width="570"/>
  <unicode hex="00A5"/>
  <outline>
    <contour>
      <point x="293" y="269" type="move"/>
      <point x="293" y="27" type="line"/>
    </contour>
    <contour>
      <point x="98" y="512" type="move"/>
      <point x="147" y="442"/>
      <point x="252" y="322"/>
      <point x="290" y="285" type="curve"/>
    </contour>
    <contour>
      <point x="293" y="275" type="move"/>
      <point x="343" y="325"/>
      <point x="435" y="443"/>
      <point x="484" y="512" type="curve"/>
    </contour>
    <contour>
      <point x="118" y="271" type="move"/>
      <point x="466" y="271" type="line"/>
    </contour>
    <contour>
      <point x="118" y="129" type="move"/>
      <point x="466" y="129" type="line"/>
    </contour>
  </outline>
</glyph>
<glyph name="section" format="1">
  <advance width="525"/>
  <unicode hex="00A7"/>
  <outline>
    <contour>
      <point x="393" y="500" type="move"/>
      <point x="346" y="515"/>
      <point x="312" y="524"/>
      <point x="243" y="524" type="curve" smooth="yes"/>
      <point x="158" y="524"/>
      <point x="107" y="482"/>
      <point x="107" y="438" type="curve" smooth="yes"/>
      <point x="107" y="397"/>
      <point x="130" y="350"/>
      <point x="264" y="330" type="curve" smooth="yes"/>
      <point x="386" y="306"/>
      <point x="427" y="264"/>
      <point x="427" y="211" type="curve" smooth="yes"/>
      <point x="427" y="158"/>
      <point x="377" y="115"/>
      <point x="263" y="115" type="curve" smooth="yes"/>
    </contour>
    <contour>
      <point x="233" y="331" type="move" smooth="yes"/>
      <point x="148" y="331"/>
      <point x="97" y="292"/>
      <point x="97" y="231" type="curve" smooth="yes"/>
      <point x="97" y="187"/>
      <point x="120" y="138"/>
      <point x="254" y="115" type="curve" smooth="yes"/>
      <point x="376" y="94"/>
      <point x="417" y="65"/>
      <point x="417" y="11" type="curve" smooth="yes"/>
      <point x="417" y="-42"/>
      <point x="367" y="-90"/>
      <point x="253" y="-90" type="curve" smooth="yes"/>
      <point x="193" y="-90"/>
      <point x="136" y="-79"/>
      <point x="84" y="-55" type="curve"/>
    </contour>
  </outline>
</glyph>
<glyph name="dieresis" format="1">
  <advance width="500"/>
  <unicode hex="00A8"/>
  <outline>
    <contour>
      <point x="155" y="577" type="curve" smooth="yes"/>
      <point x="144" y="577"/>
      <point x="138" y="564"/>
      <point x="138" y="551" type="curve" smooth="yes"/>
      <point x="138" y="538"/>
      <point x="144" y="527"/>
      <point x="155" y="527" type="curve" smooth="yes"/>
      <point x="165" y="527"/>
      <point x="171" y="538"/>
      <point x="171" y="551" type="curve" smooth="yes"/>
      <point x="171" y="564"/>
      <point x="165" y="577"/>
    </contour>
    <contour>
      <point x="333" y="577" type="curve" smooth="yes"/>
      <point x="322" y="577"/>
      <point x="316" y="564"/>
      <point x="316" y="551" type="curve" smooth="yes"/>
      <point x="316" y="538"/>
      <point x="322" y="527"/>
      <point x="333" y="527" type="curve" smooth="yes"/>
      <point x="343" y="527"/>
      <point x="349" y="538"/>
      <point x="349" y="551" type="curve" smooth="yes"/>
      <point x="349" y="564"/>
      <point x="343" y="577"/>
    </contour>
  </outline>
</glyph>
<glyph name="copyright" format="1">
  <advance width="653"/>
  <unicode hex="00A9"/>
  <outline>
    <contour>
      <point x="405" y="390" type="move"/>
      <point x="388" y="399"/>
      <point x="363" y="406"/>
      <point x="335" y="406" type="curve" smooth="yes"/>
      <point x="267" y="406"/>
      <point x="206" y="352"/>
      <point x="206" y="274" type="curve" smooth="yes"/>
      <point x="206" y="201"/>
      <point x="255" y="145"/>
      <point x="338" y="145" type="curve" smooth="yes"/>
      <point x="365" y="145"/>
      <point x="389" y="151"/>
      <point x="408" y="161" type="curve"/>
    </contour>
    <contour>
      <point x="329" y="527" type="curve" smooth="yes"/>
      <point x="176" y="527"/>
      <point x="74" y="423"/>
      <point x="74" y="272" type="curve" smooth="yes"/>
      <point x="74" y="134"/>
      <point x="179" y="24"/>
      <point x="329" y="24" type="curve" smooth="yes"/>
      <point x="487" y="24"/>
      <point x="579" y="134"/>
      <point x="579" y="275" type="curve" smooth="yes"/>
      <point x="579" y="423"/>
      <point x="468" y="527"/>
    </contour>
  </outline>
</glyph>
<glyph name="ordfeminine" format="1">
  <advance width="454"/>
  <unicode hex="00AA"/>
  <outline>
    <contour>
      <point x="103" y="168" type="move"/>
      <point x="361" y="168" type="line"/>
    </contour>
    <contour>
      <point x="151" y="500" type="move"/>
      <point x="166" y="505"/>
      <point x="191" y="511"/>
      <point x="214" y="511" type="curve" smooth="yes"/>
      <point x="277" y="511"/>
      <point x="306" y="473"/>
      <point x="306" y="418" type="curve" smooth="yes"/>
      <point x="306" y="358" type="line" smooth="yes"/>
      <point x="306" y="322"/>
      <point x="314" y="300"/>
      <point x="330" y="282" type="curve"/>
    </contour>
    <contour>
      <point x="304" y="411" type="move"/>
      <point x="281" y="412"/>
      <point x="261" y="414"/>
      <point x="241" y="414" type="curve" smooth="yes"/>
      <point x="191" y="414"/>
      <point x="159" y="401"/>
      <point x="137" y="382" type="curve" smooth="yes"/>
      <point x="123" y="368"/>
      <point x="119" y="354"/>
      <point x="119" y="336" type="curve" smooth="yes"/>
      <point x="119" y="312"/>
      <point x="137" y="282"/>
      <point x="184" y="282" type="curve" smooth="yes"/>
      <point x="236" y="282"/>
      <point x="273" y="301"/>
      <point x="306" y="346" type="curve"/>
    </contour>
  </outline>
</glyph>
<glyph name="guillemotleft" format="1">
  <advance width="448"/>
  <unicode hex="00AB"/>
  <outline>
    <contour>
      <point x="246" y="198" type="move"/>
      <point x="357" y="74" type="line"/>
    </contour>
    <contour>
      <point x="357" y="326" type="move"/>
      <point x="246" y="202" type="line"/>
    </contour>
    <contour>
      <point x="76" y="198" type="move"/>
      <point x="187" y="74" type="line"/>
    </contour>
    <contour>
      <point x="187" y="326" type="move"/>
      <point x="76" y="202" type="line"/>
    </contour>
  </outline>
</glyph>
<glyph name="logicalnot" format="1">
  <advance width="491"/>
  <unicode hex="00AC"/>
  <outline>
    <contour>
      <point x="114" y="253" type="move"/>
      <point x="377" y="253" type="line"/>
    </contour>
    <contour>
      <point x="377" y="247" type="move"/>
      <point x="377" y="146" type="line"/>
    </contour>
  </outline>
</glyph>
<glyph name="registered" format="1">
  <advance width="570"/>
  <unicode hex="00AE"/>
  <outline>
    <contour>
      <point x="240" y="381" type="move"/>
      <point x="287" y="381" type="line" smooth="yes"/>
      <point x="330" y="381"/>
      <point x="350" y="408"/>
      <point x="350" y="440" type="curve" smooth="yes"/>
      <point x="350" y="475"/>
      <point x="325" y="496"/>
      <point x="287" y="496" type="curve" smooth="yes"/>
      <point x="230" y="496" type="line"/>
      <point x="230" y="320" type="line"/>
    </contour>
    <contour>
      <point x="314" y="375" type="move"/>
      <point x="361" y="320" type="line"/>
    </contour>
    <contour>
      <point x="282" y="603" type="curve" smooth="yes"/>
      <point x="403" y="603"/>
      <point x="486" y="519"/>
      <point x="486" y="407" type="curve" smooth="yes"/>
      <point x="486" y="294"/>
      <point x="402" y="210"/>
      <point x="289" y="210" type="curve" smooth="yes"/>
      <point x="168" y="210"/>
      <point x="90" y="302"/>
      <point x="90" y="410" type="curve" smooth="yes"/>
      <point x="90" y="524"/>
      <point x="168" y="603"/>
    </contour>
  </outline>
</glyph>
<glyph name="macron" format="1">
  <advance width="500"/>
  <unicode hex="00AF"/>
  <outline>
    <contour>
      <point x="351" y="543" type="move"/>
      <point x="150" y="543" type="line"/>
    </contour>
  </outline>
</glyph>
<glyph name="degree" format="1">
  <advance width="369"/>
  <unicode hex="00B0"/>
  <outline>
    <contour>
      <point x="185" y="523" type="curve" smooth="yes"/>
      <point x="119" y="523"/>
      <point x="81" y="476"/>
      <point x="81" y="419" type="curve" smooth="yes"/>
      <point x="81" y="363"/>
      <point x="121" y="320"/>
      <point x="185" y="320" type="curve" smooth="yes"/>
      <point x="248" y="320"/>
      <point x="288" y="364"/>
      <point x="288" y="419" type="curve" smooth="yes"/>
      <point x="288" y="477"/>
      <point x="249" y="523"/>
    </contour>
  </outline>
</glyph>
<glyph name="plusminus" format="1">
  <advance width="491"/>
  <unicode hex="00B1"/>
  <outline>
    <contour>
      <point x="92" y="310" type="move"/>
      <point x="398" y="310" type="line"/>
    </contour>
    <contour>
      <point x="245" y="201" type="move"/>
      <point x="245" y="418" type="line"/>
    </contour>
    <contour>
      <point x="92" y="86" type="move"/>
      <point x="398" y="86" type="line"/>
    </contour>
  </outline>
</glyph>
<glyph name="acute" format="1">
  <advance width="500"/>
  <unicode hex="00B4"/>
  <outline>
    <contour>
      <point x="292" y="607" type="move"/>
      <point x="264" y="576"/>
      <point x="237" y="544"/>
      <point x="211" y="513" type="curve"/>
    </contour>
  </outline>
</glyph>
<glyph name="paragraph" format="1">
  <advance width="556"/>
  <unicode hex="00B6"/>
  <outline>
    <contour>
      <point x="433" y="33" type="move"/>
      <point x="433" y="518" type="line"/>
      <point x="245" y="518" type="line" smooth="yes"/>
      <point x="144" y="518"/>
      <point x="77" y="454"/>
      <point x="77" y="364" type="curve" smooth="yes"/>
      <point x="77" y="279"/>
      <point x="132" y="209"/>
      <point x="245" y="209" type="curve" smooth="yes"/>
      <point x="301" y="209" type="line"/>
    </contour>
    <contour>
      <point x="301" y="33" type="move"/>
      <point x="301" y="516" type="line"/>
    </contour>
  </outline>
</glyph>
<glyph name="cedilla" format="1">
  <advance width="500"/>
  <unicode hex="00B8"/>
  <outline>
    <contour>
      <point x="293" y="-74" type="move"/>
      <point x="268" y="-99"/>
      <point x="228" y="-138"/>
      <point x="205" y="-161" type="curve"/>
    </contour>
  </outline>
</glyph>
<glyph name="ordmasculine" format="1">
  <advance width="448"/>
  <unicode hex="00BA"/>
  <outline>
    <contour>
      <point x="224" y="511" type="curve" smooth="yes"/>
      <point x="153" y="511"/>
      <point x="110" y="458"/>
      <point x="110" y="395" type="curve" smooth="yes"/>
      <point x="110" y="331"/>
      <point x="155" y="283"/>
      <point x="224" y="283" type="curve" smooth="yes"/>
      <point x="293" y="283"/>
      <point x="337" y="331"/>
      <point x="337" y="395" type="curve" smooth="yes"/>
      <point x="337" y="458"/>
      <point x="293" y="511"/>
    </contour>
    <contour>
      <point x="103" y="168" type="move"/>
      <point x="352" y="168" type="line"/>
    </contour>
  </outline>
</glyph>
<glyph name="guillemotright" format="1">
  <advance width="448"/>
  <unicode hex="00BB"/>
  <outline>
    <contour>
      <point x="91" y="74" type="move"/>
      <point x="202" y="198" type="line"/>
    </contour>
    <contour>
      <point x="202" y="202" type="move"/>
      <point x="91" y="326" type="line"/>
    </contour>
    <contour>
      <point x="261" y="74" type="move"/>
      <point x="372" y="198" type="line"/>
    </contour>
    <contour>
      <point x="372" y="202" type="move"/>
      <point x="261" y="326" type="line"/>
    </contour>
  </outline>
</glyph>
<glyph name="onequarter" format="1">
  <advance width="724"/>
  <unicode hex="00BC"/>
  <outline>
    <contour>
      <point x="497" y="518" type="move"/>
      <point x="214" y="33" type="line"/>
    </contour>
    <contour>
      <point x="560" y="294" type="move"/>
      <point x="560" y="34" type="line"/>
    </contour>
    <contour>
      <point x="556" y="289" type="move"/>
      <point x="402" y="109" type="line"/>
    </contour>
    <contour>
      <point x="407" y="109" type="move"/>
      <point x="622" y="109" type="line"/>
    </contour>
    <contour>
      <point x="207" y="525" type="move"/>
      <point x="207" y="267" type="line"/>
    </contour>
    <contour>
      <point x="207" y="528" type="move"/>
      <point x="125" y="484" type="line"/>
    </contour>
  </outline>
</glyph>
<glyph name="onehalf" format="1">
  <advance width="780"/>
  <unicode hex="00BD"/>
  <outline>
    <contour>
      <point x="492" y="518" type="move"/>
      <point x="209" y="33" type="line"/>
    </contour>
    <contour>
      <point x="202" y="525" type="move"/>
      <point x="202" y="267" type="line"/>
    </contour>
    <contour>
      <point x="202" y="528" type="move"/>
      <point x="120" y="484" type="line"/>
    </contour>
    <contour>
      <point x="471" y="38" type="move"/>
      <point x="560" y="121" type="line" smooth="yes"/>
      <point x="618" y="176"/>
      <point x="636" y="197"/>
      <point x="636" y="230" type="curve" smooth="yes"/>
      <point x="636" y="260"/>
      <point x="612" y="289"/>
      <point x="561" y="289" type="curve" smooth="yes"/>
      <point x="532" y="289"/>
      <point x="509" y="281"/>
      <point x="484" y="265" type="curve"/>
    </contour>
    <contour>
      <point x="655" y="33" type="move"/>
      <point x="466" y="33" type="line"/>
    </contour>
  </outline>
</glyph>
<glyph name="threequarters" format="1">
  <advance width="836"/>
  <unicode hex="00BE"/>
  <outline>
    <contour>
      <point x="591" y="512" type="move"/>
      <point x="308" y="27" type="line"/>
    </contour>
    <contour>
      <point x="654" y="288" type="move"/>
      <point x="654" y="28" type="line"/>
    </contour>
    <contour>
      <point x="650" y="283" type="move"/>
      <point x="496" y="103" type="line"/>
    </contour>
    <contour>
      <point x="501" y="103" type="move"/>
      <point x="716" y="103" type="line"/>
    </contour>
    <contour>
      <point x="141" y="512" type="move"/>
      <point x="313" y="512" type="line"/>
    </contour>
    <contour>
      <point x="131" y="267" type="move"/>
      <point x="155" y="258"/>
      <point x="186" y="251"/>
      <point x="222" y="251" type="curve" smooth="yes"/>
      <point x="289" y="251"/>
      <point x="322" y="282"/>
      <point x="322" y="323" type="curve" smooth="yes"/>
      <point x="322" y="365"/>
      <point x="287" y="393"/>
      <point x="229" y="393" type="curve" smooth="yes"/>
      <point x="201" y="393"/>
      <point x="179" y="389"/>
      <point x="167" y="385" type="curve"/>
    </contour>
    <contour>
      <point x="308" y="508" type="move"/>
      <point x="169" y="387" type="line" smooth="yes"/>
    </contour>
  </outline>
</glyph>
<glyph name="AE" format="1">
  <advance width="755"/>
  <unicode hex="00C6"/>
  <outline>
    <contour>
      <point x="374" y="518" type="move"/>
      <point x="271" y="369"/>
      <point x="125" y="159"/>
      <point x="43" y="33" type="curve"/>
    </contour>
    <contour>
      <point x="143" y="178" type="move"/>
      <point x="392" y="178" type="line"/>
    </contour>
    <contour>
      <point x="410" y="518" type="move"/>
      <point x="379" y="518" type="line"/>
    </contour>
    <component base="E" xOffset="270"/>
  </outline>
</glyph>
<glyph name="Eth" format="1">
  <advance width="632.0"/>
  <unicode hex="00D0"/>
  <outline>
    <contour>
      <point x="69" y="280" type="move"/>
      <point x="315" y="280" type="line"/>
    </contour>
    <component base="D" xOffset="15"/>
  </outline>
</glyph>
<glyph name="Oslash" format="1">
  <advance width="630"/>
  <unicode hex="00D8"/>
  <outline>
    <contour>
      <point x="521" y="518" type="move"/>
      <point x="111" y="14" type="line"/>
    </contour>
    <component base="O"/>
  </outline>
</glyph>
<glyph name="Thorn" format="1">
  <advance width="505"/>
  <unicode hex="00DE"/>
  <outline>
    <contour>
      <point x="123" y="518" type="move"/>
      <point x="123" y="33" type="line"/>
    </contour>
    <contour>
      <point x="149" y="134" type="move"/>
      <point x="260" y="134" type="line" smooth="yes"/>
      <point x="373" y="134"/>
      <point x="428" y="199"/>
      <point x="428" y="277" type="curve" smooth="yes"/>
      <point x="428" y="363"/>
      <point x="361" y="424"/>
      <point x="260" y="424" type="curve" smooth="yes"/>
      <point x="134" y="424" type="line"/>
    </contour>
  </outline>
</glyph>
<glyph name="germandbls" format="1">
  <advance width="519"/>
  <unicode hex="00DF"/>
  <outline>
    <contour>
      <point x="265" y="304" type="move"/>
      <point x="353" y="363"/>
      <point x="369" y="398"/>
      <point x="369" y="454" type="curve" smooth="yes"/>
      <point x="369" y="513"/>
      <point x="329" y="571"/>
      <point x="242" y="570" type="curve" smooth="yes"/>
      <point x="160" y="569"/>
      <point x="121" y="515"/>
      <point x="121" y="444" type="curve" smooth="yes"/>
      <point x="121" y="33" type="line"/>
    </contour>
    <contour>
      <point x="260" y="40" type="move"/>
      <point x="275" y="34"/>
      <point x="300" y="29"/>
      <point x="327" y="29" type="curve" smooth="yes"/>
      <point x="402" y="29"/>
      <point x="443" y="72"/>
      <point x="443" y="133" type="curve" smooth="yes"/>
      <point x="443" y="183"/>
      <point x="414" y="228"/>
      <point x="348" y="260" type="curve" smooth="yes"/>
      <point x="265" y="300" type="line"/>
    </contour>
  </outline>
</glyph>
<glyph name="ae" format="1">
  <advance width="745"/>
  <unicode hex="00E6"/>
  <outline>
    <contour>
      <point x="122" y="359" type="move"/>
      <point x="143" y="366"/>
      <point x="182" y="375"/>
      <point x="215" y="375" type="curve" smooth="yes"/>
      <point x="307" y="375"/>
      <point x="356" y="319"/>
      <point x="356" y="238" type="curve" smooth="yes"/>
      <point x="356" y="212" type="line" smooth="yes"/>
    </contour>
    <contour>
      <point x="355" y="227" type="move"/>
      <point x="321" y="228"/>
      <point x="284" y="230"/>
      <point x="255" y="230" type="curve" smooth="yes"/>
      <point x="182" y="230"/>
      <point x="133" y="212"/>
      <point x="103" y="182" type="curve" smooth="yes"/>
      <point x="82" y="162"/>
      <point x="75" y="139"/>
      <point x="75" y="114" type="curve" smooth="yes"/>
      <point x="75" y="78"/>
      <point x="101" y="33"/>
      <point x="172" y="33" type="curve" smooth="yes"/>
      <point x="246" y="33"/>
      <point x="313" y="70"/>
      <point x="370" y="121" type="curve"/>
    </contour>
    <component base="e" xOffset="285"/>
  </outline>
</glyph>
<glyph name="eth" format="1">
  <advance width="494"/>
  <unicode hex="00F0"/>
  <outline>
    <contour>
      <point x="397" y="278" type="move"/>
      <point x="367" y="306"/>
      <point x="303" y="337"/>
      <point x="237" y="337" type="curve" smooth="yes"/>
      <point x="145" y="337"/>
      <point x="76" y="275"/>
      <point x="76" y="180" type="curve" smooth="yes"/>
      <point x="76" y="98"/>
      <point x="136" y="29"/>
      <point x="236" y="29" type="curve" smooth="yes"/>
      <point x="343" y="29"/>
      <point x="409" y="102"/>
      <point x="409" y="225" type="curve" smooth="yes"/>
      <point x="409" y="320"/>
      <point x="357" y="407"/>
      <point x="302" y="462" type="curve" smooth="yes"/>
      <point x="268" y="496"/>
      <point x="231" y="524"/>
      <point x="189" y="549" type="curve"/>
    </contour>
    <contour>
      <point x="187" y="439" type="move"/>
      <point x="361" y="518" type="line"/>
    </contour>
  </outline>
</glyph>
<glyph name="divide" format="1">
  <advance width="530"/>
  <unicode hex="00F7"/>
  <outline>
    <contour>
      <point x="96" y="277" type="move"/>
      <point x="433" y="277" type="line"/>
    </contour>
    <contour>
      <point x="267" y="149" type="curve" smooth="yes"/>
      <point x="254" y="149"/>
      <point x="250" y="137"/>
      <point x="250" y="125" type="curve" smooth="yes"/>
      <point x="250" y="111"/>
      <point x="257" y="101"/>
      <point x="268" y="101" type="curve" smooth="yes"/>
      <point x="280" y="101"/>
      <point x="284" y="111"/>
      <point x="284" y="125" type="curve" smooth="yes"/>
      <point x="284" y="137"/>
      <point x="279" y="149"/>
    </contour>
    <contour>
      <point x="267" y="450" type="curve" smooth="yes"/>
      <point x="254" y="450"/>
      <point x="250" y="438"/>
      <point x="250" y="426" type="curve" smooth="yes"/>
      <point x="250" y="412"/>
      <point x="257" y="402"/>
      <point x="268" y="402" type="curve" smooth="yes"/>
      <point x="280" y="402"/>
      <point x="284" y="412"/>
      <point x="284" y="426" type="curve" smooth="yes"/>
      <point x="284" y="438"/>
      <point x="279" y="450"/>
    </contour>
  </outline>
</glyph>
<glyph name="oslash" format="1">
  <advance width="504"/>
  <unicode hex="00F8"/>
  <outline>
    <contour>
      <point x="80" y="33" type="move"/>
      <point x="421" y="375" type="line"/>
    </contour>
    <component base="o"/>
  </outline>
</glyph>
<glyph name="thorn" format="1">
  <advance width="513"/>
  <unicode hex="00FE"/>
  <outline>
    <contour>
      <point x="115" y="-164" type="move"/>
      <point x="115" y="537" type="line"/>
    </contour>
    <contour>
      <point x="115" y="91" type="move"/>
      <point x="161" y="53"/>
      <point x="216" y="27"/>
      <point x="270" y="27" type="curve" smooth="yes"/>
      <point x="368" y="27"/>
      <point x="435" y="101"/>
      <point x="435" y="198" type="curve" smooth="yes"/>
      <point x="435" y="309"/>
      <point x="363" y="369"/>
      <point x="282" y="369" type="curve" smooth="yes"/>
      <point x="217" y="369"/>
      <point x="161" y="326"/>
      <point x="116" y="262" type="curve"/>
    </contour>
  </outline>
</glyph>
<glyph name="Lcaron" format="1">
  <advance width="479"/>
  <unicode hex="013D"/>
  <outline>
    <contour>
      <point x="326" y="531" type="move"/>
      <point x="306" y="392" type="line"/>
    </contour>
    <component base="L"/>
  </outline>
</glyph>
<glyph name="lcaron" format="1">
  <advance width="345"/>
  <unicode hex="013E"/>
  <outline>
    <contour>
      <point x="291" y="571" type="move"/>
      <point x="271" y="432" type="line"/>
    </contour>
    <component base="l"/>
  </outline>
</glyph>
<glyph name="lslash" format="1">
  <advance width="242"/>
  <unicode hex="0142"/>
  <outline>
    <contour>
      <point x="197" y="322" type="move"/>
      <point x="48" y="230" type="line"/>
    </contour>
    <component base="l"/>
  </outline>
</glyph>
<glyph name="OE" format="1">
  <advance width="804"/>
  <unicode hex="0152"/>
  <outline>
    <contour>
      <point x="450" y="508" type="move"/>
      <point x="317" y="508" type="line" smooth="yes"/>
      <point x="176" y="508"/>
      <point x="81" y="408"/>
      <point x="81" y="263" type="curve" smooth="yes"/>
      <point x="81" y="129"/>
      <point x="178" y="23"/>
      <point x="317" y="23" type="curve" smooth="yes"/>
      <point x="479" y="23" type="line"/>
    </contour>
    <component base="E" xOffset="319"/>
  </outline>
</glyph>
<glyph name="tcaron" format="1">
  <advance width="364"/>
  <unicode hex="0165"/>
  <outline>
    <contour>
      <point x="304" y="634" type="move"/>
      <point x="282" y="507" type="line"/>
    </contour>
    <component base="t"/>
  </outline>
</glyph>
<glyph name="florin" format="1">
  <advance width="342"/>
  <unicode hex="0192"/>
  <outline>
    <contour>
      <point x="318" y="570" type="move"/>
      <point x="224" y="564"/>
      <point x="189" y="516"/>
      <point x="182" y="448" type="curve" smooth="yes"/>
      <point x="127" y="-122" type="line"/>
    </contour>
    <contour>
      <point x="74" y="375" type="move"/>
      <point x="300" y="375" type="line"/>
    </contour>
  </outline>
</glyph>
<glyph name="circumflex" format="1">
  <advance width="500"/>
  <unicode hex="02C6"/>
  <outline>
    <contour>
      <point x="245" y="595" type="move"/>
      <point x="215" y="565"/>
      <point x="183" y="534"/>
      <point x="157" y="508" type="curve"/>
    </contour>
    <contour>
      <point x="339" y="508" type="move"/>
      <point x="313" y="534"/>
      <point x="282" y="565"/>
      <point x="251" y="595" type="curve"/>
    </contour>
  </outline>
</glyph>
<glyph name="caron" format="1">
  <advance width="500"/>
  <unicode hex="02C7"/>
  <outline>
    <contour>
      <point x="159" y="591" type="move"/>
      <point x="185" y="565"/>
      <point x="221" y="528"/>
      <point x="245" y="504" type="curve"/>
    </contour>
    <contour>
      <point x="251" y="504" type="move"/>
      <point x="274" y="527"/>
      <point x="311" y="565"/>
      <point x="337" y="591" type="curve"/>
    </contour>
  </outline>
</glyph>
<glyph name="uni02C9" format="1">
  <advance width="440"/>
  <unicode hex="02C9"/>
  <outline>
    <contour>
      <point x="294" y="538" type="move"/>
      <point x="146" y="538" type="line"/>
    </contour>
  </outline>
</glyph>
<glyph name="breve" format="1">
  <advance width="500"/>
  <unicode hex="02D8"/>
  <outline>
    <contour>
      <point x="150" y="582" type="move"/>
      <point x="174" y="546"/>
      <point x="210" y="521"/>
      <point x="252" y="521" type="curve" smooth="yes"/>
      <point x="299" y="521"/>
      <point x="328" y="545"/>
      <point x="351" y="582" type="curve"/>
    </contour>
  </outline>
</glyph>
<glyph name="dotaccent" format="1">
  <advance width="490"/>
  <unicode hex="02D9"/>
  <outline>
    <contour>
      <point x="236" y="582" type="curve" smooth="yes"/>
      <point x="224" y="582"/>
      <point x="217" y="569"/>
      <point x="217" y="556" type="curve" smooth="yes"/>
      <point x="217" y="543"/>
      <point x="224" y="532"/>
      <point x="236" y="532" type="curve" smooth="yes"/>
      <point x="247" y="532"/>
      <point x="253" y="543"/>
      <point x="253" y="556" type="curve" smooth="yes"/>
      <point x="253" y="569"/>
      <point x="247" y="582"/>
    </contour>
  </outline>
</glyph>
<glyph name="ring" format="1">
  <advance width="500"/>
  <unicode hex="02DA"/>
  <outline>
    <contour>
      <point x="335" y="586" type="curve" smooth="yes"/>
      <point x="335" y="624"/>
      <point x="305" y="659"/>
      <point x="255" y="659" type="curve" smooth="yes"/>
      <point x="207" y="659"/>
      <point x="177" y="622"/>
      <point x="177" y="586" type="curve" smooth="yes"/>
      <point x="177" y="550"/>
      <point x="207" y="513"/>
      <point x="255" y="513" type="curve" smooth="yes"/>
      <point x="305" y="513"/>
      <point x="335" y="548"/>
    </contour>
  </outline>
</glyph>
<glyph name="ogonek" format="1">
  <advance width="490"/>
  <unicode hex="02DB"/>
  <outline>
    <contour>
      <point x="268" y="29" type="move"/>
      <point x="268" y="-6" type="line"/>
      <point x="182" y="-76"/>
      <point x="165" y="-104"/>
      <point x="165" y="-131" type="curve" smooth="yes"/>
      <point x="165" y="-166"/>
      <point x="205" y="-191"/>
      <point x="283" y="-191" type="curve"/>
    </contour>
  </outline>
</glyph>
<glyph name="tilde" format="1">
  <advance width="500"/>
  <unicode hex="02DC"/>
  <outline>
    <contour>
      <point x="140" y="530" type="move"/>
      <point x="159" y="558"/>
      <point x="180" y="578"/>
      <point x="200" y="578" type="curve" smooth="yes"/>
      <point x="218" y="578"/>
      <point x="230" y="568"/>
      <point x="252" y="551" type="curve" smooth="yes"/>
      <point x="272" y="536"/>
      <point x="287" y="526"/>
      <point x="304" y="526" type="curve" smooth="yes"/>
      <point x="325" y="526"/>
      <point x="341" y="544"/>
      <point x="361" y="574" type="curve"/>
    </contour>
  </outline>
</glyph>
<glyph name="hungarumlaut" format="1">
  <advance width="500"/>
  <unicode hex="02DD"/>
  <outline>
    <contour>
      <point x="190" y="594" type="move"/>
      <point x="168" y="559"/>
      <point x="153" y="529"/>
      <point x="141" y="499" type="curve"/>
    </contour>
    <contour>
      <point x="355" y="594" type="move"/>
      <point x="333" y="559"/>
      <point x="318" y="529"/>
      <point x="306" y="499" type="curve"/>
    </contour>
  </outline>
</glyph>
<glyph name="pi" format="1">
  <advance width="643"/>
  <unicode hex="03C0"/>
  <outline>
    <contour>
      <point x="443" y="402" type="move"/>
      <point x="443" y="27" type="line"/>
    </contour>
    <contour>
      <point x="96" y="407" type="move"/>
      <point x="546" y="407" type="line"/>
    </contour>
    <contour>
      <point x="203" y="402" type="move"/>
      <point x="203" y="223" type="line" smooth="yes"/>
      <point x="203" y="107"/>
      <point x="177" y="60"/>
      <point x="123" y="27" type="curve"/>
    </contour>
  </outline>
</glyph>
<glyph name="knCandrabindu" format="1">
  <advance width="0"/>
  <unicode hex="0C81"/>
  <outline>
    <contour>
      <point x="-122" y="599" type="move"/>
      <point x="-99" y="561"/>
      <point x="-58" y="527"/>
      <point x="4" y="527" type="curve" smooth="yes"/>
      <point x="71" y="527"/>
      <point x="101" y="561"/>
      <point x="122" y="595" type="curve"/>
    </contour>
    <contour>
      <point x="2" y="645" type="curve" smooth="yes"/>
      <point x="13" y="645"/>
      <point x="23" y="653"/>
      <point x="23" y="664" type="curve" smooth="yes"/>
      <point x="23" y="674"/>
      <point x="13" y="683"/>
      <point x="2" y="683" type="curve" smooth="yes"/>
      <point x="-9" y="683"/>
      <point x="-18" y="674"/>
      <point x="-18" y="664" type="curve" smooth="yes"/>
      <point x="-18" y="653"/>
      <point x="-9" y="645"/>
    </contour>
  </outline>
</glyph>
<glyph name="knAnusvara" format="1">
  <advance width="564"/>
  <unicode hex="0C82"/>
  <outline>
    <contour>
      <point x="172" y="429"/>
      <point x="85" y="335"/>
      <point x="85" y="230" type="curve" smooth="yes"/>
      <point x="85" y="124"/>
      <point x="170" y="29"/>
      <point x="283" y="29" type="curve" smooth="yes"/>
      <point x="395" y="29"/>
      <point x="479" y="125"/>
      <point x="479" y="230" type="curve" smooth="yes"/>
      <point x="479" y="333"/>
      <point x="393" y="429"/>
      <point x="283" y="429" type="curve" smooth="yes"/>
    </contour>
  </outline>
</glyph>
<glyph name="knVisarga" format="1">
  <advance width="366"/>
  <unicode hex="0C83"/>
  <outline>
    <contour>
      <point x="183" y="459" type="curve" smooth="yes"/>
      <point x="134" y="459"/>
      <point x="99" y="418"/>
      <point x="99" y="378" type="curve" smooth="yes"/>
      <point x="99" y="333"/>
      <point x="132" y="297"/>
      <point x="183" y="297" type="curve" smooth="yes"/>
      <point x="234" y="297"/>
      <point x="267" y="333"/>
      <point x="267" y="378" type="curve" smooth="yes"/>
      <point x="267" y="419"/>
      <point x="234" y="459"/>
    </contour>
    <contour>
      <point x="183" y="196" type="curve" smooth="yes"/>
      <point x="134" y="196"/>
      <point x="99" y="155"/>
      <point x="99" y="115" type="curve" smooth="yes"/>
      <point x="99" y="71"/>
      <point x="132" y="34"/>
      <point x="183" y="34" type="curve" smooth="yes"/>
      <point x="234" y="34"/>
      <point x="267" y="71"/>
      <point x="267" y="114" type="curve" smooth="yes"/>
      <point x="267" y="156"/>
      <point x="234" y="196"/>
    </contour>
  </outline>
</glyph>
<glyph name="knA" format="1">
  <advance width="763"/>
  <unicode hex="0C85"/>
  <outline>
    <contour>
      <point x="333" y="214" type="move"/>
      <point x="545" y="214" type="line"/>
    </contour>
    <contour>
      <point x="107" y="352" type="move"/>
      <point x="138" y="310"/>
      <point x="176" y="286"/>
      <point x="216" y="286" type="curve" smooth="yes"/>
      <point x="265" y="286"/>
      <point x="303" y="318"/>
      <point x="303" y="369" type="curve" smooth="yes"/>
      <point x="303" y="418"/>
      <point x="270" y="458"/>
      <point x="214" y="458" type="curve" smooth="yes"/>
      <point x="145" y="458"/>
      <point x="90" y="362"/>
      <point x="90" y="259" type="curve" smooth="yes"/>
      <point x="90" y="136"/>
      <point x="188" y="33"/>
      <point x="371" y="33" type="curve" smooth="yes"/>
      <point x="590" y="33"/>
      <point x="678" y="138"/>
      <point x="678" y="269" type="curve" smooth="yes"/>
      <point x="678" y="390"/>
      <point x="611" y="447"/>
      <point x="552" y="447" type="curve" smooth="yes"/>
      <point x="493" y="447"/>
      <point x="461" y="402"/>
      <point x="461" y="353" type="curve" smooth="yes"/>
      <point x="461" y="304"/>
      <point x="494" y="259"/>
      <point x="539" y="220" type="curve" smooth="yes"/>
      <point x="539" y="220"/>
    </contour>
  </outline>
</glyph>
<glyph name="knAA" format="1">
  <advance width="770"/>
  <unicode hex="0C86"/>
  <outline>
    <contour>
      <point x="113" y="342" type="move"/>
      <point x="145" y="300"/>
      <point x="184" y="276"/>
      <point x="226" y="276" type="curve" smooth="yes"/>
      <point x="277" y="276"/>
      <point x="316" y="309"/>
      <point x="316" y="359" type="curve" smooth="yes"/>
      <point x="316" y="408"/>
      <point x="282" y="448"/>
      <point x="224" y="448" type="curve" smooth="yes"/>
      <point x="152" y="448"/>
      <point x="95" y="352"/>
      <point x="95" y="249" type="curve" smooth="yes"/>
      <point x="95" y="126"/>
      <point x="193" y="23"/>
      <point x="385" y="23" type="curve" smooth="yes"/>
      <point x="546" y="23"/>
      <point x="611" y="94"/>
      <point x="611" y="156" type="curve" smooth="yes"/>
      <point x="611" y="193"/>
      <point x="591" y="225"/>
      <point x="565" y="252" type="curve" smooth="yes"/>
      <point x="539" y="279"/>
      <point x="521" y="304"/>
      <point x="521" y="344" type="curve" smooth="yes"/>
      <point x="521" y="394"/>
      <point x="555" y="433"/>
      <point x="606" y="433" type="curve" smooth="yes"/>
      <point x="661" y="433"/>
      <point x="697" y="393"/>
      <point x="697" y="341" type="curve" smooth="yes"/>
      <point x="697" y="279"/>
      <point x="632" y="215"/>
      <point x="484" y="215" type="curve" smooth="yes"/>
      <point x="370" y="215" type="line"/>
    </contour>
  </outline>
</glyph>
<glyph name="knI" format="1">
  <advance width="717"/>
  <unicode hex="0C87"/>
  <outline>
    <contour>
      <point x="575" y="-13" type="move"/>
      <point x="525" y="134"/>
      <point x="433" y="212"/>
      <point x="339" y="212" type="curve" smooth="yes"/>
      <point x="267" y="212"/>
      <point x="234" y="169"/>
      <point x="234" y="132" type="curve" smooth="yes"/>
      <point x="234" y="94"/>
      <point x="267" y="53"/>
      <point x="340" y="53" type="curve" smooth="yes"/>
      <point x="507" y="53"/>
      <point x="628" y="215"/>
      <point x="628" y="322" type="curve" smooth="yes"/>
      <point x="628" y="401"/>
      <point x="581" y="449"/>
      <point x="512" y="449" type="curve" smooth="yes"/>
      <point x="444" y="449"/>
      <point x="403" y="404"/>
      <point x="364" y="336" type="curve"/>
      <point x="359" y="336" type="line"/>
      <point x="322" y="403"/>
      <point x="275" y="450"/>
      <point x="203" y="450" type="curve" smooth="yes"/>
      <point x="134" y="450"/>
      <point x="92" y="399"/>
      <point x="92" y="338" type="curve" smooth="yes"/>
      <point x="92" y="314"/>
      <point x="99" y="290"/>
      <point x="115" y="264" type="curve"/>
    </contour>
  </outline>
</glyph>
<glyph name="knII" format="1">
  <advance width="973"/>
  <unicode hex="0C88"/>
  <outline>
    <contour>
      <point x="805" y="24" type="move"/>
      <point x="805" y="82"/>
      <point x="787" y="127"/>
      <point x="767" y="164" type="curve" smooth="yes"/>
      <point x="747" y="202"/>
      <point x="723" y="258"/>
      <point x="723" y="297" type="curve" smooth="yes"/>
      <point x="723" y="362"/>
      <point x="763" y="400"/>
      <point x="810" y="400" type="curve" smooth="yes"/>
      <point x="860" y="400"/>
      <point x="894" y="358"/>
      <point x="894" y="310" type="curve" smooth="yes"/>
      <point x="894" y="260"/>
      <point x="861" y="219"/>
      <point x="793" y="219" type="curve" smooth="yes"/>
      <point x="71" y="219" type="line"/>
    </contour>
    <contour>
      <point x="151" y="433" type="move"/>
      <point x="494" y="433" type="line" smooth="yes"/>
      <point x="567" y="433"/>
      <point x="610" y="459"/>
      <point x="642" y="511" type="curve" smooth="yes"/>
    </contour>
    <contour>
      <point x="265" y="433"/>
      <point x="173" y="326"/>
      <point x="173" y="218" type="curve" smooth="yes"/>
      <point x="173" y="99"/>
      <point x="258" y="19"/>
      <point x="382" y="19" type="curve" smooth="yes"/>
      <point x="506" y="19"/>
      <point x="590" y="101"/>
      <point x="590" y="218" type="curve" smooth="yes"/>
      <point x="590" y="324"/>
      <point x="500" y="433"/>
      <point x="382" y="433" type="curve" smooth="yes"/>
    </contour>
  </outline>
</glyph>
<glyph name="knU" format="1">
  <advance width="1047"/>
  <unicode hex="0C89"/>
  <outline>
    <contour>
      <point x="114" y="352" type="move"/>
      <point x="146" y="310"/>
      <point x="185" y="286"/>
      <point x="227" y="286" type="curve" smooth="yes"/>
      <point x="278" y="286"/>
      <point x="317" y="319"/>
      <point x="317" y="369" type="curve" smooth="yes"/>
      <point x="317" y="418"/>
      <point x="283" y="458"/>
      <point x="225" y="458" type="curve" smooth="yes"/>
      <point x="153" y="458"/>
      <point x="95" y="373"/>
      <point x="95" y="246" type="curve" smooth="yes"/>
      <point x="95" y="119"/>
      <point x="170" y="33"/>
      <point x="262" y="33" type="curve"/>
      <point x="299" y="33"/>
      <point x="336" y="47"/>
      <point x="361" y="72" type="curve" smooth="yes"/>
      <point x="388" y="99"/>
      <point x="418" y="152"/>
      <point x="444" y="269" type="curve" smooth="yes"/>
      <point x="467" y="373"/>
      <point x="501" y="421"/>
      <point x="552" y="421" type="curve" smooth="yes"/>
      <point x="615" y="421"/>
      <point x="644" y="369"/>
      <point x="656" y="257" type="curve" smooth="yes"/>
      <point x="669" y="139"/>
      <point x="693" y="97"/>
      <point x="718" y="72" type="curve" smooth="yes"/>
      <point x="742" y="48"/>
      <point x="778" y="33"/>
      <point x="824" y="33" type="curve" smooth="yes"/>
      <point x="892" y="33"/>
      <point x="957" y="84"/>
      <point x="957" y="185" type="curve" smooth="yes"/>
      <point x="957" y="285"/>
      <point x="906" y="379"/>
      <point x="841" y="443" type="curve"/>
    </contour>
  </outline>
</glyph>
<glyph name="knUU" format="1">
  <advance width="1334"/>
  <unicode hex="0C8A"/>
  <outline>
    <contour>
      <point x="109" y="352" type="move"/>
      <point x="141" y="310"/>
      <point x="180" y="286"/>
      <point x="222" y="286" type="curve" smooth="yes"/>
      <point x="273" y="286"/>
      <point x="312" y="319"/>
      <point x="312" y="369" type="curve" smooth="yes"/>
      <point x="312" y="418"/>
      <point x="278" y="458"/>
      <point x="220" y="458" type="curve" smooth="yes"/>
      <point x="148" y="458"/>
      <point x="90" y="373"/>
      <point x="90" y="246" type="curve" smooth="yes"/>
      <point x="90" y="119"/>
      <point x="165" y="33"/>
      <point x="257" y="33" type="curve"/>
      <point x="294" y="33"/>
      <point x="331" y="47"/>
      <point x="356" y="72" type="curve" smooth="yes"/>
      <point x="383" y="99"/>
      <point x="413" y="152"/>
      <point x="439" y="269" type="curve"/>
      <point x="462" y="373"/>
      <point x="496" y="421"/>
      <point x="547" y="421" type="curve" smooth="yes"/>
      <point x="610" y="421"/>
      <point x="639" y="369"/>
      <point x="651" y="257" type="curve" smooth="yes"/>
      <point x="664" y="139"/>
      <point x="688" y="97"/>
      <point x="713" y="72" type="curve" smooth="yes"/>
      <point x="737" y="48"/>
      <point x="765" y="33"/>
      <point x="809" y="33" type="curve" smooth="yes"/>
      <point x="874" y="33"/>
      <point x="911" y="74"/>
      <point x="911" y="135" type="curve" smooth="yes"/>
      <point x="911" y="188"/>
      <point x="886" y="238"/>
      <point x="886" y="298" type="curve" smooth="yes"/>
      <point x="886" y="365"/>
      <point x="934" y="443"/>
      <point x="1028" y="443" type="curve" smooth="yes"/>
      <point x="1129" y="443"/>
      <point x="1254" y="347"/>
      <point x="1254" y="177" type="curve" smooth="yes"/>
      <point x="1254" y="84"/>
      <point x="1207" y="29"/>
      <point x="1144" y="29" type="curve" smooth="yes"/>
      <point x="1085" y="29"/>
      <point x="1052" y="71"/>
      <point x="1051" y="117" type="curve" smooth="yes"/>
      <point x="1050" y="171"/>
      <point x="1091" y="223"/>
      <point x="1165" y="223" type="curve" smooth="yes"/>
      <point x="1194" y="223"/>
      <point x="1224" y="219"/>
      <point x="1249" y="211" type="curve"/>
    </contour>
  </outline>
</glyph>
<glyph name="knvR" format="1">
  <advance width="1071"/>
  <unicode hex="0C8B"/>
  <outline>
    <contour>
      <point x="489" y="443" type="move"/>
      <point x="571" y="443" type="line" smooth="yes"/>
      <point x="644" y="443"/>
      <point x="687" y="469"/>
      <point x="719" y="521" type="curve"/>
    </contour>
    <component base="knKha" xOffset="-44" yOffset="-142"/>
    <component base="knUsign" xOffset="1030" yOffset="-512"/>
    <component base="knKHA"/>
    <component base="knsignU" xOffset="755"/>
  </outline>
</glyph>
<glyph name="knvL" format="1">
  <advance width="892"/>
  <unicode hex="0C8C"/>
  <outline>
    <contour>
      <point x="105" y="258" type="move"/>
      <point x="91" y="283"/>
      <point x="82" y="308"/>
      <point x="82" y="338" type="curve" smooth="yes"/>
      <point x="82" y="393"/>
      <point x="120" y="444"/>
      <point x="189" y="444" type="curve" smooth="yes"/>
      <point x="252" y="444"/>
      <point x="299" y="397"/>
      <point x="336" y="330" type="curve"/>
      <point x="341" y="330" type="line"/>
      <point x="380" y="398"/>
      <point x="428" y="443"/>
      <point x="493" y="443" type="curve" smooth="yes"/>
      <point x="557" y="443"/>
      <point x="596" y="394"/>
      <point x="596" y="342" type="curve" smooth="yes"/>
      <point x="596" y="306"/>
      <point x="582" y="280"/>
      <point x="564" y="262" type="curve" smooth="yes"/>
      <point x="547" y="245"/>
      <point x="517" y="225"/>
      <point x="477" y="202" type="curve" smooth="yes"/>
      <point x="426" y="172"/>
      <point x="410" y="148"/>
      <point x="410" y="116" type="curve" smooth="yes"/>
      <point x="410" y="98"/>
      <point x="419" y="80"/>
      <point x="433" y="65" type="curve"/>
      <point x="452" y="47"/>
      <point x="499" y="27"/>
      <point x="581" y="27" type="curve" smooth="yes"/>
      <point x="673" y="27"/>
      <point x="722" y="53"/>
      <point x="755" y="86" type="curve" smooth="yes"/>
      <point x="784" y="115"/>
      <point x="804" y="157"/>
      <point x="804" y="213" type="curve" smooth="yes"/>
      <point x="804" y="269"/>
      <point x="786" y="365"/>
      <point x="743" y="437" type="curve"/>
    </contour>
  </outline>
</glyph>
<glyph name="knE" format="1">
  <advance width="735"/>
  <unicode hex="0C8E"/>
  <outline>
    <contour>
      <point x="188" y="226" type="move"/>
      <point x="126" y="217"/>
      <point x="92" y="176"/>
      <point x="92" y="128" type="curve" smooth="yes"/>
      <point x="92" y="75"/>
      <point x="135" y="33"/>
      <point x="203" y="33" type="curve" smooth="yes"/>
      <point x="279" y="33"/>
      <point x="323" y="65"/>
      <point x="360" y="134" type="curve"/>
      <point x="365" y="134" type="line"/>
      <point x="406" y="63"/>
      <point x="447" y="33"/>
      <point x="510" y="33" type="curve" smooth="yes"/>
      <point x="581" y="33"/>
      <point x="642" y="84"/>
      <point x="641" y="178" type="curve" smooth="yes"/>
      <point x="640" y="328"/>
      <point x="502" y="469"/>
      <point x="217" y="469" type="curve"/>
    </contour>
  </outline>
</glyph>
<glyph name="knEE" format="1">
  <advance width="730.012124187"/>
  <unicode hex="0C8F"/>
  <outline>
    <contour>
      <point x="143" y="483" type="move"/>
      <point x="143" y="410"/>
      <point x="190" y="355"/>
      <point x="261" y="355" type="curve" smooth="yes"/>
      <point x="321" y="355"/>
      <point x="358" y="394"/>
      <point x="379" y="457" type="curve"/>
    </contour>
    <contour>
      <point x="189" y="226" type="move"/>
      <point x="127" y="217"/>
      <point x="93" y="176"/>
      <point x="93" y="128" type="curve" smooth="yes"/>
      <point x="93" y="75"/>
      <point x="136" y="33"/>
      <point x="204" y="33" type="curve" smooth="yes"/>
      <point x="280" y="33"/>
      <point x="324" y="65"/>
      <point x="361" y="134" type="curve"/>
      <point x="366" y="134" type="line"/>
      <point x="407" y="63"/>
      <point x="448" y="33"/>
      <point x="511" y="33" type="curve" smooth="yes"/>
      <point x="582" y="33"/>
      <point x="643" y="84"/>
      <point x="642" y="178" type="curve" smooth="yes"/>
      <point x="641" y="298"/>
      <point x="563" y="420"/>
      <point x="381" y="461" type="curve"/>
    </contour>
  </outline>
</glyph>
<glyph name="knAI" format="1">
  <advance width="726"/>
  <unicode hex="0C90"/>
  <outline>
    <contour>
      <point x="179" y="226" type="move"/>
      <point x="117" y="217"/>
      <point x="83" y="176"/>
      <point x="83" y="128" type="curve" smooth="yes"/>
      <point x="83" y="75"/>
      <point x="126" y="33"/>
      <point x="194" y="33" type="curve" smooth="yes"/>
      <point x="270" y="33"/>
      <point x="314" y="65"/>
      <point x="351" y="134" type="curve"/>
      <point x="356" y="134" type="line"/>
      <point x="397" y="63"/>
      <point x="442" y="33"/>
      <point x="504" y="33" type="curve" smooth="yes"/>
      <point x="579" y="33"/>
      <point x="642" y="84"/>
      <point x="642" y="232" type="curve" smooth="yes"/>
      <point x="642" y="388"/>
      <point x="565" y="443"/>
      <point x="496" y="443" type="curve" smooth="yes"/>
      <point x="443" y="443"/>
      <point x="405" y="414"/>
      <point x="359" y="340" type="curve"/>
      <point x="354" y="340" type="line"/>
      <point x="310" y="413"/>
      <point x="273" y="444"/>
      <point x="215" y="444" type="curve" smooth="yes"/>
      <point x="159" y="444"/>
      <point x="115" y="408"/>
      <point x="96" y="342" type="curve"/>
    </contour>
  </outline>
</glyph>
<glyph name="knO" format="1">
  <advance width="733"/>
  <unicode hex="0C92"/>
  <outline>
    <contour>
      <point x="87" y="412" type="move"/>
      <point x="112" y="440"/>
      <point x="142" y="458"/>
      <point x="178" y="458" type="curve" smooth="yes"/>
      <point x="230" y="458"/>
      <point x="263" y="424"/>
      <point x="263" y="381" type="curve" smooth="yes"/>
      <point x="263" y="342"/>
      <point x="241" y="309"/>
      <point x="184" y="263" type="curve" smooth="yes"/>
      <point x="136" y="224"/>
      <point x="105" y="183"/>
      <point x="105" y="135" type="curve" smooth="yes"/>
      <point x="105" y="80"/>
      <point x="144" y="33"/>
      <point x="217" y="33" type="curve" smooth="yes"/>
      <point x="284" y="33"/>
      <point x="329" y="62"/>
      <point x="374" y="134" type="curve"/>
      <point x="379" y="134" type="line"/>
      <point x="421" y="69"/>
      <point x="467" y="33"/>
      <point x="540" y="33" type="curve" smooth="yes"/>
      <point x="612" y="33"/>
      <point x="655" y="82"/>
      <point x="655" y="140" type="curve" smooth="yes"/>
      <point x="655" y="183"/>
      <point x="640" y="218"/>
      <point x="610" y="244" type="curve"/>
    </contour>
  </outline>
</glyph>
<glyph name="knOO" format="1">
  <advance width="723"/>
  <unicode hex="0C93"/>
  <outline>
    <contour>
      <point x="299" y="601" type="move"/>
      <point x="283" y="608"/>
      <point x="267" y="615"/>
      <point x="242" y="615" type="curve" smooth="yes"/>
      <point x="194" y="615"/>
      <point x="161" y="578"/>
      <point x="161" y="533" type="curve" smooth="yes"/>
      <point x="161" y="504"/>
      <point x="167" y="483"/>
      <point x="172" y="463" type="curve"/>
    </contour>
    <component base="knO"/>
  </outline>
</glyph>
<glyph name="knAU" format="1">
  <advance width="738"/>
  <unicode hex="0C94"/>
  <outline>
    <contour>
      <point x="95" y="643" type="move"/>
      <point x="444" y="643" type="line" smooth="yes"/>
      <point x="590" y="643"/>
      <point x="655" y="576"/>
      <point x="655" y="486" type="curve"/>
      <point x="655" y="403"/>
      <point x="611" y="354"/>
      <point x="553" y="354" type="curve" smooth="yes"/>
      <point x="498" y="354"/>
      <point x="467" y="391"/>
      <point x="466" y="432" type="curve" smooth="yes"/>
      <point x="465" y="481"/>
      <point x="503" y="527"/>
      <point x="572" y="527" type="curve" smooth="yes"/>
      <point x="599" y="527"/>
      <point x="627" y="524"/>
      <point x="650" y="516" type="curve"/>
    </contour>
    <contour>
      <point x="100" y="482" type="move"/>
      <point x="176" y="482" type="line" smooth="yes"/>
      <point x="275" y="482"/>
      <point x="334" y="537"/>
      <point x="333" y="635" type="curve"/>
    </contour>
    <component base="knO" xOffset="2"/>
  </outline>
</glyph>
<glyph name="knKA" format="1">
  <advance width="693"/>
  <unicode hex="0C95"/>
  <outline>
    <contour>
      <point x="93" y="443" type="move"/>
      <point x="475" y="443" type="line" smooth="yes"/>
      <point x="548" y="443"/>
      <point x="591" y="469"/>
      <point x="623" y="521" type="curve"/>
    </contour>
    <contour>
      <point x="89" y="288" type="move"/>
      <point x="602" y="288" type="line" smooth="yes"/>
    </contour>
    <contour>
      <point x="347" y="291" type="move"/>
      <point x="347" y="415" type="line" smooth="yes"/>
    </contour>
    <contour>
      <point x="304" y="286" type="move"/>
      <point x="228" y="274"/>
      <point x="180" y="219"/>
      <point x="180" y="157" type="curve" smooth="yes"/>
      <point x="180" y="93"/>
      <point x="223" y="25"/>
      <point x="346" y="25" type="curve" smooth="yes"/>
      <point x="472" y="25"/>
      <point x="514" y="94"/>
      <point x="514" y="157" type="curve" smooth="yes"/>
      <point x="514" y="219"/>
      <point x="465" y="275"/>
      <point x="389" y="286" type="curve"/>
    </contour>
  </outline>
</glyph>
<glyph name="knKHA" format="1">
  <advance width="774"/>
  <unicode hex="0C96"/>
  <outline>
    <contour>
      <point x="274" y="434" type="move"/>
      <point x="280" y="419"/>
      <point x="288" y="397"/>
      <point x="288" y="373" type="curve" smooth="yes"/>
      <point x="288" y="323"/>
      <point x="251" y="288"/>
      <point x="193" y="288" type="curve" smooth="yes"/>
      <point x="147" y="288"/>
      <point x="111" y="322"/>
      <point x="111" y="365" type="curve" smooth="yes"/>
      <point x="111" y="404"/>
      <point x="142" y="447"/>
      <point x="208" y="447" type="curve" smooth="yes"/>
      <point x="333" y="447"/>
      <point x="419" y="353"/>
      <point x="419" y="238" type="curve" smooth="yes"/>
      <point x="419" y="141"/>
      <point x="342" y="19"/>
      <point x="208" y="19" type="curve" smooth="yes"/>
      <point x="130" y="19"/>
      <point x="100" y="59"/>
      <point x="100" y="97" type="curve" smooth="yes"/>
      <point x="100" y="132"/>
      <point x="134" y="175"/>
      <point x="197" y="175" type="curve" smooth="yes"/>
      <point x="262" y="175"/>
      <point x="324" y="142"/>
      <point x="379" y="96" type="curve" smooth="yes"/>
      <point x="439" y="45"/>
      <point x="492" y="23"/>
      <point x="556" y="23" type="curve" smooth="yes"/>
      <point x="628" y="23"/>
      <point x="684" y="74"/>
      <point x="684" y="175" type="curve" smooth="yes"/>
      <point x="684" y="275"/>
      <point x="633" y="369"/>
      <point x="568" y="433" type="curve"/>
    </contour>
  </outline>
</glyph>
<glyph name="knGA" format="1">
  <advance width="644"/>
  <unicode hex="0C97"/>
  <outline>
    <contour>
      <point x="82" y="437" type="move"/>
      <point x="443" y="437" type="line" smooth="yes"/>
      <point x="516" y="437"/>
      <point x="559" y="463"/>
      <point x="591" y="515" type="curve"/>
    </contour>
    <contour>
      <point x="493" y="27" type="move"/>
      <point x="515" y="73"/>
      <point x="528" y="118"/>
      <point x="528" y="180" type="curve" smooth="yes"/>
      <point x="528" y="273"/>
      <point x="476" y="379"/>
      <point x="351" y="437" type="curve"/>
    </contour>
    <contour>
      <point x="293" y="437" type="move"/>
      <point x="170" y="380"/>
      <point x="123" y="274"/>
      <point x="123" y="180" type="curve" smooth="yes"/>
      <point x="123" y="119"/>
      <point x="135" y="71"/>
      <point x="158" y="27" type="curve"/>
    </contour>
  </outline>
</glyph>
<glyph name="knGHA" format="1">
  <advance width="827"/>
  <unicode hex="0C98"/>
  <outline>
    <contour>
      <point x="724" y="339" type="move"/>
      <point x="734" y="322"/>
      <point x="739" y="309"/>
      <point x="739" y="282" type="curve" smooth="yes"/>
      <point x="739" y="246"/>
      <point x="707" y="210"/>
      <point x="665" y="210" type="curve" smooth="yes"/>
      <point x="640" y="210"/>
      <point x="618" y="220"/>
      <point x="598" y="235" type="curve"/>
    </contour>
    <contour>
      <point x="374" y="-89" type="move"/>
      <point x="374" y="-192" type="line"/>
    </contour>
    <contour>
      <point x="96" y="437" type="move"/>
      <point x="531" y="437" type="line" smooth="yes"/>
      <point x="604" y="437"/>
      <point x="647" y="463"/>
      <point x="679" y="515" type="curve"/>
    </contour>
    <contour>
      <point x="189" y="220" type="move"/>
      <point x="127" y="211"/>
      <point x="93" y="170"/>
      <point x="93" y="122" type="curve" smooth="yes"/>
      <point x="93" y="69"/>
      <point x="136" y="25"/>
      <point x="212" y="25" type="curve" smooth="yes"/>
      <point x="280" y="25"/>
      <point x="324" y="59"/>
      <point x="371" y="128" type="curve"/>
      <point x="376" y="128" type="line"/>
      <point x="418" y="63"/>
      <point x="464" y="27"/>
      <point x="537" y="27" type="curve"/>
      <point x="609" y="27"/>
      <point x="652" y="76"/>
      <point x="652" y="129" type="curve" smooth="yes"/>
      <point x="652" y="176"/>
      <point x="625" y="215"/>
      <point x="591" y="240" type="curve"/>
    </contour>
    <contour>
      <point x="317" y="434" type="move"/>
      <point x="291" y="410"/>
      <point x="281" y="381"/>
      <point x="281" y="356" type="curve" smooth="yes"/>
      <point x="281" y="313"/>
      <point x="315" y="273"/>
      <point x="373" y="273" type="curve" smooth="yes"/>
      <point x="433" y="273"/>
      <point x="465" y="312"/>
      <point x="465" y="357" type="curve" smooth="yes"/>
      <point x="465" y="382"/>
      <point x="456" y="411"/>
      <point x="429" y="436" type="curve"/>
    </contour>
    <component base="knPha" xOffset="15"/>
  </outline>
</glyph>
<glyph name="knNGA" format="1">
  <advance width="734"/>
  <unicode hex="0C99"/>
  <outline>
    <contour>
      <point x="262" y="349" type="move"/>
      <point x="301" y="468"/>
      <point x="371" y="511"/>
      <point x="443" y="511" type="curve" smooth="yes"/>
      <point x="511" y="511"/>
      <point x="567" y="482"/>
      <point x="619" y="403" type="curve"/>
    </contour>
    <contour>
      <point x="428" y="351" type="curve" smooth="yes"/>
      <point x="413" y="351"/>
      <point x="400" y="336"/>
      <point x="400" y="324" type="curve" smooth="yes"/>
      <point x="400" y="308"/>
      <point x="413" y="295"/>
      <point x="428" y="295" type="curve" smooth="yes"/>
      <point x="445" y="295"/>
      <point x="457" y="308"/>
      <point x="457" y="323" type="curve" smooth="yes"/>
      <point x="457" y="336"/>
      <point x="445" y="351"/>
    </contour>
    <component base="knO" yOffset="1"/>
  </outline>
</glyph>
<glyph name="knCA" format="1">
  <advance width="775"/>
  <unicode hex="0C9A"/>
  <outline>
    <contour>
      <point x="428" y="296" type="move"/>
      <point x="705" y="296" type="line"/>
    </contour>
    <contour>
      <point x="430" y="443" type="move"/>
      <point x="572" y="443" type="line" smooth="yes"/>
      <point x="645" y="443"/>
      <point x="688" y="469"/>
      <point x="720" y="521" type="curve"/>
    </contour>
    <contour>
      <point x="580" y="302" type="move"/>
      <point x="580" y="415" type="line" smooth="yes"/>
    </contour>
    <contour>
      <point x="82" y="412" type="move"/>
      <point x="107" y="440"/>
      <point x="137" y="458"/>
      <point x="173" y="458" type="curve" smooth="yes"/>
      <point x="225" y="458"/>
      <point x="258" y="424"/>
      <point x="258" y="381" type="curve" smooth="yes"/>
      <point x="258" y="342"/>
      <point x="236" y="309"/>
      <point x="179" y="263" type="curve" smooth="yes"/>
      <point x="131" y="224"/>
      <point x="100" y="183"/>
      <point x="100" y="135" type="curve" smooth="yes"/>
      <point x="100" y="80"/>
      <point x="139" y="33"/>
      <point x="212" y="33" type="curve"/>
      <point x="279" y="33"/>
      <point x="324" y="62"/>
      <point x="369" y="134" type="curve"/>
      <point x="374" y="134" type="line"/>
      <point x="416" y="69"/>
      <point x="462" y="33"/>
      <point x="535" y="33" type="curve" smooth="yes"/>
      <point x="607" y="33"/>
      <point x="650" y="85"/>
      <point x="650" y="143" type="curve" smooth="yes"/>
      <point x="650" y="195"/>
      <point x="627" y="239"/>
      <point x="571" y="283" type="curve"/>
    </contour>
  </outline>
</glyph>
<glyph name="knCHA" format="1">
  <advance width="779"/>
  <unicode hex="0C9B"/>
  <outline>
    <contour>
      <point x="465" y="443" type="move"/>
      <point x="569" y="443" type="line" smooth="yes"/>
      <point x="642" y="443"/>
      <point x="685" y="469"/>
      <point x="717" y="521" type="curve"/>
    </contour>
    <contour>
      <point x="401" y="-83" type="move"/>
      <point x="401" y="-186" type="line"/>
    </contour>
    <contour>
      <point x="125" y="360" type="move"/>
      <point x="153" y="318"/>
      <point x="187" y="292"/>
      <point x="229" y="292" type="curve" smooth="yes"/>
      <point x="277" y="292"/>
      <point x="317" y="324"/>
      <point x="317" y="374" type="curve" smooth="yes"/>
      <point x="317" y="423"/>
      <point x="284" y="458"/>
      <point x="229" y="458" type="curve" smooth="yes"/>
      <point x="160" y="458"/>
      <point x="99" y="358"/>
      <point x="99" y="235" type="curve" smooth="yes"/>
      <point x="99" y="119"/>
      <point x="161" y="34"/>
      <point x="256" y="33" type="curve" smooth="yes"/>
      <point x="321" y="32"/>
      <point x="361" y="65"/>
      <point x="398" y="134" type="curve"/>
      <point x="403" y="134" type="line"/>
      <point x="441" y="67"/>
      <point x="488" y="33"/>
      <point x="552" y="33" type="curve" smooth="yes"/>
      <point x="625" y="33"/>
      <point x="682" y="96"/>
      <point x="682" y="189" type="curve" smooth="yes"/>
      <point x="682" y="285"/>
      <point x="641" y="370"/>
      <point x="540" y="443" type="curve"/>
    </contour>
  </outline>
</glyph>
<glyph name="knJA" format="1">
  <advance width="742"/>
  <unicode hex="0C9C"/>
  <outline>
    <contour>
      <point x="565" y="433" type="move"/>
      <point x="570" y="419"/>
      <point x="574" y="401"/>
      <point x="574" y="387" type="curve" smooth="yes"/>
      <point x="574" y="337"/>
      <point x="538" y="294"/>
      <point x="471" y="294" type="curve" smooth="yes"/>
      <point x="390" y="294"/>
      <point x="329" y="337"/>
      <point x="260" y="411" type="curve"/>
    </contour>
    <component base="knO"/>
  </outline>
</glyph>
<glyph name="knJHA" format="1">
  <advance width="1239"/>
  <unicode hex="0C9D"/>
  <outline>
    <contour>
      <point x="837" y="-83" type="move"/>
      <point x="837" y="-186" type="line"/>
    </contour>
    <contour>
      <point x="89" y="443" type="move"/>
      <point x="447" y="443" type="line" smooth="yes"/>
      <point x="520" y="443"/>
      <point x="563" y="469"/>
      <point x="595" y="521" type="curve"/>
    </contour>
    <contour>
      <point x="209" y="443"/>
      <point x="118" y="344"/>
      <point x="118" y="233" type="curve" smooth="yes"/>
      <point x="118" y="116"/>
      <point x="201" y="29"/>
      <point x="326" y="29" type="curve" smooth="yes"/>
      <point x="453" y="29"/>
      <point x="534" y="118"/>
      <point x="534" y="233" type="curve" smooth="yes"/>
      <point x="534" y="342"/>
      <point x="449" y="443"/>
      <point x="328" y="443" type="curve" smooth="yes"/>
    </contour>
    <component base="knRa" xOffset="68" yOffset="-132"/>
    <component base="knsignU" xOffset="617"/>
    <component base="knsignU" xOffset="928"/>
  </outline>
</glyph>
<glyph name="knNYA" format="1">
  <advance width="916"/>
  <unicode hex="0C9E"/>
  <outline>
    <contour>
      <point x="623" y="355" type="move"/>
      <point x="653" y="405"/>
      <point x="692" y="443"/>
      <point x="747" y="443" type="curve" smooth="yes"/>
      <point x="813" y="443"/>
      <point x="837" y="394"/>
      <point x="837" y="356" type="curve" smooth="yes"/>
      <point x="837" y="323"/>
      <point x="825" y="292"/>
      <point x="810" y="261" type="curve"/>
    </contour>
    <component base="knI"/>
  </outline>
</glyph>
<glyph name="knTTA" format="1">
  <advance width="763"/>
  <unicode hex="0C9F"/>
  <outline>
    <contour>
      <point x="531" y="290" type="move"/>
      <point x="617" y="303"/>
      <point x="640" y="347"/>
      <point x="640" y="392" type="curve" smooth="yes"/>
      <point x="640" y="435"/>
      <point x="608" y="470"/>
      <point x="553" y="496" type="curve"/>
    </contour>
    <contour>
      <point x="121" y="244" type="move"/>
      <point x="147" y="205"/>
      <point x="187" y="187"/>
      <point x="225" y="187" type="curve" smooth="yes"/>
      <point x="278" y="187"/>
      <point x="310" y="219"/>
      <point x="310" y="266" type="curve" smooth="yes"/>
      <point x="310" y="312"/>
      <point x="273" y="345"/>
      <point x="223" y="345" type="curve" smooth="yes"/>
      <point x="153" y="345"/>
      <point x="102" y="267"/>
      <point x="102" y="184" type="curve" smooth="yes"/>
      <point x="102" y="93"/>
      <point x="159" y="33"/>
      <point x="238" y="33" type="curve" smooth="yes"/>
      <point x="309" y="33"/>
      <point x="356" y="71"/>
      <point x="388" y="134" type="curve"/>
      <point x="393" y="134" type="line"/>
      <point x="431" y="71"/>
      <point x="480" y="33"/>
      <point x="553" y="33" type="curve" smooth="yes"/>
      <point x="626" y="33"/>
      <point x="669" y="78"/>
      <point x="669" y="147" type="curve" smooth="yes"/>
      <point x="669" y="185"/>
      <point x="658" y="214"/>
      <point x="630" y="242" type="curve" smooth="yes"/>
      <point x="607" y="265"/>
      <point x="557" y="289"/>
      <point x="522" y="289" type="curve"/>
    </contour>
    <contour>
      <point x="226" y="499" type="move"/>
      <point x="174" y="488"/>
      <point x="149" y="455"/>
      <point x="148" y="424" type="curve" smooth="yes"/>
      <point x="147" y="396"/>
      <point x="158" y="359"/>
      <point x="215" y="345" type="curve"/>
    </contour>
  </outline>
</glyph>
<glyph name="knTTHA" format="1">
  <advance width="674"/>
  <unicode hex="0CA0"/>
  <outline>
    <contour>
      <point x="98" y="443" type="move"/>
      <point x="468" y="443" type="line" smooth="yes"/>
      <point x="541" y="443"/>
      <point x="583" y="469"/>
      <point x="615" y="521" type="curve"/>
    </contour>
    <contour>
      <point x="211" y="443"/>
      <point x="118" y="338"/>
      <point x="118" y="230" type="curve" smooth="yes"/>
      <point x="118" y="114"/>
      <point x="205" y="23"/>
      <point x="342" y="23" type="curve" smooth="yes"/>
      <point x="481" y="23"/>
      <point x="565" y="116"/>
      <point x="565" y="230" type="curve" smooth="yes"/>
      <point x="565" y="336"/>
      <point x="477" y="443"/>
      <point x="343" y="443" type="curve" smooth="yes"/>
    </contour>
    <contour>
      <point x="340" y="266" type="curve" smooth="yes"/>
      <point x="325" y="266"/>
      <point x="312" y="251"/>
      <point x="312" y="239" type="curve" smooth="yes"/>
      <point x="312" y="223"/>
      <point x="325" y="210"/>
      <point x="340" y="210" type="curve" smooth="yes"/>
      <point x="357" y="210"/>
      <point x="369" y="223"/>
      <point x="369" y="238" type="curve" smooth="yes"/>
      <point x="369" y="251"/>
      <point x="357" y="266"/>
    </contour>
  </outline>
</glyph>
<glyph name="knDDA" format="1">
  <advance width="760"/>
  <unicode hex="0CA1"/>
  <outline>
    <contour>
      <point x="103" y="443" type="move"/>
      <point x="523" y="443" type="line" smooth="yes"/>
      <point x="596" y="443"/>
      <point x="639" y="469"/>
      <point x="671" y="521" type="curve"/>
    </contour>
    <contour>
      <point x="294" y="443" type="move"/>
      <point x="170" y="388"/>
      <point x="101" y="276"/>
      <point x="101" y="174" type="curve" smooth="yes"/>
      <point x="101" y="84"/>
      <point x="160" y="33"/>
      <point x="228" y="33" type="curve" smooth="yes"/>
      <point x="293" y="33"/>
      <point x="333" y="66"/>
      <point x="369" y="134" type="curve"/>
      <point x="374" y="134" type="line"/>
      <point x="412" y="64"/>
      <point x="472" y="33"/>
      <point x="528" y="33" type="curve" smooth="yes"/>
      <point x="619" y="33"/>
      <point x="673" y="91"/>
      <point x="673" y="178" type="curve" smooth="yes"/>
      <point x="673" y="247"/>
      <point x="622" y="354"/>
      <point x="473" y="443" type="curve"/>
    </contour>
    <contour>
      <point x="566" y="362" type="move"/>
      <point x="497" y="362"/>
      <point x="456" y="310"/>
      <point x="456" y="267" type="curve" smooth="yes"/>
      <point x="456" y="224"/>
      <point x="492" y="187"/>
      <point x="542" y="187" type="curve" smooth="yes"/>
      <point x="590" y="187"/>
      <point x="627" y="213"/>
      <point x="649" y="261" type="curve"/>
    </contour>
  </outline>
</glyph>
<glyph name="knDDHA" format="1">
  <advance width="770"/>
  <unicode hex="0CA2"/>
  <outline>
    <contour>
      <point x="376" y="-93" type="move"/>
      <point x="376" y="-196" type="line"/>
    </contour>
    <component base="knDda" xOffset="30" yOffset="9"/>
    <component base="knDda" xOffset="15"/>
    <component base="knDDA"/>
  </outline>
</glyph>
<glyph name="knNNA" format="1">
  <advance width="760"/>
  <unicode hex="0CA3"/>
  <outline>
    <contour>
      <point x="223" y="235" type="move"/>
      <point x="158" y="237"/>
      <point x="92" y="197"/>
      <point x="92" y="134" type="curve" smooth="yes"/>
      <point x="92" y="72"/>
      <point x="140" y="34"/>
      <point x="220" y="34" type="curve" smooth="yes"/>
      <point x="249" y="34"/>
      <point x="272" y="38"/>
      <point x="290" y="43" type="curve"/>
    </contour>
    <contour>
      <point x="662" y="153" type="move"/>
      <point x="633" y="184"/>
      <point x="599" y="209"/>
      <point x="547" y="209" type="curve" smooth="yes"/>
      <point x="484" y="209"/>
      <point x="448" y="164"/>
      <point x="448" y="117" type="curve" smooth="yes"/>
      <point x="448" y="65"/>
      <point x="490" y="28"/>
      <point x="542" y="28" type="curve" smooth="yes"/>
      <point x="622" y="28"/>
      <point x="675" y="77"/>
      <point x="675" y="236" type="curve" smooth="yes"/>
      <point x="675" y="386"/>
      <point x="616" y="451"/>
      <point x="534" y="451" type="curve" smooth="yes"/>
      <point x="470" y="451"/>
      <point x="418" y="408"/>
      <point x="382" y="340" type="curve"/>
      <point x="378" y="340" type="line"/>
      <point x="345" y="408"/>
      <point x="294" y="451"/>
      <point x="220" y="451" type="curve" smooth="yes"/>
      <point x="146" y="451"/>
      <point x="104" y="401"/>
      <point x="104" y="346" type="curve" smooth="yes"/>
      <point x="104" y="287"/>
      <point x="155" y="235"/>
      <point x="236" y="235" type="curve" smooth="yes"/>
      <point x="240" y="235"/>
      <point x="242" y="235"/>
      <point x="246" y="235" type="curve"/>
    </contour>
  </outline>
</glyph>
<glyph name="knTA" format="1">
  <advance width="638"/>
  <unicode hex="0CA4"/>
  <outline>
    <contour>
      <point x="90" y="437" type="move"/>
      <point x="428" y="437" type="line" smooth="yes"/>
      <point x="501" y="437"/>
      <point x="544" y="463"/>
      <point x="576" y="515" type="curve"/>
    </contour>
    <contour>
      <point x="101" y="74" type="move"/>
      <point x="149" y="44"/>
      <point x="221" y="18"/>
      <point x="324" y="18" type="curve" smooth="yes"/>
      <point x="478" y="18"/>
      <point x="552" y="88"/>
      <point x="552" y="174" type="curve" smooth="yes"/>
      <point x="552" y="249"/>
      <point x="477" y="320"/>
      <point x="327" y="320" type="curve" smooth="yes"/>
      <point x="241" y="320"/>
      <point x="200" y="283"/>
      <point x="200" y="245" type="curve" smooth="yes"/>
      <point x="200" y="208"/>
      <point x="231" y="175"/>
      <point x="301" y="174" type="curve" smooth="yes"/>
      <point x="389" y="173"/>
      <point x="441" y="230"/>
      <point x="441" y="293" type="curve" smooth="yes"/>
      <point x="441" y="338"/>
      <point x="435" y="388"/>
      <point x="411" y="437" type="curve"/>
    </contour>
  </outline>
</glyph>
<glyph name="knTHA" format="1">
  <advance width="751"/>
  <unicode hex="0CA5"/>
  <outline>
    <contour>
      <point x="373" y="296" type="curve" smooth="yes"/>
      <point x="358" y="296"/>
      <point x="345" y="281"/>
      <point x="345" y="269" type="curve" smooth="yes"/>
      <point x="345" y="253"/>
      <point x="358" y="240"/>
      <point x="373" y="240" type="curve" smooth="yes"/>
      <point x="390" y="240"/>
      <point x="402" y="253"/>
      <point x="402" y="268" type="curve" smooth="yes"/>
      <point x="402" y="281"/>
      <point x="390" y="296"/>
    </contour>
    <component base="knDa" xOffset="90" yOffset="-149"/>
    <component base="knDA"/>
  </outline>
</glyph>
<glyph name="knDA" format="1">
  <advance width="751"/>
  <unicode hex="0CA6"/>
  <outline>
    <contour>
      <point x="111" y="443" type="move"/>
      <point x="514" y="443" type="line" smooth="yes"/>
      <point x="587" y="443"/>
      <point x="630" y="469"/>
      <point x="662" y="521" type="curve"/>
    </contour>
    <contour>
      <point x="318" y="443" type="move"/>
      <point x="194" y="388"/>
      <point x="106" y="280"/>
      <point x="106" y="178" type="curve" smooth="yes"/>
      <point x="106" y="86"/>
      <point x="158" y="33"/>
      <point x="231" y="33" type="curve" smooth="yes"/>
      <point x="296" y="33"/>
      <point x="335" y="67"/>
      <point x="370" y="134" type="curve"/>
      <point x="375" y="134" type="line"/>
      <point x="413" y="64"/>
      <point x="450" y="33"/>
      <point x="519" y="33" type="curve" smooth="yes"/>
      <point x="591" y="33"/>
      <point x="645" y="86"/>
      <point x="645" y="178" type="curve" smooth="yes"/>
      <point x="645" y="279"/>
      <point x="553" y="387"/>
      <point x="426" y="443" type="curve"/>
    </contour>
  </outline>
</glyph>
<glyph name="knDHA" format="1">
  <advance width="731"/>
  <unicode hex="0CA7"/>
  <outline>
    <contour>
      <point x="363" y="-83" type="move"/>
      <point x="363" y="-186" type="line"/>
    </contour>
    <component base="knDa" xOffset="5"/>
    <component base="knDA"/>
  </outline>
</glyph>
<glyph name="knNA" format="1">
  <advance width="658"/>
  <unicode hex="0CA8"/>
  <outline>
    <contour>
      <point x="101" y="443" type="move"/>
      <point x="425" y="443" type="line" smooth="yes"/>
      <point x="498" y="443"/>
      <point x="541" y="469"/>
      <point x="573" y="521" type="curve"/>
    </contour>
    <contour>
      <point x="110" y="23" type="move"/>
      <point x="110" y="100"/>
      <point x="123" y="160"/>
      <point x="151" y="188" type="curve" smooth="yes"/>
      <point x="166" y="203"/>
      <point x="187" y="215"/>
      <point x="215" y="215" type="curve" smooth="yes"/>
      <point x="254" y="215"/>
      <point x="296" y="193"/>
      <point x="333" y="132" type="curve" smooth="yes"/>
      <point x="370" y="71"/>
      <point x="399" y="33"/>
      <point x="458" y="33" type="curve" smooth="yes"/>
      <point x="510" y="33"/>
      <point x="569" y="76"/>
      <point x="569" y="178" type="curve" smooth="yes"/>
      <point x="569" y="277"/>
      <point x="488" y="377"/>
      <point x="381" y="443" type="curve"/>
    </contour>
  </outline>
</glyph>
<glyph name="knPA" format="1">
  <advance width="726"/>
  <unicode hex="0CAA"/>
  <outline>
    <contour>
      <point x="96" y="443" type="move"/>
      <point x="511" y="443" type="line" smooth="yes"/>
      <point x="584" y="443"/>
      <point x="627" y="469"/>
      <point x="659" y="521" type="curve"/>
    </contour>
    <contour>
      <point x="376" y="134" type="move"/>
      <point x="418" y="69"/>
      <point x="464" y="33"/>
      <point x="537" y="33" type="curve" smooth="yes"/>
      <point x="609" y="33"/>
      <point x="652" y="82"/>
      <point x="652" y="151" type="curve" smooth="yes"/>
      <point x="652" y="186"/>
      <point x="642" y="220"/>
      <point x="630" y="246" type="curve"/>
    </contour>
    <contour>
      <point x="189" y="226" type="move"/>
      <point x="127" y="217"/>
      <point x="93" y="176"/>
      <point x="93" y="128" type="curve" smooth="yes"/>
      <point x="93" y="75"/>
      <point x="136" y="31"/>
      <point x="212" y="31" type="curve" smooth="yes"/>
      <point x="280" y="31"/>
      <point x="324" y="65"/>
      <point x="371" y="134" type="curve"/>
    </contour>
    <contour>
      <point x="317" y="440" type="move"/>
      <point x="291" y="416"/>
      <point x="281" y="387"/>
      <point x="281" y="362" type="curve" smooth="yes"/>
      <point x="281" y="319"/>
      <point x="315" y="279"/>
      <point x="373" y="279" type="curve" smooth="yes"/>
      <point x="433" y="279"/>
      <point x="465" y="318"/>
      <point x="465" y="363" type="curve" smooth="yes"/>
      <point x="465" y="388"/>
      <point x="456" y="417"/>
      <point x="429" y="442" type="curve"/>
    </contour>
  </outline>
</glyph>
<glyph name="knBA" format="1">
  <advance width="753"/>
  <unicode hex="0CAC"/>
  <outline>
    <contour>
      <point x="92" y="402" type="move"/>
      <point x="117" y="430"/>
      <point x="147" y="448"/>
      <point x="183" y="448" type="curve" smooth="yes"/>
      <point x="235" y="448"/>
      <point x="268" y="414"/>
      <point x="268" y="371" type="curve" smooth="yes"/>
      <point x="268" y="332"/>
      <point x="246" y="299"/>
      <point x="189" y="253" type="curve" smooth="yes"/>
      <point x="141" y="214"/>
      <point x="110" y="173"/>
      <point x="110" y="125" type="curve" smooth="yes"/>
      <point x="110" y="70"/>
      <point x="149" y="23"/>
      <point x="222" y="23" type="curve"/>
      <point x="289" y="23"/>
      <point x="337" y="56"/>
      <point x="379" y="124" type="curve"/>
      <point x="384" y="124" type="line"/>
      <point x="423" y="56"/>
      <point x="470" y="23"/>
      <point x="536" y="23" type="curve" smooth="yes"/>
      <point x="604" y="23"/>
      <point x="660" y="76"/>
      <point x="660" y="175" type="curve" smooth="yes"/>
      <point x="660" y="275"/>
      <point x="609" y="369"/>
      <point x="524" y="433" type="curve"/>
    </contour>
  </outline>
</glyph>
<glyph name="knBHA" format="1">
  <advance width="741"/>
  <unicode hex="0CAD"/>
  <outline>
    <contour>
      <point x="378" y="-83" type="move"/>
      <point x="378" y="-186" type="line"/>
    </contour>
    <contour>
      <point x="434" y="443" type="move"/>
      <point x="523" y="443" type="line" smooth="yes"/>
      <point x="596" y="443"/>
      <point x="639" y="469"/>
      <point x="671" y="521" type="curve"/>
    </contour>
    <contour>
      <point x="87" y="412" type="move"/>
      <point x="112" y="440"/>
      <point x="142" y="458"/>
      <point x="178" y="458" type="curve" smooth="yes"/>
      <point x="230" y="458"/>
      <point x="263" y="424"/>
      <point x="263" y="381" type="curve" smooth="yes"/>
      <point x="263" y="342"/>
      <point x="241" y="309"/>
      <point x="184" y="263" type="curve" smooth="yes"/>
      <point x="136" y="224"/>
      <point x="105" y="183"/>
      <point x="105" y="135" type="curve" smooth="yes"/>
      <point x="105" y="80"/>
      <point x="144" y="33"/>
      <point x="217" y="33" type="curve"/>
      <point x="284" y="33"/>
      <point x="332" y="66"/>
      <point x="374" y="134" type="curve"/>
      <point x="379" y="134" type="line"/>
      <point x="418" y="66"/>
      <point x="465" y="33"/>
      <point x="531" y="33" type="curve" smooth="yes"/>
      <point x="599" y="33"/>
      <point x="652" y="86"/>
      <point x="652" y="178" type="curve"/>
      <point x="652" y="275"/>
      <point x="588" y="379"/>
      <point x="493" y="443" type="curve"/>
    </contour>
  </outline>
</glyph>
<glyph name="knYA" format="1">
  <advance width="1214"/>
  <unicode hex="0CAF"/>
  <outline>
    <contour>
      <point x="178" y="437"/>
      <point x="85" y="332"/>
      <point x="85" y="227" type="curve" smooth="yes"/>
      <point x="85" y="110"/>
      <point x="165" y="23"/>
      <point x="296" y="23" type="curve" smooth="yes"/>
      <point x="425" y="23"/>
      <point x="507" y="112"/>
      <point x="507" y="227" type="curve" smooth="yes"/>
      <point x="507" y="330"/>
      <point x="416" y="437"/>
      <point x="296" y="437" type="curve" smooth="yes"/>
    </contour>
    <contour>
      <point x="584" y="437" type="move"/>
      <point x="696" y="437" type="line" smooth="yes"/>
      <point x="769" y="437"/>
      <point x="812" y="463"/>
      <point x="844" y="515" type="curve"/>
    </contour>
    <component base="knsignU" xOffset="598"/>
    <component base="knsignU" xOffset="909"/>
  </outline>
</glyph>
<glyph name="knRA" format="1">
  <advance width="653"/>
  <unicode hex="0CB0"/>
  <outline>
    <contour>
      <point x="89" y="443" type="move"/>
      <point x="457" y="443" type="line" smooth="yes"/>
      <point x="530" y="443"/>
      <point x="573" y="469"/>
      <point x="605" y="521" type="curve"/>
    </contour>
    <contour>
      <point x="212" y="443"/>
      <point x="118" y="344"/>
      <point x="118" y="233" type="curve" smooth="yes"/>
      <point x="118" y="116"/>
      <point x="203" y="29"/>
      <point x="332" y="29" type="curve" smooth="yes"/>
      <point x="463" y="29"/>
      <point x="544" y="118"/>
      <point x="544" y="233" type="curve" smooth="yes"/>
      <point x="544" y="342"/>
      <point x="459" y="443"/>
      <point x="334" y="443" type="curve" smooth="yes"/>
    </contour>
  </outline>
</glyph>
<glyph name="knRRA" format="1">
  <advance width="751"/>
  <unicode hex="0CB1"/>
  <outline>
    <contour>
      <point x="110" y="341" type="move"/>
      <point x="138" y="299"/>
      <point x="172" y="273"/>
      <point x="214" y="273" type="curve" smooth="yes"/>
      <point x="262" y="273"/>
      <point x="302" y="305"/>
      <point x="302" y="355" type="curve" smooth="yes"/>
      <point x="302" y="404"/>
      <point x="269" y="439"/>
      <point x="214" y="439" type="curve" smooth="yes"/>
      <point x="145" y="439"/>
      <point x="84" y="352"/>
      <point x="84" y="229" type="curve" smooth="yes"/>
      <point x="84" y="113"/>
      <point x="146" y="27"/>
      <point x="231" y="27" type="curve" smooth="yes"/>
      <point x="296" y="27"/>
      <point x="336" y="59"/>
      <point x="373" y="128" type="curve"/>
      <point x="378" y="128" type="line"/>
      <point x="415" y="59"/>
      <point x="455" y="27"/>
      <point x="520" y="27" type="curve" smooth="yes"/>
      <point x="605" y="27"/>
      <point x="667" y="113"/>
      <point x="667" y="229" type="curve" smooth="yes"/>
      <point x="667" y="352"/>
      <point x="606" y="439"/>
      <point x="537" y="439" type="curve" smooth="yes"/>
      <point x="482" y="439"/>
      <point x="449" y="404"/>
      <point x="449" y="355" type="curve" smooth="yes"/>
      <point x="449" y="305"/>
      <point x="489" y="273"/>
      <point x="537" y="273" type="curve" smooth="yes"/>
      <point x="579" y="273"/>
      <point x="613" y="299"/>
      <point x="641" y="341" type="curve"/>
    </contour>
    <contour>
      <point x="216" y="273" type="move"/>
      <point x="536" y="273" type="line" smooth="yes"/>
    </contour>
  </outline>
</glyph>
<glyph name="knLA" format="1">
  <advance width="731"/>
  <unicode hex="0CB2"/>
  <outline>
    <contour>
      <point x="114" y="342" type="move"/>
      <point x="146" y="310"/>
      <point x="187" y="286"/>
      <point x="229" y="286" type="curve" smooth="yes"/>
      <point x="280" y="286"/>
      <point x="319" y="319"/>
      <point x="319" y="369" type="curve" smooth="yes"/>
      <point x="319" y="418"/>
      <point x="285" y="458"/>
      <point x="227" y="458" type="curve" smooth="yes"/>
      <point x="155" y="458"/>
      <point x="98" y="362"/>
      <point x="98" y="259" type="curve" smooth="yes"/>
      <point x="98" y="136"/>
      <point x="194" y="33"/>
      <point x="374" y="33" type="curve" smooth="yes"/>
      <point x="562" y="33"/>
      <point x="632" y="147"/>
      <point x="632" y="255" type="curve" smooth="yes"/>
      <point x="632" y="335"/>
      <point x="591" y="401"/>
      <point x="533" y="443" type="curve"/>
    </contour>
  </outline>
</glyph>
<glyph name="knLLA" format="1">
  <advance width="730"/>
  <unicode hex="0CB3"/>
  <outline>
    <contour>
      <point x="90" y="328" type="move"/>
      <point x="120" y="313"/>
      <point x="154" y="304"/>
      <point x="192" y="304" type="curve" smooth="yes"/>
      <point x="252" y="304"/>
      <point x="286" y="337"/>
      <point x="286" y="381" type="curve" smooth="yes"/>
      <point x="286" y="423"/>
      <point x="253" y="458"/>
      <point x="198" y="458" type="curve" smooth="yes"/>
      <point x="136" y="458"/>
      <point x="89" y="403"/>
      <point x="89" y="339" type="curve" smooth="yes"/>
      <point x="89" y="302"/>
      <point x="98" y="262"/>
      <point x="121" y="239" type="curve" smooth="yes"/>
      <point x="161" y="199"/>
      <point x="216" y="174"/>
      <point x="360" y="174" type="curve" smooth="yes"/>
      <point x="471" y="174"/>
      <point x="542" y="198"/>
      <point x="577" y="232" type="curve" smooth="yes"/>
      <point x="600" y="254"/>
      <point x="613" y="284"/>
      <point x="613" y="314" type="curve" smooth="yes"/>
      <point x="613" y="357"/>
      <point x="583" y="417"/>
      <point x="521" y="443" type="curve"/>
    </contour>
    <contour>
      <point x="428" y="443" type="move"/>
      <point x="530" y="443" type="line" smooth="yes"/>
      <point x="603" y="443"/>
      <point x="646" y="469"/>
      <point x="678" y="521" type="curve"/>
    </contour>
    <contour>
      <point x="352" y="172" type="curve" smooth="yes"/>
      <point x="274" y="171"/>
      <point x="243" y="134"/>
      <point x="243" y="95" type="curve" smooth="yes"/>
      <point x="243" y="56"/>
      <point x="279" y="17"/>
      <point x="352" y="17" type="curve" smooth="yes"/>
      <point x="428" y="17"/>
      <point x="462" y="56"/>
      <point x="462" y="94" type="curve" smooth="yes"/>
      <point x="462" y="134"/>
      <point x="435" y="173"/>
    </contour>
  </outline>
</glyph>
<glyph name="knVA" format="1">
  <advance width="706"/>
  <unicode hex="0CB5"/>
  <outline>
    <contour>
      <point x="108" y="437" type="move"/>
      <point x="473" y="437" type="line" smooth="yes"/>
      <point x="546" y="437"/>
      <point x="589" y="463"/>
      <point x="621" y="515" type="curve"/>
    </contour>
    <contour>
      <point x="179" y="220" type="move"/>
      <point x="117" y="211"/>
      <point x="83" y="170"/>
      <point x="83" y="122" type="curve" smooth="yes"/>
      <point x="83" y="69"/>
      <point x="126" y="27"/>
      <point x="194" y="27" type="curve" smooth="yes"/>
      <point x="270" y="27"/>
      <point x="314" y="59"/>
      <point x="351" y="128" type="curve"/>
      <point x="356" y="128" type="line"/>
      <point x="398" y="63"/>
      <point x="440" y="27"/>
      <point x="508" y="27" type="curve" smooth="yes"/>
      <point x="574" y="27"/>
      <point x="628" y="78"/>
      <point x="628" y="158" type="curve" smooth="yes"/>
      <point x="628" y="246"/>
      <point x="565" y="352"/>
      <point x="419" y="434" type="curve"/>
    </contour>
  </outline>
</glyph>
<glyph name="knSHA" format="1">
  <advance width="639"/>
  <unicode hex="0CB6"/>
  <outline>
    <contour>
      <point x="84" y="443" type="move"/>
      <point x="433" y="443" type="line" smooth="yes"/>
      <point x="506" y="443"/>
      <point x="549" y="469"/>
      <point x="581" y="521" type="curve"/>
    </contour>
    <contour>
      <point x="174" y="355" type="move"/>
      <point x="194" y="400"/>
      <point x="229" y="429"/>
      <point x="269" y="429" type="curve" smooth="yes"/>
      <point x="315" y="429"/>
      <point x="357" y="394"/>
      <point x="357" y="341" type="curve" smooth="yes"/>
      <point x="357" y="286"/>
      <point x="324" y="244"/>
      <point x="251" y="236" type="curve" smooth="yes"/>
      <point x="165" y="227"/>
      <point x="137" y="213"/>
      <point x="120" y="196" type="curve" smooth="yes"/>
      <point x="105" y="181"/>
      <point x="97" y="161"/>
      <point x="97" y="136" type="curve" smooth="yes"/>
      <point x="97" y="89"/>
      <point x="140" y="33"/>
      <point x="289" y="33" type="curve" smooth="yes"/>
      <point x="391" y="33"/>
      <point x="459" y="70"/>
      <point x="485" y="96" type="curve" smooth="yes"/>
      <point x="513" y="124"/>
      <point x="533" y="161"/>
      <point x="533" y="207" type="curve" smooth="yes"/>
      <point x="533" y="288"/>
      <point x="477" y="387"/>
      <point x="350" y="443" type="curve"/>
    </contour>
  </outline>
</glyph>
<glyph name="knSSA" format="1">
  <advance width="730"/>
  <unicode hex="0CB7"/>
  <outline>
    <contour>
      <point x="503" y="194" type="move"/>
      <point x="651" y="-29" type="line"/>
    </contour>
    <component base="knPa" xOffset="5"/>
    <component base="knPA"/>
  </outline>
</glyph>
<glyph name="knSA" format="1">
  <advance width="668"/>
  <unicode hex="0CB8"/>
  <outline>
    <contour>
      <point x="83" y="443" type="move"/>
      <point x="464" y="443" type="line" smooth="yes"/>
      <point x="537" y="443"/>
      <point x="580" y="469"/>
      <point x="612" y="521" type="curve"/>
    </contour>
    <contour>
      <point x="108" y="23" type="move"/>
      <point x="108" y="93"/>
      <point x="124" y="141"/>
      <point x="150" y="167" type="curve" smooth="yes"/>
      <point x="166" y="183"/>
      <point x="190" y="195"/>
      <point x="219" y="195" type="curve" smooth="yes"/>
      <point x="256" y="195"/>
      <point x="299" y="176"/>
      <point x="337" y="124" type="curve" smooth="yes"/>
      <point x="376" y="71"/>
      <point x="406" y="33"/>
      <point x="466" y="33" type="curve" smooth="yes"/>
      <point x="530" y="33"/>
      <point x="581" y="77"/>
      <point x="581" y="178" type="curve" smooth="yes"/>
      <point x="581" y="206"/>
      <point x="575" y="244"/>
      <point x="566" y="273" type="curve"/>
    </contour>
    <contour>
      <point x="287" y="440" type="move"/>
      <point x="261" y="416"/>
      <point x="251" y="387"/>
      <point x="251" y="362" type="curve" smooth="yes"/>
      <point x="251" y="319"/>
      <point x="285" y="279"/>
      <point x="343" y="279" type="curve" smooth="yes"/>
      <point x="403" y="279"/>
      <point x="435" y="318"/>
      <point x="435" y="363" type="curve" smooth="yes"/>
      <point x="435" y="388"/>
      <point x="426" y="417"/>
      <point x="399" y="442" type="curve"/>
    </contour>
  </outline>
</glyph>
<glyph name="knHA" format="1">
  <advance width="770"/>
  <unicode hex="0CB9"/>
  <outline>
    <contour>
      <point x="372" y="160" type="curve" smooth="yes"/>
      <point x="372" y="228"/>
      <point x="316" y="290"/>
      <point x="225" y="290" type="curve" smooth="yes"/>
      <point x="141" y="290"/>
      <point x="87" y="228"/>
      <point x="87" y="160" type="curve" smooth="yes"/>
      <point x="87" y="90"/>
      <point x="140" y="29"/>
      <point x="225" y="29" type="curve" smooth="yes"/>
      <point x="314" y="29"/>
      <point x="372" y="90"/>
    </contour>
    <contour>
      <point x="683" y="160" type="curve" smooth="yes"/>
      <point x="683" y="228"/>
      <point x="631" y="290"/>
      <point x="543" y="290" type="curve" smooth="yes"/>
      <point x="457" y="290"/>
      <point x="398" y="228"/>
      <point x="398" y="160" type="curve" smooth="yes"/>
      <point x="398" y="90"/>
      <point x="458" y="29"/>
      <point x="543" y="29" type="curve" smooth="yes"/>
      <point x="632" y="29"/>
      <point x="683" y="90"/>
    </contour>
    <contour>
      <point x="104" y="443" type="move"/>
      <point x="545" y="443" type="line" smooth="yes"/>
      <point x="618" y="443"/>
      <point x="661" y="469"/>
      <point x="693" y="521" type="curve"/>
    </contour>
    <contour>
      <point x="385" y="254" type="move"/>
      <point x="385" y="415" type="line" smooth="yes"/>
    </contour>
  </outline>
</glyph>
<glyph name="knAvagraha" format="1">
  <advance width="420"/>
  <unicode hex="0CBD"/>
  <outline>
    <contour>
      <point x="119" y="59" type="move"/>
      <point x="148" y="39"/>
      <point x="188" y="23"/>
      <point x="235" y="23" type="curve" smooth="yes"/>
      <point x="305" y="23"/>
      <point x="336" y="67"/>
      <point x="336" y="112" type="curve" smooth="yes"/>
      <point x="336" y="156"/>
      <point x="298" y="196"/>
      <point x="201" y="244" type="curve" smooth="yes"/>
      <point x="129" y="280"/>
      <point x="87" y="319"/>
      <point x="87" y="362" type="curve" smooth="yes"/>
      <point x="87" y="406"/>
      <point x="118" y="443"/>
      <point x="179" y="443" type="curve" smooth="yes"/>
      <point x="340" y="443" type="line"/>
    </contour>
  </outline>
</glyph>
<glyph name="knsignAA" format="1">
  <advance width="364"/>
  <unicode hex="0CBE"/>
  <outline>
    <contour>
      <point x="-170" y="443" type="move"/>
      <point x="23" y="443" type="line" smooth="yes"/>
      <point x="169" y="443"/>
      <point x="274" y="347"/>
      <point x="274" y="177" type="curve" smooth="yes"/>
      <point x="274" y="84"/>
      <point x="227" y="29"/>
      <point x="164" y="29" type="curve" smooth="yes"/>
      <point x="108" y="29"/>
      <point x="76" y="70"/>
      <point x="75" y="116" type="curve" smooth="yes"/>
      <point x="74" y="170"/>
      <point x="111" y="216"/>
      <point x="185" y="216" type="curve" smooth="yes"/>
      <point x="214" y="216"/>
      <point x="244" y="209"/>
      <point x="269" y="201" type="curve"/>
    </contour>
  </outline>
</glyph>
<glyph name="knsignI" format="1">
  <advance width="0"/>
  <unicode hex="0CBF"/>
  <outline>
    <contour>
      <point x="-368" y="316" type="move"/>
      <point x="-250" y="316"/>
      <point x="-185" y="386"/>
      <point x="-185" y="479" type="curve" smooth="yes"/>
      <point x="-185" y="550"/>
      <point x="-237" y="621"/>
      <point x="-307" y="621" type="curve" smooth="yes"/>
      <point x="-363" y="621"/>
      <point x="-398" y="581"/>
      <point x="-398" y="536" type="curve" smooth="yes"/>
      <point x="-398" y="490"/>
      <point x="-361" y="455"/>
      <point x="-313" y="455" type="curve" smooth="yes"/>
      <point x="-267" y="455"/>
      <point x="-232" y="476"/>
      <point x="-195" y="524" type="curve"/>
    </contour>
  </outline>
</glyph>
<glyph name="knsignU" format="1">
  <advance width="316"/>
  <unicode hex="0CC1"/>
  <outline>
    <contour>
      <point x="-76" y="135" type="move"/>
      <point x="-26" y="60"/>
      <point x="26" y="33"/>
      <point x="87" y="33" type="curve" smooth="yes"/>
      <point x="179" y="33"/>
      <point x="226" y="93"/>
      <point x="226" y="179" type="curve" smooth="yes"/>
      <point x="226" y="260"/>
      <point x="180" y="356"/>
      <point x="120" y="422" type="curve"/>
    </contour>
  </outline>
</glyph>
<glyph name="knsignUU" format="1">
  <advance width="607"/>
  <unicode hex="0CC2"/>
  <outline>
    <contour>
      <point x="-76" y="135" type="move"/>
      <point x="-32" y="69"/>
      <point x="19" y="33"/>
      <point x="73" y="33" type="curve" smooth="yes"/>
      <point x="141" y="33"/>
      <point x="174" y="74"/>
      <point x="174" y="135" type="curve" smooth="yes"/>
      <point x="174" y="188"/>
      <point x="149" y="238"/>
      <point x="149" y="298" type="curve" smooth="yes"/>
      <point x="149" y="365"/>
      <point x="197" y="443"/>
      <point x="291" y="443" type="curve" smooth="yes"/>
      <point x="392" y="443"/>
      <point x="517" y="347"/>
      <point x="517" y="177" type="curve" smooth="yes"/>
      <point x="517" y="84"/>
      <point x="470" y="29"/>
      <point x="407" y="29" type="curve" smooth="yes"/>
      <point x="351" y="29"/>
      <point x="319" y="70"/>
      <point x="318" y="116" type="curve" smooth="yes"/>
      <point x="317" y="170"/>
      <point x="354" y="216"/>
      <point x="428" y="216" type="curve" smooth="yes"/>
      <point x="457" y="216"/>
      <point x="487" y="209"/>
      <point x="512" y="201" type="curve"/>
    </contour>
  </outline>
</glyph>
<glyph name="knsignvR" format="1">
  <advance width="135"/>
  <unicode hex="0CC3"/>
  <outline>
    <contour>
      <point x="-214" y="-214" type="move"/>
      <point x="-195" y="-226"/>
      <point x="-171" y="-234"/>
      <point x="-145" y="-234" type="curve" smooth="yes"/>
      <point x="-109" y="-234"/>
      <point x="-79" y="-215"/>
      <point x="-79" y="-176" type="curve" smooth="yes"/>
      <point x="-79" y="-148"/>
      <point x="-99" y="-121"/>
      <point x="-141" y="-121" type="curve" smooth="yes"/>
      <point x="-187" y="-121"/>
      <point x="-219" y="-160"/>
      <point x="-219" y="-213" type="curve" smooth="yes"/>
      <point x="-219" y="-247"/>
      <point x="-205" y="-277"/>
      <point x="-182" y="-300" type="curve" smooth="yes"/>
      <point x="-158" y="-324"/>
      <point x="-117" y="-341"/>
      <point x="-59" y="-341" type="curve" smooth="yes"/>
      <point x="-7" y="-341"/>
      <point x="34" y="-325"/>
      <point x="60" y="-299" type="curve" smooth="yes"/>
      <point x="84" y="-275"/>
      <point x="101" y="-238"/>
      <point x="101" y="-184" type="curve" smooth="yes"/>
      <point x="101" y="-127"/>
      <point x="88" y="-41"/>
      <point x="55" y="54" type="curve"/>
    </contour>
  </outline>
</glyph>
<glyph name="knsignvRR" format="1">
  <advance width="446"/>
  <unicode hex="0CC4"/>
  <outline>
    <contour>
      <point x="54" y="59" type="move"/>
      <point x="200" y="59" type="line" smooth="yes"/>
      <point x="322" y="59"/>
      <point x="376" y="3"/>
      <point x="376" y="-72" type="curve"/>
      <point x="376" y="-141"/>
      <point x="339" y="-182"/>
      <point x="291" y="-182" type="curve" smooth="yes"/>
      <point x="245" y="-182"/>
      <point x="219" y="-151"/>
      <point x="218" y="-117" type="curve" smooth="yes"/>
      <point x="218" y="-76"/>
      <point x="249" y="-38"/>
      <point x="307" y="-38" type="curve" smooth="yes"/>
      <point x="329" y="-38"/>
      <point x="353" y="-40"/>
      <point x="372" y="-47" type="curve"/>
    </contour>
    <component base="knsignvR"/>
  </outline>
</glyph>
<glyph name="knsignE" format="1">
  <advance width="20"/>
  <unicode hex="0CC6"/>
  <outline>
    <contour>
      <point x="-269" y="443" type="move"/>
      <point x="-197" y="443" type="line" smooth="yes"/>
      <point x="-80" y="443"/>
      <point x="-38" y="489"/>
      <point x="-38" y="542" type="curve" smooth="yes"/>
      <point x="-38" y="585"/>
      <point x="-72" y="622"/>
      <point x="-123" y="622" type="curve" smooth="yes"/>
      <point x="-176" y="622"/>
      <point x="-215" y="578"/>
      <point x="-215" y="518" type="curve" smooth="yes"/>
      <point x="-215" y="491"/>
      <point x="-208" y="464"/>
      <point x="-204" y="448" type="curve" smooth="yes"/>
      <point x="-204" y="448"/>
    </contour>
  </outline>
</glyph>
<glyph name="knsignAU" format="1">
  <advance width="332"/>
  <unicode hex="0CCC"/>
  <outline>
    <contour>
      <point x="-231" y="614" type="move"/>
      <point x="-7" y="614" type="line" smooth="yes"/>
      <point x="139" y="614"/>
      <point x="244" y="540"/>
      <point x="244" y="377" type="curve"/>
      <point x="244" y="288"/>
      <point x="197" y="234"/>
      <point x="134" y="234" type="curve" smooth="yes"/>
      <point x="80" y="234"/>
      <point x="46" y="272"/>
      <point x="45" y="318" type="curve" smooth="yes"/>
      <point x="44" y="372"/>
      <point x="81" y="418"/>
      <point x="155" y="418" type="curve" smooth="yes"/>
      <point x="184" y="418"/>
      <point x="214" y="411"/>
      <point x="239" y="403" type="curve"/>
    </contour>
    <contour>
      <point x="-195" y="443" type="move"/>
      <point x="-96" y="443"/>
      <point x="-35" y="499"/>
      <point x="-35" y="609" type="curve"/>
    </contour>
  </outline>
</glyph>
<glyph name="knVirama" format="1">
  <advance width="248"/>
  <unicode hex="0CCD"/>
  <outline>
    <contour>
      <point x="-218.0" y="437.0" type="move"/>
      <point x="67" y="437" type="line" smooth="yes"/>
      <point x="155" y="437"/>
      <point x="194" y="387"/>
      <point x="194" y="339" type="curve" smooth="yes"/>
      <point x="194" y="292"/>
      <point x="163" y="255"/>
      <point x="112" y="255" type="curve" smooth="yes"/>
      <point x="63" y="255"/>
      <point x="24" y="290"/>
      <point x="24" y="347" type="curve" smooth="yes"/>
      <point x="24" y="408"/>
      <point x="61" y="485"/>
      <point x="165" y="552" type="curve"/>
    </contour>
  </outline>
</glyph>
<glyph name="knLengthmark" format="1">
  <advance width="362"/>
  <unicode hex="0CD5"/>
  <outline>
    <contour>
      <point x="91" y="359" type="move"/>
      <point x="122" y="315"/>
      <point x="162" y="294"/>
      <point x="199" y="294" type="curve" smooth="yes"/>
      <point x="245" y="294"/>
      <point x="285" y="329"/>
      <point x="285" y="376" type="curve" smooth="yes"/>
      <point x="285" y="423"/>
      <point x="250" y="458"/>
      <point x="198" y="458" type="curve" smooth="yes"/>
      <point x="124" y="458"/>
      <point x="78" y="376"/>
      <point x="78" y="266" type="curve" smooth="yes"/>
      <point x="78" y="155"/>
      <point x="147" y="66"/>
      <point x="258" y="33" type="curve"/>
    </contour>
  </outline>
</glyph>
<glyph name="knAIlengthmark" format="1">
  <advance width="130"/>
  <unicode hex="0CD6"/>
  <outline>
    <contour>
      <point x="-214" y="-224" type="move"/>
      <point x="-195" y="-236"/>
      <point x="-171" y="-244"/>
      <point x="-145" y="-244" type="curve" smooth="yes"/>
      <point x="-109" y="-244"/>
      <point x="-79" y="-225"/>
      <point x="-79" y="-186" type="curve" smooth="yes"/>
      <point x="-79" y="-158"/>
      <point x="-99" y="-131"/>
      <point x="-141" y="-131" type="curve" smooth="yes"/>
      <point x="-187" y="-131"/>
      <point x="-219" y="-170"/>
      <point x="-219" y="-223" type="curve" smooth="yes"/>
      <point x="-219" y="-257"/>
      <point x="-205" y="-287"/>
      <point x="-182" y="-310" type="curve" smooth="yes"/>
      <point x="-158" y="-334"/>
      <point x="-117" y="-351"/>
      <point x="-59" y="-351" type="curve" smooth="yes"/>
      <point x="-7" y="-351"/>
      <point x="34" y="-338"/>
      <point x="60" y="-312" type="curve" smooth="yes"/>
      <point x="84" y="-288"/>
      <point x="95" y="-258"/>
      <point x="95" y="-223" type="curve" smooth="yes"/>
      <point x="95" y="-172"/>
      <point x="62" y="-118"/>
      <point x="20" y="-96" type="curve"/>
    </contour>
    <contour>
      <point x="25" y="-95" type="move"/>
      <point x="75" y="-78"/>
      <point x="93" y="-55"/>
      <point x="93" y="-22" type="curve" smooth="yes"/>
      <point x="93" y="4"/>
      <point x="76" y="29"/>
      <point x="55" y="44" type="curve"/>
    </contour>
  </outline>
</glyph>
<glyph name="knLLLA" format="1">
  <advance width="751"/>
  <unicode hex="0CDE"/>
  <outline>
    <contour>
      <point x="110" y="347" type="move"/>
      <point x="138" y="305"/>
      <point x="172" y="279"/>
      <point x="214" y="279" type="curve" smooth="yes"/>
      <point x="262" y="279"/>
      <point x="302" y="311"/>
      <point x="302" y="361" type="curve" smooth="yes"/>
      <point x="302" y="410"/>
      <point x="269" y="445"/>
      <point x="214" y="445" type="curve" smooth="yes"/>
      <point x="145" y="445"/>
      <point x="84" y="358"/>
      <point x="84" y="235" type="curve"/>
      <point x="84" y="119"/>
      <point x="146" y="33"/>
      <point x="231" y="33" type="curve" smooth="yes"/>
      <point x="296" y="33"/>
      <point x="336" y="65"/>
      <point x="373" y="134" type="curve"/>
      <point x="378" y="134" type="line"/>
      <point x="415" y="65"/>
      <point x="455" y="33"/>
      <point x="520" y="33" type="curve" smooth="yes"/>
      <point x="605" y="33"/>
      <point x="667" y="119"/>
      <point x="667" y="235" type="curve"/>
      <point x="667" y="358"/>
      <point x="606" y="445"/>
      <point x="537" y="445" type="curve" smooth="yes"/>
      <point x="482" y="445"/>
      <point x="449" y="410"/>
      <point x="449" y="361" type="curve" smooth="yes"/>
      <point x="449" y="311"/>
      <point x="489" y="279"/>
      <point x="537" y="279" type="curve" smooth="yes"/>
      <point x="579" y="279"/>
      <point x="613" y="305"/>
      <point x="641" y="347" type="curve"/>
    </contour>
  </outline>
</glyph>
<glyph name="knvRR" format="1">
  <advance width="1362"/>
  <unicode hex="0CE0"/>
  <outline>
    <contour>
      <point x="484" y="443" type="move"/>
      <point x="566" y="443" type="line" smooth="yes"/>
      <point x="639" y="443"/>
      <point x="682" y="469"/>
      <point x="714" y="521" type="curve"/>
    </contour>
    <component base="knKHA"/>
    <component base="knsignUU" xOffset="765"/>
  </outline>
</glyph>
<glyph name="knvLL" format="1">
  <advance width="1226"/>
  <unicode hex="0CE1"/>
  <outline>
    <contour>
      <point x="752" y="443" type="move"/>
      <point x="885" y="443" type="line" smooth="yes"/>
      <point x="1031" y="443"/>
      <point x="1136" y="347"/>
      <point x="1136" y="177" type="curve" smooth="yes"/>
      <point x="1136" y="84"/>
      <point x="1089" y="29"/>
      <point x="1026" y="29" type="curve" smooth="yes"/>
      <point x="970" y="29"/>
      <point x="938" y="70"/>
      <point x="937" y="116" type="curve" smooth="yes"/>
      <point x="936" y="170"/>
      <point x="973" y="216"/>
      <point x="1047" y="216" type="curve" smooth="yes"/>
      <point x="1076" y="216"/>
      <point x="1106" y="209"/>
      <point x="1131" y="201" type="curve"/>
    </contour>
    <component base="knvL"/>
  </outline>
</glyph>
<glyph name="knsignvL" format="1">
  <advance width="0"/>
  <unicode hex="0CE2"/>
  <outline>
    <contour>
      <point x="-247" y="-230" type="move"/>
      <point x="-259" y="-213"/>
      <point x="-263" y="-198"/>
      <point x="-263" y="-180" type="curve" smooth="yes"/>
      <point x="-263" y="-145"/>
      <point x="-237" y="-112"/>
      <point x="-189" y="-112" type="curve" smooth="yes"/>
      <point x="-145" y="-112"/>
      <point x="-113" y="-143"/>
      <point x="-87" y="-184" type="curve"/>
      <point x="-83" y="-184" type="line"/>
      <point x="-56" y="-143"/>
      <point x="-22" y="-114"/>
      <point x="22" y="-114" type="curve" smooth="yes"/>
      <point x="66" y="-114"/>
      <point x="94" y="-145"/>
      <point x="94" y="-178" type="curve" smooth="yes"/>
      <point x="94" y="-197"/>
      <point x="83" y="-214"/>
      <point x="69" y="-228" type="curve" smooth="yes"/>
      <point x="61" y="-236"/>
      <point x="40" y="-249"/>
      <point x="12" y="-265" type="curve" smooth="yes"/>
      <point x="-23" y="-284"/>
      <point x="-34" y="-298"/>
      <point x="-34" y="-319" type="curve" smooth="yes"/>
      <point x="-34" y="-330"/>
      <point x="-29" y="-342"/>
      <point x="-20" y="-350" type="curve"/>
      <point x="-7" y="-363"/>
      <point x="19" y="-374"/>
      <point x="75" y="-374" type="curve" smooth="yes"/>
      <point x="124" y="-374"/>
      <point x="158" y="-360"/>
      <point x="176" y="-343" type="curve" smooth="yes"/>
      <point x="200" y="-321"/>
      <point x="211" y="-288"/>
      <point x="211" y="-258" type="curve" smooth="yes"/>
      <point x="211" y="-210"/>
      <point x="199" y="-162"/>
      <point x="182" y="-117" type="curve"/>
    </contour>
  </outline>
</glyph>
<glyph name="knsignvLL" format="1">
  <advance width="0"/>
  <unicode hex="0CE3"/>
  <outline>
    <contour>
      <point x="186" y="-110" type="move"/>
      <point x="267" y="-110" type="line" smooth="yes"/>
      <point x="369" y="-110"/>
      <point x="442" y="-171"/>
      <point x="442" y="-278" type="curve" smooth="yes"/>
      <point x="442" y="-337"/>
      <point x="410" y="-371"/>
      <point x="366" y="-371" type="curve" smooth="yes"/>
      <point x="324" y="-371"/>
      <point x="301" y="-345"/>
      <point x="301" y="-316" type="curve" smooth="yes"/>
      <point x="300" y="-282"/>
      <point x="329" y="-249"/>
      <point x="380" y="-249" type="curve" smooth="yes"/>
      <point x="400" y="-249"/>
      <point x="421" y="-252"/>
      <point x="439" y="-257" type="curve"/>
    </contour>
    <contour>
      <point x="-249" y="-223" type="move"/>
      <point x="-260" y="-207"/>
      <point x="-265" y="-192"/>
      <point x="-265" y="-173" type="curve" smooth="yes"/>
      <point x="-265" y="-138"/>
      <point x="-239" y="-106"/>
      <point x="-190" y="-106" type="curve" smooth="yes"/>
      <point x="-147" y="-106"/>
      <point x="-114" y="-136"/>
      <point x="-88" y="-178" type="curve"/>
      <point x="-84" y="-178" type="line"/>
      <point x="-57" y="-135"/>
      <point x="-24" y="-107"/>
      <point x="22" y="-107" type="curve" smooth="yes"/>
      <point x="66" y="-107"/>
      <point x="93" y="-138"/>
      <point x="93" y="-171" type="curve" smooth="yes"/>
      <point x="93" y="-190"/>
      <point x="83" y="-209"/>
      <point x="69" y="-221" type="curve" smooth="yes"/>
      <point x="59" y="-230"/>
      <point x="38" y="-244"/>
      <point x="10" y="-259" type="curve" smooth="yes"/>
      <point x="-25" y="-277"/>
      <point x="-36" y="-293"/>
      <point x="-36" y="-313" type="curve" smooth="yes"/>
      <point x="-36" y="-324"/>
      <point x="-30" y="-336"/>
      <point x="-20" y="-345" type="curve"/>
      <point x="-7" y="-356"/>
      <point x="18" y="-369"/>
      <point x="75" y="-369" type="curve" smooth="yes"/>
      <point x="123" y="-369"/>
      <point x="156" y="-354"/>
      <point x="176" y="-337" type="curve" smooth="yes"/>
      <point x="200" y="-315"/>
      <point x="211" y="-283"/>
      <point x="211" y="-252" type="curve" smooth="yes"/>
      <point x="211" y="-204"/>
      <point x="199" y="-156"/>
      <point x="182" y="-110" type="curve"/>
    </contour>
  </outline>
</glyph>
<glyph name="knZero" format="1">
  <advance width="596"/>
  <unicode hex="0CE6"/>
  <outline>
    <contour>
      <point x="295" y="458" type="curve" smooth="yes"/>
      <point x="177" y="458"/>
      <point x="95" y="368"/>
      <point x="95" y="241" type="curve" smooth="yes"/>
      <point x="95" y="124"/>
      <point x="179" y="26"/>
      <point x="295" y="26" type="curve" smooth="yes"/>
      <point x="421" y="26"/>
      <point x="492" y="124"/>
      <point x="492" y="243" type="curve" smooth="yes"/>
      <point x="492" y="368"/>
      <point x="404" y="458"/>
    </contour>
  </outline>
</glyph>
<glyph name="knOne" format="1">
  <advance width="596"/>
  <unicode hex="0CE7"/>
  <outline>
    <contour>
      <point x="419" y="30" type="move"/>
      <point x="460" y="86"/>
      <point x="490" y="155"/>
      <point x="490" y="237" type="curve" smooth="yes"/>
      <point x="490" y="363"/>
      <point x="404" y="452"/>
      <point x="295" y="452" type="curve" smooth="yes"/>
      <point x="177" y="452"/>
      <point x="97" y="363"/>
      <point x="97" y="236" type="curve" smooth="yes"/>
      <point x="97" y="154"/>
      <point x="133" y="86"/>
      <point x="176" y="29" type="curve"/>
    </contour>
  </outline>
</glyph>
<glyph name="knTwo" format="1">
  <advance width="551"/>
  <unicode hex="0CE8"/>
  <outline>
    <contour>
      <point x="66" y="27" type="move"/>
      <point x="190" y="27" type="line" smooth="yes"/>
      <point x="348" y="27"/>
      <point x="450" y="119"/>
      <point x="450" y="253" type="curve" smooth="yes"/>
      <point x="450" y="388"/>
      <point x="364" y="452"/>
      <point x="283" y="452" type="curve" smooth="yes"/>
      <point x="216" y="452"/>
      <point x="180" y="407"/>
      <point x="180" y="357" type="curve" smooth="yes"/>
      <point x="180" y="305"/>
      <point x="224" y="270"/>
      <point x="283" y="270" type="curve" smooth="yes"/>
      <point x="343" y="270"/>
      <point x="387" y="303"/>
      <point x="419" y="367" type="curve"/>
    </contour>
  </outline>
</glyph>
<glyph name="knThree" format="1">
  <advance width="670"/>
  <unicode hex="0CE9"/>
  <outline>
    <contour>
      <point x="294" y="430" type="move"/>
      <point x="300" y="417"/>
      <point x="304" y="402"/>
      <point x="304" y="385" type="curve" smooth="yes"/>
      <point x="304" y="325"/>
      <point x="265" y="288"/>
      <point x="205" y="288" type="curve" smooth="yes"/>
      <point x="152" y="288"/>
      <point x="115" y="322"/>
      <point x="115" y="365" type="curve" smooth="yes"/>
      <point x="115" y="404"/>
      <point x="146" y="447"/>
      <point x="212" y="447" type="curve" smooth="yes"/>
      <point x="337" y="447"/>
      <point x="403" y="353"/>
      <point x="403" y="238" type="curve" smooth="yes"/>
      <point x="403" y="141"/>
      <point x="346" y="19"/>
      <point x="212" y="19" type="curve" smooth="yes"/>
      <point x="134" y="19"/>
      <point x="104" y="59"/>
      <point x="104" y="97" type="curve" smooth="yes"/>
      <point x="104" y="132"/>
      <point x="138" y="175"/>
      <point x="201" y="175" type="curve" smooth="yes"/>
      <point x="266" y="175"/>
      <point x="318" y="142"/>
      <point x="373" y="96" type="curve" smooth="yes"/>
      <point x="433" y="45"/>
      <point x="468" y="23"/>
      <point x="512" y="23" type="curve" smooth="yes"/>
      <point x="562" y="23"/>
      <point x="591" y="50"/>
      <point x="610" y="88" type="curve"/>
    </contour>
  </outline>
</glyph>
<glyph name="knFour" format="1">
  <advance width="672"/>
  <unicode hex="0CEA"/>
  <outline>
    <contour>
      <point x="97" y="328" type="move"/>
      <point x="127" y="313"/>
      <point x="161" y="304"/>
      <point x="199" y="304" type="curve" smooth="yes"/>
      <point x="259" y="304"/>
      <point x="293" y="337"/>
      <point x="293" y="381" type="curve" smooth="yes"/>
      <point x="293" y="423"/>
      <point x="260" y="458"/>
      <point x="205" y="458" type="curve" smooth="yes"/>
      <point x="143" y="458"/>
      <point x="96" y="403"/>
      <point x="96" y="339" type="curve" smooth="yes"/>
      <point x="96" y="302"/>
      <point x="105" y="262"/>
      <point x="128" y="239" type="curve" smooth="yes"/>
      <point x="168" y="199"/>
      <point x="223" y="174"/>
      <point x="357" y="174" type="curve" smooth="yes"/>
      <point x="448" y="174"/>
      <point x="509" y="198"/>
      <point x="541" y="229" type="curve" smooth="yes"/>
      <point x="567" y="254"/>
      <point x="580" y="284"/>
      <point x="580" y="320" type="curve" smooth="yes"/>
      <point x="580" y="370"/>
      <point x="546" y="411"/>
      <point x="488" y="443" type="curve"/>
    </contour>
    <contour>
      <point x="349" y="172" type="curve" smooth="yes"/>
      <point x="271" y="171"/>
      <point x="240" y="134"/>
      <point x="240" y="95" type="curve" smooth="yes"/>
      <point x="240" y="56"/>
      <point x="276" y="17"/>
      <point x="349" y="17" type="curve" smooth="yes"/>
      <point x="425" y="17"/>
      <point x="459" y="56"/>
      <point x="459" y="94" type="curve" smooth="yes"/>
      <point x="459" y="134"/>
      <point x="432" y="173"/>
    </contour>
  </outline>
</glyph>
<glyph name="knFive" format="1">
  <advance width="756"/>
  <unicode hex="0CEB"/>
  <outline>
    <contour>
      <point x="598" y="33" type="move"/>
      <point x="514" y="91"/>
      <point x="474" y="174"/>
      <point x="474" y="253" type="curve" smooth="yes"/>
      <point x="474" y="327"/>
      <point x="484" y="374"/>
      <point x="506" y="409" type="curve" smooth="yes"/>
      <point x="526" y="440"/>
      <point x="554" y="458"/>
      <point x="589" y="458" type="curve" smooth="yes"/>
      <point x="635" y="458"/>
      <point x="668" y="421"/>
      <point x="668" y="376" type="curve" smooth="yes"/>
      <point x="668" y="347"/>
      <point x="657" y="316"/>
      <point x="630" y="289" type="curve" smooth="yes"/>
      <point x="591" y="250"/>
      <point x="540" y="232"/>
      <point x="379" y="232" type="curve" smooth="yes"/>
      <point x="223" y="232"/>
      <point x="170" y="209"/>
      <point x="138" y="177" type="curve" smooth="yes"/>
      <point x="117" y="156"/>
      <point x="107" y="126"/>
      <point x="107" y="101" type="curve" smooth="yes"/>
      <point x="107" y="59"/>
      <point x="139" y="23"/>
      <point x="189" y="23" type="curve" smooth="yes"/>
      <point x="222" y="23"/>
      <point x="246" y="33"/>
      <point x="267" y="54" type="curve" smooth="yes"/>
      <point x="299" y="86"/>
      <point x="314" y="141"/>
      <point x="314" y="243" type="curve" smooth="yes"/>
      <point x="314" y="313"/>
      <point x="299" y="380"/>
      <point x="270" y="418" type="curve" smooth="yes"/>
      <point x="251" y="442"/>
      <point x="222" y="458"/>
      <point x="189" y="458" type="curve" smooth="yes"/>
      <point x="145" y="458"/>
      <point x="108" y="423"/>
      <point x="108" y="380" type="curve" smooth="yes"/>
      <point x="108" y="353"/>
      <point x="118" y="334"/>
      <point x="131" y="315" type="curve"/>
    </contour>
  </outline>
</glyph>
<glyph name="knSix" format="1">
  <advance width="551"/>
  <unicode hex="0CEC"/>
  <outline>
    <contour>
      <point x="485" y="27" type="move"/>
      <point x="361" y="27" type="line" smooth="yes"/>
      <point x="194" y="27"/>
      <point x="101" y="113"/>
      <point x="101" y="225" type="curve" smooth="yes"/>
      <point x="101" y="343"/>
      <point x="194" y="410"/>
      <point x="279" y="410" type="curve" smooth="yes"/>
      <point x="342" y="410"/>
      <point x="382" y="368"/>
      <point x="382" y="316" type="curve" smooth="yes"/>
      <point x="382" y="271"/>
      <point x="341" y="233"/>
      <point x="295" y="233" type="curve" smooth="yes"/>
      <point x="237" y="233"/>
      <point x="186" y="273"/>
      <point x="186" y="348" type="curve" smooth="yes"/>
      <point x="186" y="398"/>
      <point x="196" y="470"/>
      <point x="216" y="529" type="curve"/>
    </contour>
  </outline>
</glyph>
<glyph name="knSeven" format="1">
  <advance width="593"/>
  <unicode hex="0CED"/>
  <outline>
    <contour>
      <point x="177" y="401" type="move"/>
      <point x="204" y="435"/>
      <point x="237" y="457"/>
      <point x="277" y="457" type="curve" smooth="yes"/>
      <point x="337" y="457"/>
      <point x="378" y="417"/>
      <point x="378" y="366" type="curve" smooth="yes"/>
      <point x="378" y="311"/>
      <point x="336" y="274"/>
      <point x="231" y="230" type="curve" smooth="yes"/>
      <point x="129" y="187"/>
      <point x="103" y="149"/>
      <point x="103" y="110" type="curve" smooth="yes"/>
      <point x="103" y="66"/>
      <point x="135" y="33"/>
      <point x="200" y="33" type="curve" smooth="yes"/>
      <point x="515" y="33" type="line"/>
    </contour>
  </outline>
</glyph>
<glyph name="knEight" format="1">
  <advance width="651"/>
  <unicode hex="0CEE"/>
  <outline>
    <contour>
      <point x="107" y="349" type="move"/>
      <point x="139" y="311"/>
      <point x="179" y="286"/>
      <point x="221" y="286" type="curve" smooth="yes"/>
      <point x="272" y="286"/>
      <point x="311" y="319"/>
      <point x="311" y="369" type="curve" smooth="yes"/>
      <point x="311" y="418"/>
      <point x="277" y="458"/>
      <point x="219" y="458" type="curve" smooth="yes"/>
      <point x="147" y="458"/>
      <point x="89" y="369"/>
      <point x="90" y="259" type="curve" smooth="yes"/>
      <point x="91" y="136"/>
      <point x="186" y="33"/>
      <point x="339" y="33" type="curve" smooth="yes"/>
      <point x="464" y="33"/>
      <point x="514" y="113"/>
      <point x="514" y="181" type="curve" smooth="yes"/>
      <point x="514" y="213"/>
      <point x="505" y="242"/>
      <point x="486" y="281" type="curve" smooth="yes"/>
      <point x="470" y="314"/>
      <point x="456" y="342"/>
      <point x="456" y="371" type="curve" smooth="yes"/>
      <point x="456" y="408"/>
      <point x="480" y="443"/>
      <point x="530" y="443" type="curve" smooth="yes"/>
      <point x="559" y="443" type="line"/>
    </contour>
  </outline>
</glyph>
<glyph name="knNine" format="1">
  <advance width="584"/>
  <unicode hex="0CEF"/>
  <outline>
    <contour>
      <point x="510" y="443" type="move"/>
      <point x="260" y="443" type="line" smooth="yes"/>
      <point x="140" y="443"/>
      <point x="98" y="381"/>
      <point x="98" y="317" type="curve" smooth="yes"/>
      <point x="98" y="226"/>
      <point x="186" y="154"/>
      <point x="301" y="154" type="curve" smooth="yes"/>
      <point x="376" y="154"/>
      <point x="408" y="196"/>
      <point x="408" y="233" type="curve" smooth="yes"/>
      <point x="408" y="267"/>
      <point x="383" y="308"/>
      <point x="320" y="308" type="curve" smooth="yes"/>
      <point x="244" y="308"/>
      <point x="199" y="242"/>
      <point x="199" y="183" type="curve" smooth="yes"/>
      <point x="199" y="116"/>
      <point x="225" y="69"/>
      <point x="299" y="17" type="curve"/>
    </contour>
  </outline>
</glyph>
<glyph name="knUpadhmaniya" format="1">
  <advance width="628"/>
  <unicode hex="0CF2"/>
  <outline>
    <contour>
      <point x="160" y="305" type="curve" smooth="yes"/>
      <point x="111" y="305"/>
      <point x="76" y="264"/>
      <point x="76" y="224" type="curve" smooth="yes"/>
      <point x="76" y="179"/>
      <point x="109" y="143"/>
      <point x="160" y="143" type="curve" smooth="yes"/>
      <point x="211" y="143"/>
      <point x="244" y="179"/>
      <point x="244" y="224" type="curve" smooth="yes"/>
      <point x="244" y="265"/>
      <point x="211" y="305"/>
    </contour>
    <contour>
      <point x="468" y="304" type="curve" smooth="yes"/>
      <point x="419" y="304"/>
      <point x="384" y="263"/>
      <point x="384" y="223" type="curve" smooth="yes"/>
      <point x="384" y="179"/>
      <point x="417" y="142"/>
      <point x="468" y="142" type="curve" smooth="yes"/>
      <point x="519" y="142"/>
      <point x="552" y="179"/>
      <point x="552" y="222" type="curve" smooth="yes"/>
      <point x="552" y="264"/>
      <point x="519" y="304"/>
    </contour>
  </outline>
</glyph>
<glyph name="quoteleft" format="1">
  <advance width="245"/>
  <unicode hex="2018"/>
  <outline>
    <contour>
      <point x="156" y="402" type="move" smooth="yes"/>
      <point x="130" y="437"/>
      <point x="115" y="483"/>
      <point x="115" y="529" type="curve" smooth="yes"/>
      <point x="115" y="548"/>
      <point x="117" y="566"/>
      <point x="121" y="578" type="curve"/>
    </contour>
  </outline>
</glyph>
<glyph name="quoteright" format="1">
  <advance width="245"/>
  <unicode hex="2019"/>
  <outline>
    <contour>
      <point x="124" y="578" type="move"/>
      <point x="128" y="566"/>
      <point x="130" y="548"/>
      <point x="130" y="529" type="curve" smooth="yes"/>
      <point x="130" y="483"/>
      <point x="115" y="437"/>
      <point x="89" y="402" type="curve"/>
    </contour>
  </outline>
</glyph>
<glyph name="quotesinglbase" format="1">
  <advance width="255"/>
  <unicode hex="201A"/>
  <outline>
    <contour>
      <point x="124" y="85" type="move"/>
      <point x="128" y="73"/>
      <point x="130" y="55"/>
      <point x="130" y="36" type="curve" smooth="yes"/>
      <point x="130" y="-10"/>
      <point x="115" y="-56"/>
      <point x="89" y="-91" type="curve" smooth="yes"/>
    </contour>
  </outline>
</glyph>
<glyph name="quotedblleft" format="1">
  <advance width="406"/>
  <unicode hex="201C"/>
  <outline>
    <contour>
      <point x="157" y="402" type="move" smooth="yes"/>
      <point x="131" y="436"/>
      <point x="115" y="481"/>
      <point x="115" y="520" type="curve" smooth="yes"/>
      <point x="115" y="544"/>
      <point x="117" y="561"/>
      <point x="121" y="577" type="curve"/>
    </contour>
    <contour>
      <point x="317" y="402" type="move" smooth="yes"/>
      <point x="291" y="436"/>
      <point x="275" y="481"/>
      <point x="275" y="520" type="curve" smooth="yes"/>
      <point x="275" y="544"/>
      <point x="277" y="561"/>
      <point x="281" y="577" type="curve"/>
    </contour>
  </outline>
</glyph>
<glyph name="quotedblright" format="1">
  <advance width="406"/>
  <unicode hex="201D"/>
  <outline>
    <contour>
      <point x="285" y="577" type="move"/>
      <point x="289" y="561"/>
      <point x="291" y="544"/>
      <point x="291" y="520" type="curve" smooth="yes"/>
      <point x="291" y="481"/>
      <point x="275" y="436"/>
      <point x="249" y="402" type="curve" smooth="yes"/>
    </contour>
    <contour>
      <point x="125" y="577" type="move"/>
      <point x="129" y="561"/>
      <point x="131" y="544"/>
      <point x="131" y="520" type="curve" smooth="yes"/>
      <point x="131" y="481"/>
      <point x="115" y="436"/>
      <point x="89" y="402" type="curve" smooth="yes"/>
    </contour>
  </outline>
</glyph>
<glyph name="dagger" format="1">
  <advance width="502"/>
  <unicode hex="2020"/>
  <outline>
    <contour>
      <point x="251" y="518" type="move"/>
      <point x="251" y="33" type="line"/>
    </contour>
    <contour>
      <point x="100" y="390" type="move"/>
      <point x="402" y="390" type="line"/>
    </contour>
  </outline>
</glyph>
<glyph name="bullet" format="1">
  <advance width="521"/>
  <unicode hex="2022"/>
  <outline>
    <contour>
      <point x="260" y="350" type="curve" smooth="yes"/>
      <point x="198" y="350"/>
      <point x="155" y="298"/>
      <point x="155" y="247" type="curve" smooth="yes"/>
      <point x="155" y="189"/>
      <point x="201" y="144"/>
      <point x="260" y="144" type="curve" smooth="yes"/>
      <point x="322" y="144"/>
      <point x="365" y="190"/>
      <point x="365" y="246" type="curve" smooth="yes"/>
      <point x="365" y="298"/>
      <point x="326" y="350"/>
    </contour>
    <contour>
      <point x="261" y="291" type="curve" smooth="yes"/>
      <point x="235" y="291"/>
      <point x="216" y="270"/>
      <point x="216" y="249" type="curve" smooth="yes"/>
      <point x="216" y="223"/>
      <point x="236" y="204"/>
      <point x="261" y="204" type="curve" smooth="yes"/>
      <point x="286" y="204"/>
      <point x="305" y="223"/>
      <point x="305" y="247" type="curve" smooth="yes"/>
      <point x="305" y="270"/>
      <point x="290" y="291"/>
    </contour>
  </outline>
</glyph>
<glyph name="perthousand" format="1">
  <advance width="1133"/>
  <unicode hex="2030"/>
  <outline>
    <contour>
      <point x="931" y="295" type="curve" smooth="yes"/>
      <point x="867" y="295"/>
      <point x="822" y="238"/>
      <point x="822" y="158" type="curve" smooth="yes"/>
      <point x="822" y="85"/>
      <point x="868" y="23"/>
      <point x="931" y="23" type="curve" smooth="yes"/>
      <point x="1000" y="23"/>
      <point x="1039" y="85"/>
      <point x="1039" y="159" type="curve" smooth="yes"/>
      <point x="1039" y="238"/>
      <point x="991" y="295"/>
    </contour>
    <component base="percent"/>
  </outline>
</glyph>
<glyph name="guilsinglleft" format="1">
  <advance width="278"/>
  <unicode hex="2039"/>
  <outline>
    <contour>
      <point x="76" y="199" type="move"/>
      <point x="187" y="49" type="line"/>
    </contour>
    <contour>
      <point x="187" y="354" type="move"/>
      <point x="76" y="204" type="line"/>
    </contour>
  </outline>
</glyph>
<glyph name="guilsinglright" format="1">
  <advance width="278"/>
  <unicode hex="203A"/>
  <outline>
    <contour>
      <point x="91" y="49" type="move"/>
      <point x="202" y="199" type="line"/>
    </contour>
    <contour>
      <point x="202" y="204" type="move"/>
      <point x="91" y="354" type="line"/>
    </contour>
  </outline>
</glyph>
<glyph name="Euro" format="1">
  <advance width="605"/>
  <unicode hex="20AC"/>
  <outline>
    <contour>
      <point x="80" y="348" type="move"/>
      <point x="428" y="348" type="line"/>
    </contour>
    <contour>
      <point x="80" y="198" type="move"/>
      <point x="428" y="198" type="line"/>
    </contour>
    <contour>
      <point x="513" y="498" type="move"/>
      <point x="482" y="516"/>
      <point x="435" y="527"/>
      <point x="385" y="527" type="curve" smooth="yes"/>
      <point x="250" y="527"/>
      <point x="152" y="425"/>
      <point x="152" y="272" type="curve" smooth="yes"/>
      <point x="152" y="132"/>
      <point x="229" y="24"/>
      <point x="390" y="24" type="curve" smooth="yes"/>
      <point x="439" y="24"/>
      <point x="483" y="35"/>
      <point x="517" y="54" type="curve"/>
    </contour>
  </outline>
</glyph>
<glyph name="indianrupee" format="1">
  <advance width="592"/>
  <unicode hex="20B9"/>
  <outline>
    <contour>
      <point x="147" y="222" type="move"/>
      <point x="285" y="222"/>
      <point x="355" y="290"/>
      <point x="355" y="371" type="curve" smooth="yes"/>
      <point x="355" y="458"/>
      <point x="272" y="518"/>
      <point x="147" y="518" type="curve" smooth="yes"/>
      <point x="111" y="518" type="line"/>
    </contour>
    <contour>
      <point x="146" y="217" type="move"/>
      <point x="390" y="33" type="line"/>
    </contour>
    <contour>
      <point x="111" y="371" type="move"/>
      <point x="472" y="371" type="line"/>
    </contour>
    <contour>
      <point x="158" y="518" type="move"/>
      <point x="472" y="518" type="line"/>
    </contour>
  </outline>
</glyph>
<glyph name="uni20BA" format="1">
  <advance width="505"/>
  <unicode hex="20BA"/>
  <outline>
    <contour>
      <point x="146" y="512" type="move"/>
      <point x="146" y="27" type="line"/>
    </contour>
    <contour>
      <point x="154" y="27" type="move"/>
      <point x="262" y="24" type="line" smooth="yes"/>
      <point x="360" y="27"/>
      <point x="424" y="78"/>
      <point x="434" y="171" type="curve"/>
    </contour>
    <contour>
      <point x="303" y="431" type="move"/>
      <point x="67" y="341" type="line"/>
    </contour>
    <contour>
      <point x="303" y="272" type="move"/>
      <point x="67" y="182" type="line"/>
    </contour>
  </outline>
</glyph>
<glyph name="uni20BD" format="1">
  <advance width="532"/>
  <unicode hex="20BD"/>
  <outline>
    <contour>
      <point x="65" y="272" type="move"/>
      <point x="293" y="272" type="line" smooth="yes"/>
      <point x="404" y="272"/>
      <point x="452" y="328"/>
      <point x="452" y="395" type="curve" smooth="yes"/>
      <point x="452" y="468"/>
      <point x="392" y="518"/>
      <point x="293" y="518" type="curve" smooth="yes"/>
      <point x="158" y="518" type="line"/>
      <point x="158" y="33" type="line"/>
    </contour>
    <contour>
      <point x="64" y="123" type="move"/>
      <point x="326" y="123" type="line"/>
    </contour>
  </outline>
</glyph>
<glyph name="trademark" format="1">
  <advance width="758"/>
  <unicode hex="2122"/>
  <outline>
    <contour>
      <point x="165" y="543" type="move"/>
      <point x="165" y="302" type="line"/>
    </contour>
    <contour>
      <point x="60" y="543" type="move"/>
      <point x="272" y="543" type="line"/>
    </contour>
    <contour>
      <point x="405" y="547" type="move"/>
      <point x="393" y="476"/>
      <point x="377" y="359"/>
      <point x="371" y="301" type="curve"/>
    </contour>
    <contour>
      <point x="640" y="548" type="move"/>
      <point x="656" y="470"/>
      <point x="668" y="368"/>
      <point x="677" y="301" type="curve"/>
    </contour>
    <contour>
      <point x="415" y="541" type="move"/>
      <point x="445" y="478"/>
      <point x="492" y="380"/>
      <point x="525" y="311" type="curve"/>
    </contour>
    <contour>
      <point x="527" y="317" type="move"/>
      <point x="556" y="384"/>
      <point x="596" y="471"/>
      <point x="633" y="544" type="curve"/>
    </contour>
  </outline>
</glyph>
<glyph name="partialdiff" format="1">
  <advance width="566"/>
  <unicode hex="2202"/>
  <outline>
    <contour>
      <point x="218" y="477" type="move"/>
      <point x="246" y="504"/>
      <point x="285" y="522"/>
      <point x="322" y="522" type="curve" smooth="yes"/>
      <point x="354" y="522"/>
      <point x="386" y="509"/>
      <point x="409" y="486" type="curve" smooth="yes"/>
      <point x="440" y="455"/>
      <point x="454" y="387"/>
      <point x="454" y="319" type="curve" smooth="yes"/>
      <point x="454" y="221"/>
      <point x="421" y="122"/>
      <point x="380" y="81" type="curve" smooth="yes"/>
      <point x="347" y="48"/>
      <point x="305" y="30"/>
      <point x="262" y="30" type="curve" smooth="yes"/>
      <point x="181" y="30"/>
      <point x="125" y="88"/>
      <point x="125" y="159" type="curve" smooth="yes"/>
      <point x="125" y="245"/>
      <point x="191" y="317"/>
      <point x="307" y="317" type="curve" smooth="yes"/>
      <point x="345" y="317"/>
      <point x="392" y="310"/>
      <point x="441" y="299" type="curve"/>
    </contour>
  </outline>
</glyph>
<glyph name="radical" format="1">
  <advance width="547"/>
  <unicode hex="221A"/>
  <outline>
    <contour>
      <point x="139" y="325" type="move"/>
      <point x="178" y="236"/>
      <point x="240" y="103"/>
      <point x="278" y="29" type="curve"/>
    </contour>
    <contour>
      <point x="281" y="23" type="move"/>
      <point x="327" y="150"/>
      <point x="424" y="443"/>
      <point x="467" y="607" type="curve"/>
    </contour>
    <contour>
      <point x="134" y="336" type="move"/>
      <point x="68" y="316" type="line"/>
    </contour>
  </outline>
</glyph>
<glyph name="infinity" format="1">
  <advance width="722"/>
  <unicode hex="221E"/>
  <outline>
    <contour>
      <point x="370" y="267" type="curve" smooth="yes"/>
      <point x="307" y="356"/>
      <point x="267" y="404"/>
      <point x="202" y="404" type="curve" smooth="yes"/>
      <point x="144" y="404"/>
      <point x="92" y="358"/>
      <point x="92" y="279" type="curve" smooth="yes"/>
      <point x="92" y="204"/>
      <point x="142" y="156"/>
      <point x="207" y="156" type="curve" smooth="yes"/>
      <point x="269" y="156"/>
      <point x="319" y="201"/>
      <point x="360" y="272" type="curve" smooth="yes"/>
      <point x="403" y="347"/>
      <point x="447" y="403"/>
      <point x="513" y="403" type="curve" smooth="yes"/>
      <point x="568" y="403"/>
      <point x="630" y="358"/>
      <point x="630" y="277" type="curve" smooth="yes"/>
      <point x="630" y="201"/>
      <point x="579" y="155"/>
      <point x="518" y="155" type="curve" smooth="yes"/>
      <point x="462" y="155"/>
      <point x="419" y="197"/>
    </contour>
  </outline>
</glyph>
<glyph name="integral" format="1">
  <advance width="328"/>
  <unicode hex="222B"/>
  <outline>
    <contour>
      <point x="275" y="570" type="move"/>
      <point x="171" y="564"/>
      <point x="139" y="518"/>
      <point x="139" y="448" type="curve" smooth="yes"/>
      <point x="139" y="33" type="line"/>
    </contour>
    <contour>
      <point x="3" y="-147" type="move"/>
      <point x="107" y="-141"/>
      <point x="139" y="-95"/>
      <point x="139" y="-25" type="curve" smooth="yes"/>
      <point x="139" y="390" type="line"/>
    </contour>
  </outline>
</glyph>
<glyph name="approxequal" format="1">
  <advance width="540"/>
  <unicode hex="2248"/>
  <outline>
    <contour>
      <point x="74" y="332" type="move"/>
      <point x="109" y="387"/>
      <point x="143" y="414"/>
      <point x="182" y="414" type="curve" smooth="yes"/>
      <point x="218" y="414"/>
      <point x="242" y="397"/>
      <point x="271" y="371" type="curve" smooth="yes"/>
      <point x="303" y="344"/>
      <point x="329" y="325"/>
      <point x="362" y="325" type="curve" smooth="yes"/>
      <point x="406" y="325"/>
      <point x="438" y="353"/>
      <point x="477" y="411" type="curve"/>
    </contour>
    <contour>
      <point x="74" y="131" type="move"/>
      <point x="109" y="186"/>
      <point x="139" y="217"/>
      <point x="182" y="217" type="curve" smooth="yes"/>
      <point x="213" y="217"/>
      <point x="241" y="195"/>
      <point x="271" y="172" type="curve" smooth="yes"/>
      <point x="304" y="146"/>
      <point x="329" y="127"/>
      <point x="363" y="127" type="curve" smooth="yes"/>
      <point x="406" y="127"/>
      <point x="438" y="152"/>
      <point x="477" y="211" type="curve"/>
    </contour>
  </outline>
</glyph>
<glyph name="notequal" format="1">
  <advance width="540"/>
  <unicode hex="2260"/>
  <outline>
    <contour>
      <point x="358" y="498" type="move"/>
      <point x="188" y="43" type="line"/>
    </contour>
    <component base="equal"/>
  </outline>
</glyph>
<glyph name="greaterequal" format="1">
  <advance width="540"/>
  <unicode hex="2265"/>
  <outline>
    <contour>
      <point x="101" y="89" type="move"/>
      <point x="438" y="89" type="line"/>
    </contour>
    <contour>
      <point x="431" y="321" type="move"/>
      <point x="121" y="211" type="line"/>
    </contour>
    <contour>
      <point x="116" y="439" type="move"/>
      <point x="437" y="324" type="line"/>
    </contour>
  </outline>
</glyph>
<glyph name="lozenge" format="1">
  <advance width="389"/>
  <unicode hex="25CA"/>
  <outline>
    <contour>
      <point x="75" y="269" type="move"/>
      <point x="97" y="203"/>
      <point x="173" y="48"/>
      <point x="195" y="9" type="curve"/>
    </contour>
    <contour>
      <point x="197" y="6" type="move"/>
      <point x="222" y="51"/>
      <point x="291" y="193"/>
      <point x="318" y="269" type="curve"/>
    </contour>
    <contour>
      <point x="195" y="540" type="move"/>
      <point x="173" y="501"/>
      <point x="97" y="346"/>
      <point x="75" y="280" type="curve"/>
    </contour>
    <contour>
      <point x="318" y="280" type="move"/>
      <point x="291" y="356"/>
      <point x="222" y="498"/>
      <point x="197" y="543" type="curve"/>
    </contour>
  </outline>
</glyph>
<glyph name="dottedcircle" format="1">
  <advance width="660"/>
  <unicode hex="25CC"/>
  <outline>
    <contour>
      <point x="301" y="569" type="move"/>
      <point x="301" y="551" type="line"/>
    </contour>
    <contour>
      <point x="181" y="525" type="move"/>
      <point x="181" y="507" type="line"/>
    </contour>
    <contour>
      <point x="102" y="416" type="move"/>
      <point x="102" y="398" type="line"/>
    </contour>
    <contour>
      <point x="87" y="292" type="move"/>
      <point x="87" y="274" type="line"/>
    </contour>
    <contour>
      <point x="140" y="175" type="move"/>
      <point x="140" y="157" type="line"/>
    </contour>
    <contour>
      <point x="87" y="292" type="move"/>
      <point x="87" y="274" type="line"/>
    </contour>
    <contour>
      <point x="367" y="65" type="move"/>
      <point x="367" y="83" type="line"/>
    </contour>
    <contour>
      <point x="489" y="119" type="move"/>
      <point x="489" y="137" type="line"/>
    </contour>
    <contour>
      <point x="560" y="218" type="move"/>
      <point x="560" y="236" type="line"/>
    </contour>
    <contour>
      <point x="572" y="352" type="move"/>
      <point x="572" y="370" type="line"/>
    </contour>
    <contour>
      <point x="522" y="469" type="move"/>
      <point x="522" y="487" type="line"/>
    </contour>
    <contour>
      <point x="572" y="352" type="move"/>
      <point x="572" y="370" type="line"/>
    </contour>
    <contour>
      <point x="243" y="81" type="move"/>
      <point x="243" y="99" type="line"/>
    </contour>
    <contour>
      <point x="427" y="538" type="move"/>
      <point x="427" y="556" type="line"/>
    </contour>
  </outline>
</glyph>
<glyph name=".notdef" format="1">
  <advance width="756"/>
  <outline>
    <contour>
      <point x="205" y="659" type="line"/>
      <point x="554" y="659" type="line"/>
      <point x="554" y="36" type="line"/>
      <point x="205" y="36" type="line"/>
    </contour>
  </outline>
</glyph>
<glyph name="acutecmb.cap" format="1">
  <advance width="0"/>
  <outline>
    <contour>
      <point x="113" y="729" type="move"/>
      <point x="67" y="702"/>
      <point x="19" y="671"/>
      <point x="-10" y="650" type="curve"/>
    </contour>
  </outline>
</glyph>
<glyph name="brevecmb.cap" format="1">
  <advance width="0"/>
  <outline>
    <contour>
      <point x="-124" y="739" type="move"/>
      <point x="-95" y="702"/>
      <point x="-52" y="676"/>
      <point x="-5" y="676" type="curve" smooth="yes"/>
      <point x="48" y="676"/>
      <point x="85" y="701"/>
      <point x="111" y="739" type="curve"/>
    </contour>
  </outline>
</glyph>
<glyph name="caroncmb.cap" format="1">
  <advance width="0"/>
  <outline>
    <contour>
      <point x="-1" y="664" type="move"/>
      <point x="32" y="688"/>
      <point x="67" y="712"/>
      <point x="95" y="733" type="curve"/>
    </contour>
    <contour>
      <point x="-104" y="733" type="move"/>
      <point x="-76" y="712"/>
      <point x="-42" y="688"/>
      <point x="-8" y="664" type="curve"/>
    </contour>
  </outline>
</glyph>
<glyph name="circumflexcmb.cap" format="1">
  <advance width="0"/>
  <outline>
    <contour>
      <point x="-3" y="727" type="move"/>
      <point x="-36" y="703"/>
      <point x="-71" y="679"/>
      <point x="-99" y="658" type="curve"/>
    </contour>
    <contour>
      <point x="100" y="658" type="move"/>
      <point x="72" y="679"/>
      <point x="38" y="703"/>
      <point x="4" y="727" type="curve"/>
    </contour>
  </outline>
</glyph>
<glyph name="commaaccent" format="1">
  <advance width="230"/>
  <outline>
    <contour>
      <point x="131" y="-94" type="move"/>
      <point x="137" y="-105"/>
      <point x="140" y="-118"/>
      <point x="140" y="-131" type="curve" smooth="yes"/>
      <point x="140" y="-169"/>
      <point x="110" y="-203"/>
      <point x="63" y="-225" type="curve"/>
    </contour>
  </outline>
</glyph>
<glyph name="dieresiscmb.cap" format="1">
  <advance width="0"/>
  <outline>
    <contour>
      <point x="-97" y="710" type="curve" smooth="yes"/>
      <point x="-108" y="710"/>
      <point x="-116" y="696"/>
      <point x="-116" y="683" type="curve" smooth="yes"/>
      <point x="-116" y="669"/>
      <point x="-108" y="658"/>
      <point x="-97" y="658" type="curve" smooth="yes"/>
      <point x="-87" y="658"/>
      <point x="-82" y="669"/>
      <point x="-82" y="683" type="curve" smooth="yes"/>
      <point x="-82" y="696"/>
      <point x="-87" y="710"/>
    </contour>
    <contour>
      <point x="96" y="710" type="curve" smooth="yes"/>
      <point x="85" y="710"/>
      <point x="78" y="696"/>
      <point x="78" y="683" type="curve" smooth="yes"/>
      <point x="78" y="669"/>
      <point x="85" y="658"/>
      <point x="96" y="658" type="curve" smooth="yes"/>
      <point x="106" y="658"/>
      <point x="111" y="669"/>
      <point x="111" y="683" type="curve" smooth="yes"/>
      <point x="111" y="696"/>
      <point x="106" y="710"/>
    </contour>
  </outline>
</glyph>
<glyph name="dotaccentcmb.cap" format="1">
  <advance width="0"/>
  <outline>
    <contour>
      <point x="-5" y="725" type="curve" smooth="yes"/>
      <point x="-18" y="725"/>
      <point x="-26" y="711"/>
      <point x="-26" y="697" type="curve" smooth="yes"/>
      <point x="-26" y="684"/>
      <point x="-18" y="672"/>
      <point x="-5" y="672" type="curve" smooth="yes"/>
      <point x="6" y="672"/>
      <point x="13" y="684"/>
      <point x="13" y="697" type="curve" smooth="yes"/>
      <point x="13" y="711"/>
      <point x="6" y="725"/>
    </contour>
  </outline>
</glyph>
<glyph name="gravecmb.cap" format="1">
  <advance width="0"/>
  <outline>
    <contour>
      <point x="-105" y="730" type="move"/>
      <point x="-69" y="710"/>
      <point x="-16" y="670"/>
      <point x="11" y="649" type="curve"/>
    </contour>
  </outline>
</glyph>
<glyph name="hungarianumlautcmb.cap" format="1">
  <advance width="0"/>
  <outline>
    <contour>
      <point x="-19" y="731" type="move"/>
      <point x="-52" y="706"/>
      <point x="-82" y="682"/>
      <point x="-108" y="655" type="curve"/>
    </contour>
    <contour>
      <point x="186" y="731" type="move"/>
      <point x="150" y="702"/>
      <point x="121" y="676"/>
      <point x="97" y="655" type="curve"/>
    </contour>
  </outline>
</glyph>
<glyph name="hungarumlautcmb.cap" format="1">
  <advance width="0"/>
  <outline>
    <contour>
      <point x="-59" y="749" type="move"/>
      <point x="-81" y="714"/>
      <point x="-96" y="684"/>
      <point x="-108" y="654" type="curve"/>
    </contour>
    <contour>
      <point x="146" y="749" type="move"/>
      <point x="124" y="714"/>
      <point x="109" y="684"/>
      <point x="97" y="654" type="curve"/>
    </contour>
  </outline>
</glyph>
<glyph name="knAIlengthmark.following" format="1">
  <advance width="609"/>
  <outline>
    <contour>
      <point x="232" y="-226" type="move"/>
      <point x="258" y="-241"/>
      <point x="278" y="-249"/>
      <point x="309" y="-249" type="curve" smooth="yes"/>
      <point x="346" y="-249"/>
      <point x="381" y="-223"/>
      <point x="381" y="-179" type="curve" smooth="yes"/>
      <point x="381" y="-147"/>
      <point x="359" y="-113"/>
      <point x="311" y="-113" type="curve" smooth="yes"/>
      <point x="263" y="-113"/>
      <point x="230" y="-157"/>
      <point x="230" y="-209" type="curve" smooth="yes"/>
      <point x="230" y="-257"/>
      <point x="248" y="-293"/>
      <point x="282" y="-327" type="curve" smooth="yes"/>
      <point x="312" y="-357"/>
      <point x="363" y="-372"/>
      <point x="412" y="-372" type="curve" smooth="yes"/>
      <point x="463" y="-372"/>
      <point x="507" y="-354"/>
      <point x="534" y="-327" type="curve" smooth="yes"/>
      <point x="559" y="-302"/>
      <point x="573" y="-266"/>
      <point x="573" y="-227" type="curve" smooth="yes"/>
      <point x="573" y="-185"/>
      <point x="555" y="-147"/>
      <point x="531" y="-123" type="curve" smooth="yes"/>
      <point x="514" y="-106"/>
      <point x="500" y="-96"/>
      <point x="479" y="-86" type="curve"/>
    </contour>
    <contour>
      <point x="484" y="-85" type="move"/>
      <point x="525" y="-73"/>
      <point x="548" y="-46"/>
      <point x="548" y="-7" type="curve" smooth="yes"/>
      <point x="548" y="14"/>
      <point x="539" y="36"/>
      <point x="524" y="54" type="curve"/>
    </contour>
  </outline>
</glyph>
<glyph name="knBA.base" format="1">
  <advance width="721"/>
  <outline>
    <contour>
      <point x="439" y="443" type="move"/>
      <point x="531" y="443" type="line" smooth="yes"/>
    </contour>
    <contour>
      <point x="92" y="412" type="move"/>
      <point x="117" y="440"/>
      <point x="147" y="458"/>
      <point x="183" y="458" type="curve" smooth="yes"/>
      <point x="235" y="458"/>
      <point x="268" y="424"/>
      <point x="268" y="381" type="curve" smooth="yes"/>
      <point x="268" y="342"/>
      <point x="246" y="309"/>
      <point x="189" y="263" type="curve" smooth="yes"/>
      <point x="141" y="224"/>
      <point x="110" y="183"/>
      <point x="110" y="135" type="curve" smooth="yes"/>
      <point x="110" y="80"/>
      <point x="149" y="33"/>
      <point x="222" y="33" type="curve"/>
      <point x="289" y="33"/>
      <point x="337" y="66"/>
      <point x="379" y="134" type="curve"/>
      <point x="384" y="134" type="line"/>
      <point x="423" y="66"/>
      <point x="470" y="33"/>
      <point x="536" y="33" type="curve" smooth="yes"/>
      <point x="604" y="33"/>
      <point x="657" y="86"/>
      <point x="657" y="178" type="curve"/>
      <point x="657" y="275"/>
      <point x="593" y="379"/>
      <point x="498" y="443" type="curve"/>
    </contour>
  </outline>
</glyph>
